Prima-Regular.ufo
<glyph name="exclam" format="2">
	<advance width="785"/>
	<unicode hex="0021"/>
	<outline>
		<contour>
			<point x="366" y="396" type="curve" smooth="yes"/>
			<point x="391" y="396"/>
			<point x="409" y="409"/>
			<point x="411" y="441" type="curve" smooth="yes"/>
			<point x="485" y="1529" type="line" smooth="yes"/>
			<point x="486" y="1544"/>
			<point x="486" y="1549"/>
			<point x="486" y="1554" type="curve" smooth="yes"/>
			<point x="486" y="1588"/>
			<point x="473" y="1600"/>
			<point x="444" y="1600" type="curve" smooth="yes"/>
			<point x="420" y="1600"/>
			<point x="402" y="1591"/>
			<point x="399" y="1546" type="curve" smooth="yes"/>
			<point x="327" y="443" type="line" smooth="yes"/>
			<point x="327" y="441"/>
			<point x="327" y="439"/>
			<point x="327" y="437" type="curve" smooth="yes"/>
			<point x="327" y="409"/>
			<point x="340" y="396"/>
		</contour>
		<contour>
			<point x="341" y="-12" type="curve" smooth="yes"/>
			<point x="391" y="-12"/>
			<point x="439" y="35"/>
			<point x="439" y="91" type="curve" smooth="yes"/>
			<point x="439" y="140"/>
			<point x="403" y="177"/>
			<point x="352" y="177" type="curve" smooth="yes"/>
			<point x="303" y="177"/>
			<point x="260" y="134"/>
			<point x="260" y="78" type="curve" smooth="yes"/>
			<point x="260" y="22"/>
			<point x="296" y="-12"/>
		</contour>
	</outline>
</glyph>
<glyph name="numbersign" format="2">
	<advance width="1158"/>
	<unicode hex="0023"/>
	<outline>
		<contour>
			<point x="170" y="-12" type="curve" smooth="yes"/>
			<point x="189" y="-12"/>
			<point x="200" y="-4"/>
			<point x="221" y="73" type="curve" smooth="yes"/>
			<point x="316" y="421" type="line"/>
			<point x="663" y="424" type="line"/>
			<point x="575" y="95" type="line" smooth="yes"/>
			<point x="559" y="36"/>
			<point x="559" y="27"/>
			<point x="559" y="19" type="curve" smooth="yes"/>
			<point x="559" y="-1"/>
			<point x="573" y="-12"/>
			<point x="592" y="-12" type="curve" smooth="yes"/>
			<point x="607" y="-12"/>
			<point x="622" y="1"/>
			<point x="637" y="56" type="curve" smooth="yes"/>
			<point x="736" y="425" type="line"/>
			<point x="942" y="429" type="line" smooth="yes"/>
			<point x="973" y="430"/>
			<point x="989" y="443"/>
			<point x="989" y="466" type="curve" smooth="yes"/>
			<point x="989" y="482"/>
			<point x="977" y="494"/>
			<point x="941" y="494" type="curve" smooth="yes"/>
			<point x="755" y="494" type="line"/>
			<point x="868" y="914" type="line"/>
			<point x="1055" y="919" type="line" smooth="yes"/>
			<point x="1083" y="920"/>
			<point x="1098" y="932"/>
			<point x="1098" y="954" type="curve" smooth="yes"/>
			<point x="1098" y="970"/>
			<point x="1083" y="983"/>
			<point x="1050" y="983" type="curve" smooth="yes"/>
			<point x="887" y="983" type="line"/>
			<point x="957" y="1243" type="line" smooth="yes"/>
			<point x="978" y="1322"/>
			<point x="979" y="1336"/>
			<point x="979" y="1344" type="curve" smooth="yes"/>
			<point x="979" y="1361"/>
			<point x="964" y="1375"/>
			<point x="944" y="1375" type="curve" smooth="yes"/>
			<point x="923" y="1375"/>
			<point x="915" y="1369"/>
			<point x="901" y="1317" type="curve" smooth="yes"/>
			<point x="812" y="984" type="line"/>
			<point x="469" y="984" type="line"/>
			<point x="550" y="1281" type="line" smooth="yes"/>
			<point x="561" y="1320"/>
			<point x="562" y="1329"/>
			<point x="562" y="1345" type="curve" smooth="yes"/>
			<point x="562" y="1362"/>
			<point x="545" y="1375"/>
			<point x="527" y="1375" type="curve" smooth="yes"/>
			<point x="511" y="1375"/>
			<point x="497" y="1364"/>
			<point x="489" y="1333" type="curve" smooth="yes"/>
			<point x="395" y="985" type="line"/>
			<point x="204" y="985" type="line" smooth="yes"/>
			<point x="175" y="985"/>
			<point x="159" y="968"/>
			<point x="159" y="947" type="curve" smooth="yes"/>
			<point x="159" y="926"/>
			<point x="175" y="910"/>
			<point x="204" y="910" type="curve" smooth="yes"/>
			<point x="375" y="910" type="line"/>
			<point x="263" y="496" type="line"/>
			<point x="105" y="496" type="line" smooth="yes"/>
			<point x="76" y="496"/>
			<point x="60" y="479"/>
			<point x="60" y="458" type="curve" smooth="yes"/>
			<point x="60" y="437"/>
			<point x="76" y="421"/>
			<point x="105" y="421" type="curve" smooth="yes"/>
			<point x="243" y="421" type="line"/>
			<point x="161" y="116" type="line" smooth="yes"/>
			<point x="141" y="40"/>
			<point x="140" y="32"/>
			<point x="140" y="25" type="curve" smooth="yes"/>
			<point x="140" y="1"/>
			<point x="155" y="-12"/>
		</contour>
		<contour>
			<point x="336" y="496" type="line"/>
			<point x="449" y="911" type="line"/>
			<point x="793" y="913" type="line"/>
			<point x="682" y="494" type="line"/>
		</contour>
	</outline>
</glyph>
<glyph name="dollar" format="2">
	<unicode hex="0024"/>
	<advance width="1200"/>
	<outline>
		<contour>
			<point x="490" y="-12" type="curve" smooth="yes"/>
			<point x="763" y="-12"/>
			<point x="987" y="144"/>
			<point x="987" y="403" type="curve" smooth="yes"/>
			<point x="987" y="570"/>
			<point x="916" y="688"/>
			<point x="635" y="873" type="curve"/>
			<point x="592" y="893" type="line"/>
			<point x="387" y="1018"/>
			<point x="323" y="1121"/>
			<point x="323" y="1248" type="curve" smooth="yes"/>
			<point x="323" y="1420"/>
			<point x="478" y="1545"/>
			<point x="682" y="1545" type="curve" smooth="yes"/>
			<point x="783" y="1545"/>
			<point x="855" y="1525"/>
			<point x="926" y="1497" type="curve" smooth="yes"/>
			<point x="952" y="1487"/>
			<point x="964" y="1483"/>
			<point x="972" y="1483" type="curve" smooth="yes"/>
			<point x="992" y="1483"/>
			<point x="1005" y="1501"/>
			<point x="1005" y="1520" type="curve" smooth="yes"/>
			<point x="1005" y="1536"/>
			<point x="983" y="1558"/>
			<point x="917" y="1583" type="curve" smooth="yes"/>
			<point x="856" y="1606"/>
			<point x="777" y="1625"/>
			<point x="693" y="1625" type="curve" smooth="yes"/>
			<point x="424" y="1625"/>
			<point x="243" y="1458"/>
			<point x="243" y="1241" type="curve" smooth="yes"/>
			<point x="243" y="1080"/>
			<point x="312" y="972"/>
			<point x="576" y="801" type="curve"/>
			<point x="623" y="780" type="line"/>
			<point x="850" y="629"/>
			<point x="907" y="543"/>
			<point x="907" y="389" type="curve" smooth="yes"/>
			<point x="907" y="187"/>
			<point x="707" y="68"/>
			<point x="498" y="68" type="curve" smooth="yes"/>
			<point x="406" y="68"/>
			<point x="300" y="83"/>
			<point x="234" y="105" type="curve" smooth="yes"/>
			<point x="208" y="114"/>
			<point x="188" y="120"/>
			<point x="173" y="120" type="curve" smooth="yes"/>
			<point x="153" y="120"/>
			<point x="140" y="103"/>
			<point x="140" y="83" type="curve" smooth="yes"/>
			<point x="140" y="67"/>
			<point x="152" y="54"/>
			<point x="180" y="42" type="curve" smooth="yes"/>
			<point x="248" y="13"/>
			<point x="367" y="-12"/>
		</contour>
		<contour>
			<point x="467" y="-206" type="curve" smooth="yes"/>
			<point x="483" y="-206"/>
			<point x="498" y="-195"/>
			<point x="500" y="-179" type="curve" smooth="yes"/>
			<point x="768" y="1683" type="line" smooth="yes"/>
			<point x="770" y="1695"/>
			<point x="771" y="1703"/>
			<point x="771" y="1710" type="curve" smooth="yes"/>
			<point x="771" y="1725"/>
			<point x="757" y="1740"/>
			<point x="730" y="1740" type="curve" smooth="yes"/>
			<point x="711" y="1740"/>
			<point x="697" y="1729"/>
			<point x="694" y="1710" type="curve" smooth="yes"/>
			<point x="427" y="-142" type="line" smooth="yes"/>
			<point x="425" y="-154"/>
			<point x="424" y="-162"/>
			<point x="424" y="-170" type="curve" smooth="yes"/>
			<point x="424" y="-189"/>
			<point x="435" y="-206"/>
		</contour>
	</outline>
	<anchor name="bottom" x="638" y="0"/>
	<anchor name="top" x="683" y="1600"/>
</glyph>
<glyph name="percent" format="2">
	<unicode hex="0025"/>
	<advance width="1737"/>
	<outline>
		<contour>
			<point x="441" y="-12" type="curve" smooth="yes"/>
			<point x="456" y="-12"/>
			<point x="464" y="-5"/>
			<point x="478" y="20" type="curve" smooth="yes"/>
			<point x="1330" y="1549" type="line" smooth="yes"/>
			<point x="1338" y="1564"/>
			<point x="1344" y="1576"/>
			<point x="1344" y="1587" type="curve" smooth="yes"/>
			<point x="1344" y="1611"/>
			<point x="1324" y="1625"/>
			<point x="1301" y="1625" type="curve" smooth="yes"/>
			<point x="1286" y="1625"/>
			<point x="1278" y="1618"/>
			<point x="1264" y="1593" type="curve" smooth="yes"/>
			<point x="412" y="64" type="line" smooth="yes"/>
			<point x="404" y="49"/>
			<point x="398" y="37"/>
			<point x="398" y="26" type="curve" smooth="yes"/>
			<point x="398" y="2"/>
			<point x="418" y="-12"/>
		</contour>
		<contour>
			<point x="1251" y="30" type="curve" smooth="yes"/>
			<point x="1415" y="30"/>
			<point x="1542" y="198"/>
			<point x="1542" y="407" type="curve" smooth="yes"/>
			<point x="1542" y="579"/>
			<point x="1450" y="696"/>
			<point x="1315" y="696" type="curve" smooth="yes"/>
			<point x="1152" y="696"/>
			<point x="1024" y="528"/>
			<point x="1024" y="319" type="curve" smooth="yes"/>
			<point x="1024" y="147"/>
			<point x="1117" y="30"/>
		</contour>
		<contour>
			<point x="1256" y="104" type="curve" smooth="yes"/>
			<point x="1166" y="104"/>
			<point x="1100" y="187"/>
			<point x="1100" y="327" type="curve" smooth="yes"/>
			<point x="1100" y="496"/>
			<point x="1199" y="622"/>
			<point x="1310" y="622" type="curve" smooth="yes"/>
			<point x="1408" y="622"/>
			<point x="1466" y="539"/>
			<point x="1466" y="399" type="curve" smooth="yes"/>
			<point x="1466" y="230"/>
			<point x="1367" y="104"/>
		</contour>
		<contour>
			<point x="427" y="904" type="curve" smooth="yes"/>
			<point x="591" y="904"/>
			<point x="718" y="1072"/>
			<point x="718" y="1281" type="curve" smooth="yes"/>
			<point x="718" y="1453"/>
			<point x="626" y="1570"/>
			<point x="491" y="1570" type="curve" smooth="yes"/>
			<point x="328" y="1570"/>
			<point x="200" y="1402"/>
			<point x="200" y="1193" type="curve" smooth="yes"/>
			<point x="200" y="1021"/>
			<point x="293" y="904"/>
		</contour>
		<contour>
			<point x="432" y="978" type="curve" smooth="yes"/>
			<point x="342" y="978"/>
			<point x="276" y="1061"/>
			<point x="276" y="1201" type="curve" smooth="yes"/>
			<point x="276" y="1370"/>
			<point x="375" y="1496"/>
			<point x="486" y="1496" type="curve" smooth="yes"/>
			<point x="584" y="1496"/>
			<point x="642" y="1413"/>
			<point x="642" y="1273" type="curve" smooth="yes"/>
			<point x="642" y="1104"/>
			<point x="543" y="978"/>
		</contour>
	</outline>
</glyph>
<glyph name="ampersand" format="2">
	<unicode hex="0026"/>
	<advance width="1513"/>
	<outline>
		<contour>
			<point x="1328" y="-55" type="curve" smooth="yes"/>
			<point x="1348" y="-55"/>
			<point x="1363" y="-37"/>
			<point x="1363" y="-20" type="curve" smooth="yes"/>
			<point x="1363" y="-6"/>
			<point x="1356" y="11"/>
			<point x="1332" y="39" type="curve" smooth="yes"/>
			<point x="680" y="797" type="line" smooth="yes"/>
			<point x="495" y="1012"/>
			<point x="432" y="1110"/>
			<point x="432" y="1259" type="curve" smooth="yes"/>
			<point x="432" y="1447"/>
			<point x="567" y="1547"/>
			<point x="719" y="1547" type="curve" smooth="yes"/>
			<point x="859" y="1547"/>
			<point x="960" y="1448"/>
			<point x="960" y="1299" type="curve" smooth="yes"/>
			<point x="960" y="1167"/>
			<point x="885" y="1046"/>
			<point x="573" y="870" type="curve" smooth="yes"/>
			<point x="274" y="701"/>
			<point x="210" y="502"/>
			<point x="210" y="347" type="curve" smooth="yes"/>
			<point x="210" y="130"/>
			<point x="352" y="-12"/>
			<point x="574" y="-12" type="curve" smooth="yes"/>
			<point x="832" y="-12"/>
			<point x="1040" y="154"/>
			<point x="1269" y="458" type="curve" smooth="yes"/>
			<point x="1292" y="489"/>
			<point x="1299" y="504"/>
			<point x="1299" y="514" type="curve" smooth="yes"/>
			<point x="1299" y="534"/>
			<point x="1283" y="549"/>
			<point x="1264" y="549" type="curve" smooth="yes"/>
			<point x="1251" y="549"/>
			<point x="1243" y="541"/>
			<point x="1218" y="509" type="curve" smooth="yes"/>
			<point x="996" y="220"/>
			<point x="803" y="66"/>
			<point x="590" y="66" type="curve" smooth="yes"/>
			<point x="398" y="66"/>
			<point x="290" y="171"/>
			<point x="290" y="352" type="curve" smooth="yes"/>
			<point x="290" y="483"/>
			<point x="338" y="650"/>
			<point x="623" y="815" type="curve" smooth="yes"/>
			<point x="946" y="1002"/>
			<point x="1040" y="1148"/>
			<point x="1040" y="1309" type="curve" smooth="yes"/>
			<point x="1040" y="1494"/>
			<point x="910" y="1625"/>
			<point x="721" y="1625" type="curve" smooth="yes"/>
			<point x="496" y="1625"/>
			<point x="352" y="1456"/>
			<point x="352" y="1267" type="curve" smooth="yes"/>
			<point x="352" y="1093"/>
			<point x="422" y="976"/>
			<point x="633" y="730" type="curve" smooth="yes"/>
			<point x="1270" y="-11" type="line" smooth="yes"/>
			<point x="1299" y="-45"/>
			<point x="1312" y="-55"/>
		</contour>
	</outline>
</glyph>
<glyph name="quotesingle" format="2">
	<advance width="419"/>
	<unicode hex="0027"/>
	<outline>
		<contour>
			<point x="222" y="1112" type="curve" smooth="yes"/>
			<point x="245" y="1112"/>
			<point x="254" y="1124"/>
			<point x="258" y="1163" type="curve" smooth="yes"/>
			<point x="294" y="1489" type="line" smooth="yes"/>
			<point x="297" y="1519"/>
			<point x="299" y="1541"/>
			<point x="299" y="1554" type="curve" smooth="yes"/>
			<point x="299" y="1586"/>
			<point x="285" y="1600"/>
			<point x="254" y="1600" type="curve" smooth="yes"/>
			<point x="231" y="1600"/>
			<point x="211" y="1583"/>
			<point x="209" y="1549" type="curve" smooth="yes"/>
			<point x="191" y="1194" type="line" smooth="yes"/>
			<point x="190" y="1169"/>
			<point x="190" y="1156"/>
			<point x="190" y="1149" type="curve" smooth="yes"/>
			<point x="191" y="1118"/>
			<point x="202" y="1112"/>
		</contour>
	</outline>
</glyph>
<glyph name="parenleft" format="2">
	<unicode hex="0028"/>
	<advance width="761"/>
	<outline>
		<contour>
			<point x="526" y="-305" type="curve" smooth="yes"/>
			<point x="541" y="-305"/>
			<point x="550" y="-293"/>
			<point x="550" y="-279" type="curve" smooth="yes"/>
			<point x="550" y="-265"/>
			<point x="542" y="-252"/>
			<point x="509" y="-204" type="curve" smooth="yes"/>
			<point x="356" y="15"/>
			<point x="265" y="269"/>
			<point x="265" y="595" type="curve" smooth="yes"/>
			<point x="265" y="902"/>
			<point x="369" y="1241"/>
			<point x="585" y="1505" type="curve" smooth="yes"/>
			<point x="634" y="1565"/>
			<point x="641" y="1578"/>
			<point x="641" y="1591" type="curve" smooth="yes"/>
			<point x="641" y="1606"/>
			<point x="628" y="1625"/>
			<point x="603" y="1625" type="curve" smooth="yes"/>
			<point x="580" y="1625"/>
			<point x="559" y="1609"/>
			<point x="507" y="1543" type="curve" smooth="yes"/>
			<point x="301" y="1284"/>
			<point x="180" y="960"/>
			<point x="180" y="602" type="curve" smooth="yes"/>
			<point x="180" y="255"/>
			<point x="282" y="-20"/>
			<point x="445" y="-237" type="curve" smooth="yes"/>
			<point x="487" y="-293"/>
			<point x="509" y="-305"/>
		</contour>
	</outline>
</glyph>
<glyph name="parenright" format="2">
	<advance width="761"/>
	<unicode hex="0029"/>
	<outline>
		<contour>
			<point x="158" y="-299" type="curve" smooth="yes"/>
			<point x="181" y="-299"/>
			<point x="202" y="-283"/>
			<point x="254" y="-217" type="curve" smooth="yes"/>
			<point x="460" y="42"/>
			<point x="581" y="366"/>
			<point x="581" y="724" type="curve" smooth="yes"/>
			<point x="581" y="1071"/>
			<point x="479" y="1346"/>
			<point x="316" y="1563" type="curve" smooth="yes"/>
			<point x="274" y="1619"/>
			<point x="252" y="1631"/>
			<point x="235" y="1631" type="curve" smooth="yes"/>
			<point x="220" y="1631"/>
			<point x="211" y="1619"/>
			<point x="211" y="1605" type="curve" smooth="yes"/>
			<point x="211" y="1591"/>
			<point x="219" y="1578"/>
			<point x="252" y="1530" type="curve" smooth="yes"/>
			<point x="405" y="1311"/>
			<point x="496" y="1057"/>
			<point x="496" y="731" type="curve" smooth="yes"/>
			<point x="496" y="424"/>
			<point x="392" y="85"/>
			<point x="176" y="-179" type="curve" smooth="yes"/>
			<point x="127" y="-239"/>
			<point x="120" y="-252"/>
			<point x="120" y="-265" type="curve" smooth="yes"/>
			<point x="120" y="-280"/>
			<point x="133" y="-299"/>
		</contour>
	</outline>
</glyph>
<glyph name="asterisk" format="2">
	<advance width="874"/>
	<unicode hex="002A"/>
	<outline>
		<contour>
			<point x="292" y="1024" type="curve" smooth="yes"/>
			<point x="306" y="1024"/>
			<point x="317" y="1033"/>
			<point x="329" y="1054" type="curve" smooth="yes"/>
			<point x="452" y="1270" type="line"/>
			<point x="571" y="1060" type="line" smooth="yes"/>
			<point x="586" y="1033"/>
			<point x="598" y="1024"/>
			<point x="612" y="1024" type="curve" smooth="yes"/>
			<point x="633" y="1024"/>
			<point x="647" y="1037"/>
			<point x="647" y="1054" type="curve" smooth="yes"/>
			<point x="647" y="1064"/>
			<point x="644" y="1073"/>
			<point x="629" y="1099" type="curve" smooth="yes"/>
			<point x="508" y="1304" type="line"/>
			<point x="592" y="1302"/>
			<point x="685" y="1301"/>
			<point x="759" y="1301" type="curve" smooth="yes"/>
			<point x="785" y="1301"/>
			<point x="804" y="1311"/>
			<point x="804" y="1339" type="curve" smooth="yes"/>
			<point x="804" y="1361"/>
			<point x="790" y="1371"/>
			<point x="764" y="1371" type="curve" smooth="yes"/>
			<point x="689" y="1371"/>
			<point x="594" y="1370"/>
			<point x="509" y="1368" type="curve"/>
			<point x="633" y="1579" type="line" smooth="yes"/>
			<point x="642" y="1594"/>
			<point x="648" y="1609"/>
			<point x="648" y="1617" type="curve" smooth="yes"/>
			<point x="648" y="1639"/>
			<point x="625" y="1648"/>
			<point x="611" y="1648" type="curve" smooth="yes"/>
			<point x="597" y="1648"/>
			<point x="586" y="1639"/>
			<point x="575" y="1619" type="curve" smooth="yes"/>
			<point x="453" y="1402" type="line"/>
			<point x="331" y="1615" type="line" smooth="yes"/>
			<point x="320" y="1635"/>
			<point x="311" y="1648"/>
			<point x="297" y="1648" type="curve" smooth="yes"/>
			<point x="277" y="1648"/>
			<point x="257" y="1631"/>
			<point x="257" y="1613" type="curve" smooth="yes"/>
			<point x="257" y="1605"/>
			<point x="260" y="1599"/>
			<point x="272" y="1578" type="curve" smooth="yes"/>
			<point x="395" y="1368" type="line"/>
			<point x="313" y="1370"/>
			<point x="208" y="1371"/>
			<point x="148" y="1371" type="curve" smooth="yes"/>
			<point x="119" y="1371"/>
			<point x="100" y="1361"/>
			<point x="100" y="1333" type="curve" smooth="yes"/>
			<point x="100" y="1311"/>
			<point x="114" y="1301"/>
			<point x="143" y="1301" type="curve" smooth="yes"/>
			<point x="207" y="1301"/>
			<point x="311" y="1302"/>
			<point x="395" y="1304" type="curve"/>
			<point x="270" y="1092" type="line" smooth="yes"/>
			<point x="262" y="1078"/>
			<point x="257" y="1067"/>
			<point x="257" y="1056" type="curve" smooth="yes"/>
			<point x="257" y="1036"/>
			<point x="272" y="1024"/>
		</contour>
	</outline>
</glyph>
<glyph name="plus" format="2">
	<unicode hex="002B"/>
	<advance width="1200"/>
	<outline>
		<contour>
			<point x="574" y="360" type="curve" smooth="yes"/>
			<point x="595" y="360"/>
			<point x="607" y="373"/>
			<point x="608" y="395" type="curve" smooth="yes"/>
			<point x="663" y="1218" type="line" smooth="yes"/>
			<point x="664" y="1232"/>
			<point x="665" y="1246"/>
			<point x="665" y="1251" type="curve" smooth="yes"/>
			<point x="665" y="1275"/>
			<point x="647" y="1285"/>
			<point x="626" y="1285" type="curve" smooth="yes"/>
			<point x="602" y="1285"/>
			<point x="591" y="1275"/>
			<point x="588" y="1231" type="curve" smooth="yes"/>
			<point x="536" y="431" type="line" smooth="yes"/>
			<point x="535" y="416"/>
			<point x="534" y="401"/>
			<point x="534" y="392" type="curve" smooth="yes"/>
			<point x="534" y="373"/>
			<point x="548" y="360"/>
		</contour>
		<contour>
			<point x="231" y="784" type="curve" smooth="yes"/>
			<point x="993" y="784" type="line" smooth="yes"/>
			<point x="1032" y="784"/>
			<point x="1044" y="803"/>
			<point x="1044" y="827" type="curve" smooth="yes"/>
			<point x="1044" y="850"/>
			<point x="1027" y="859"/>
			<point x="1000" y="859" type="curve" smooth="yes"/>
			<point x="237" y="859" type="line" smooth="yes"/>
			<point x="202" y="859"/>
			<point x="188" y="842"/>
			<point x="188" y="820" type="curve" smooth="yes"/>
			<point x="188" y="796"/>
			<point x="203" y="784"/>
		</contour>
	</outline>
</glyph>
<glyph name="comma" format="2">
	<advance width="620"/>
	<unicode hex="002C"/>
	<outline>
		<contour>
			<point x="155" y="-372" type="curve" smooth="yes"/>
			<point x="169" y="-372"/>
			<point x="184" y="-362"/>
			<point x="214" y="-327" type="curve" smooth="yes"/>
			<point x="312" y="-212"/>
			<point x="353" y="-82"/>
			<point x="367" y="138" type="curve" smooth="yes"/>
			<point x="369" y="174"/>
			<point x="370" y="193"/>
			<point x="370" y="210" type="curve" smooth="yes"/>
			<point x="370" y="242"/>
			<point x="355" y="256"/>
			<point x="324" y="256" type="curve" smooth="yes"/>
			<point x="294" y="256"/>
			<point x="282" y="242"/>
			<point x="279" y="189" type="curve" smooth="yes"/>
			<point x="262" y="-100"/>
			<point x="233" y="-192"/>
			<point x="141" y="-300" type="curve" smooth="yes"/>
			<point x="129" y="-314"/>
			<point x="120" y="-326"/>
			<point x="120" y="-337" type="curve" smooth="yes"/>
			<point x="120" y="-353"/>
			<point x="139" y="-372"/>
		</contour>
	</outline>
</glyph>
<glyph name="hyphen" format="2">
	<unicode hex="002D"/>
	<advance width="924"/>
	<outline>
		<contour>
			<point x="190" y="651" type="curve" smooth="yes"/>
			<point x="729" y="651" type="line" smooth="yes"/>
			<point x="755" y="651"/>
			<point x="774" y="662"/>
			<point x="774" y="692" type="curve" smooth="yes"/>
			<point x="774" y="715"/>
			<point x="760" y="726"/>
			<point x="734" y="726" type="curve" smooth="yes"/>
			<point x="195" y="726" type="line" smooth="yes"/>
			<point x="169" y="726"/>
			<point x="150" y="715"/>
			<point x="150" y="686" type="curve" smooth="yes"/>
			<point x="150" y="662"/>
			<point x="164" y="651"/>
		</contour>
	</outline>
</glyph>
<glyph name="period" format="2">
	<unicode hex="002E"/>
	<advance width="619"/>
	<outline>
		<contour>
			<point x="281" y="-12" type="curve" smooth="yes"/>
			<point x="331" y="-12"/>
			<point x="379" y="35"/>
			<point x="379" y="91" type="curve" smooth="yes"/>
			<point x="379" y="140"/>
			<point x="343" y="177"/>
			<point x="292" y="177" type="curve" smooth="yes"/>
			<point x="243" y="177"/>
			<point x="200" y="134"/>
			<point x="200" y="78" type="curve" smooth="yes"/>
			<point x="200" y="22"/>
			<point x="236" y="-12"/>
		</contour>
	</outline>
</glyph>
<glyph name="slash" format="2">
	<unicode hex="002F"/>
	<advance width="1036"/>
	<outline>
		<contour>
			<point x="68" y="-112" type="curve" smooth="yes"/>
			<point x="82" y="-112"/>
			<point x="94" y="-104"/>
			<point x="100" y="-93" type="curve" smooth="yes"/>
			<point x="1060" y="1599" type="line" smooth="yes"/>
			<point x="1063" y="1605"/>
			<point x="1066" y="1612"/>
			<point x="1066" y="1619" type="curve" smooth="yes"/>
			<point x="1066" y="1640"/>
			<point x="1049" y="1657"/>
			<point x="1028" y="1657" type="curve" smooth="yes"/>
			<point x="1014" y="1657"/>
			<point x="1002" y="1649"/>
			<point x="996" y="1638" type="curve" smooth="yes"/>
			<point x="36" y="-54" type="line" smooth="yes"/>
			<point x="33" y="-60"/>
			<point x="30" y="-67"/>
			<point x="30" y="-74" type="curve" smooth="yes"/>
			<point x="30" y="-95"/>
			<point x="47" y="-112"/>
		</contour>
	</outline>
</glyph>
<glyph name="zero" format="2">
	<unicode hex="0030"/>
	<advance width="1168"/>
	<outline>
		<contour>
			<point x="528" y="-12" type="curve" smooth="yes"/>
			<point x="819" y="-12"/>
			<point x="1038" y="352"/>
			<point x="1038" y="898" type="curve" smooth="yes"/>
			<point x="1038" y="1356"/>
			<point x="884" y="1616"/>
			<point x="639" y="1616" type="curve" smooth="yes"/>
			<point x="348" y="1616"/>
			<point x="130" y="1251"/>
			<point x="130" y="705" type="curve" smooth="yes"/>
			<point x="130" y="247"/>
			<point x="283" y="-12"/>
		</contour>
		<contour>
			<point x="532" y="68" type="curve" smooth="yes"/>
			<point x="340" y="68"/>
			<point x="215" y="298"/>
			<point x="215" y="704" type="curve" smooth="yes"/>
			<point x="215" y="1200"/>
			<point x="402" y="1536"/>
			<point x="634" y="1536" type="curve" smooth="yes"/>
			<point x="828" y="1536"/>
			<point x="953" y="1303"/>
			<point x="953" y="899" type="curve" smooth="yes"/>
			<point x="953" y="404"/>
			<point x="765" y="68"/>
		</contour>
	</outline>
</glyph>
<glyph name="one" format="2">
	<advance width="886"/>
	<unicode hex="0031"/>
	<outline>
		<contour>
			<point x="500" y="-12" type="curve" smooth="yes"/>
			<point x="529" y="-12"/>
			<point x="544" y="2"/>
			<point x="546" y="31" type="curve" smooth="yes"/>
			<point x="644" y="1518" type="line" smooth="yes"/>
			<point x="645" y="1534"/>
			<point x="646" y="1552"/>
			<point x="646" y="1565" type="curve" smooth="yes"/>
			<point x="646" y="1585"/>
			<point x="628" y="1605"/>
			<point x="602" y="1605" type="curve" smooth="yes"/>
			<point x="588" y="1605"/>
			<point x="579" y="1602"/>
			<point x="543" y="1576" type="curve" smooth="yes"/>
			<point x="457" y="1514"/>
			<point x="294" y="1402"/>
			<point x="116" y="1289" type="curve" smooth="yes"/>
			<point x="95" y="1276"/>
			<point x="90" y="1266"/>
			<point x="90" y="1253" type="curve" smooth="yes"/>
			<point x="90" y="1231"/>
			<point x="110" y="1211"/>
			<point x="128" y="1211" type="curve" smooth="yes"/>
			<point x="140" y="1211"/>
			<point x="150" y="1215"/>
			<point x="169" y="1227" type="curve" smooth="yes"/>
			<point x="322" y="1322"/>
			<point x="456" y="1413"/>
			<point x="558" y="1485" type="curve"/>
			<point x="464" y="70" type="line" smooth="yes"/>
			<point x="463" y="56"/>
			<point x="462" y="42"/>
			<point x="462" y="31" type="curve" smooth="yes"/>
			<point x="462" y="0"/>
			<point x="477" y="-12"/>
		</contour>
	</outline>
</glyph>
<glyph name="two" format="2">
	<unicode hex="0032"/>
	<advance width="1195"/>
	<outline>
		<contour>
			<point x="160" y="0" type="curve" smooth="yes"/>
			<point x="964" y="0" type="line" smooth="yes"/>
			<point x="1007" y="0"/>
			<point x="1020" y="18"/>
			<point x="1020" y="42" type="curve" smooth="yes"/>
			<point x="1020" y="62"/>
			<point x="1006" y="78"/>
			<point x="974" y="78" type="curve" smooth="yes"/>
			<point x="205" y="78" type="line"/>
			<point x="812" y="643"/>
			<point x="998" y="943"/>
			<point x="998" y="1213" type="curve" smooth="yes"/>
			<point x="998" y="1465"/>
			<point x="842" y="1614"/>
			<point x="614" y="1614" type="curve" smooth="yes"/>
			<point x="466" y="1614"/>
			<point x="320" y="1540"/>
			<point x="222" y="1431" type="curve" smooth="yes"/>
			<point x="203" y="1410"/>
			<point x="192" y="1394"/>
			<point x="192" y="1380" type="curve" smooth="yes"/>
			<point x="192" y="1363"/>
			<point x="208" y="1345"/>
			<point x="231" y="1345" type="curve" smooth="yes"/>
			<point x="244" y="1345"/>
			<point x="250" y="1351"/>
			<point x="270" y="1371" type="curve" smooth="yes"/>
			<point x="368" y="1469"/>
			<point x="490" y="1534"/>
			<point x="612" y="1534" type="curve" smooth="yes"/>
			<point x="792" y="1534"/>
			<point x="913" y="1411"/>
			<point x="913" y="1202" type="curve" smooth="yes"/>
			<point x="913" y="977"/>
			<point x="746" y="693"/>
			<point x="146" y="127" type="curve" smooth="yes"/>
			<point x="104" y="88"/>
			<point x="100" y="72"/>
			<point x="100" y="51" type="curve" smooth="yes"/>
			<point x="100" y="18"/>
			<point x="123" y="0"/>
		</contour>
	</outline>
</glyph>
<glyph name="three" format="2">
	<unicode hex="0033"/>
	<advance width="1115"/>
	<outline>
		<contour>
			<point x="498" y="-12" type="curve" smooth="yes"/>
			<point x="770" y="-12"/>
			<point x="965" y="176"/>
			<point x="965" y="417" type="curve" smooth="yes"/>
			<point x="965" y="630"/>
			<point x="833" y="795"/>
			<point x="620" y="866" type="curve"/>
			<point x="613" y="844" type="line"/>
			<point x="825" y="918"/>
			<point x="955" y="1067"/>
			<point x="955" y="1266" type="curve" smooth="yes"/>
			<point x="955" y="1471"/>
			<point x="794" y="1612"/>
			<point x="580" y="1612" type="curve" smooth="yes"/>
			<point x="430" y="1612"/>
			<point x="310" y="1561"/>
			<point x="206" y="1485" type="curve" smooth="yes"/>
			<point x="180" y="1466"/>
			<point x="175" y="1453"/>
			<point x="175" y="1443" type="curve" smooth="yes"/>
			<point x="175" y="1423"/>
			<point x="192" y="1408"/>
			<point x="210" y="1408" type="curve" smooth="yes"/>
			<point x="221" y="1408"/>
			<point x="230" y="1413"/>
			<point x="256" y="1430" type="curve" smooth="yes"/>
			<point x="344" y="1488"/>
			<point x="455" y="1534"/>
			<point x="567" y="1534" type="curve" smooth="yes"/>
			<point x="742" y="1534"/>
			<point x="874" y="1430"/>
			<point x="874" y="1253" type="curve" smooth="yes"/>
			<point x="874" y="1091"/>
			<point x="762" y="962"/>
			<point x="544" y="883" type="curve"/>
			<point x="512" y="889"/>
			<point x="473" y="896"/>
			<point x="441" y="896" type="curve" smooth="yes"/>
			<point x="409" y="896"/>
			<point x="388" y="877"/>
			<point x="388" y="851" type="curve" smooth="yes"/>
			<point x="388" y="818"/>
			<point x="406" y="797"/>
			<point x="435" y="797" type="curve" smooth="yes"/>
			<point x="462" y="797"/>
			<point x="499" y="803"/>
			<point x="536" y="813" type="curve"/>
			<point x="747" y="759"/>
			<point x="882" y="605"/>
			<point x="882" y="422" type="curve" smooth="yes"/>
			<point x="882" y="218"/>
			<point x="718" y="66"/>
			<point x="509" y="66" type="curve" smooth="yes"/>
			<point x="350" y="66"/>
			<point x="234" y="105"/>
			<point x="122" y="181" type="curve" smooth="yes"/>
			<point x="111" y="189"/>
			<point x="101" y="191"/>
			<point x="94" y="191" type="curve" smooth="yes"/>
			<point x="76" y="191"/>
			<point x="59" y="170"/>
			<point x="59" y="150" type="curve" smooth="yes"/>
			<point x="59" y="138"/>
			<point x="76" y="120"/>
			<point x="103" y="101" type="curve" smooth="yes"/>
			<point x="196" y="35"/>
			<point x="338" y="-12"/>
		</contour>
	</outline>
</glyph>
<glyph name="four" format="2">
	<unicode hex="0034"/>
	<advance width="1170"/>
	<outline>
		<contour>
			<point x="170" y="509" type="curve" smooth="yes"/>
			<point x="309" y="509"/>
			<point x="503" y="510"/>
			<point x="676" y="512" type="curve"/>
			<point x="665" y="364"/>
			<point x="654" y="215"/>
			<point x="646" y="81" type="curve" smooth="yes"/>
			<point x="645" y="59"/>
			<point x="644" y="37"/>
			<point x="644" y="25" type="curve" smooth="yes"/>
			<point x="644" y="-3"/>
			<point x="661" y="-12"/>
			<point x="681" y="-12" type="curve" smooth="yes"/>
			<point x="704" y="-12"/>
			<point x="718" y="-3"/>
			<point x="720" y="31" type="curve" smooth="yes"/>
			<point x="730" y="188"/>
			<point x="741" y="356"/>
			<point x="752" y="513" type="curve"/>
			<point x="1069" y="518" type="line" smooth="yes"/>
			<point x="1100" y="518"/>
			<point x="1110" y="532"/>
			<point x="1110" y="554" type="curve" smooth="yes"/>
			<point x="1110" y="580"/>
			<point x="1095" y="593"/>
			<point x="1063" y="593" type="curve" smooth="yes"/>
			<point x="1001" y="593"/>
			<point x="844" y="589"/>
			<point x="757" y="586" type="curve"/>
			<point x="783" y="892" type="line" smooth="yes"/>
			<point x="785" y="916"/>
			<point x="786" y="934"/>
			<point x="786" y="950" type="curve" smooth="yes"/>
			<point x="786" y="970"/>
			<point x="763" y="974"/>
			<point x="746" y="974" type="curve" smooth="yes"/>
			<point x="722" y="974"/>
			<point x="715" y="961"/>
			<point x="710" y="912" type="curve" smooth="yes"/>
			<point x="701" y="823"/>
			<point x="691" y="708"/>
			<point x="682" y="584" type="curve"/>
			<point x="519" y="581"/>
			<point x="335" y="578"/>
			<point x="191" y="578" type="curve"/>
			<point x="326" y="892"/>
			<point x="454" y="1235"/>
			<point x="560" y="1552" type="curve" smooth="yes"/>
			<point x="565" y="1567"/>
			<point x="567" y="1577"/>
			<point x="567" y="1582" type="curve" smooth="yes"/>
			<point x="567" y="1607"/>
			<point x="548" y="1620"/>
			<point x="522" y="1620" type="curve" smooth="yes"/>
			<point x="508" y="1620"/>
			<point x="496" y="1611"/>
			<point x="485" y="1578" type="curve" smooth="yes"/>
			<point x="372" y="1244"/>
			<point x="246" y="896"/>
			<point x="127" y="618" type="curve" smooth="yes"/>
			<point x="115" y="589"/>
			<point x="110" y="569"/>
			<point x="110" y="556" type="curve" smooth="yes"/>
			<point x="110" y="527"/>
			<point x="132" y="509"/>
		</contour>
	</outline>
</glyph>
<glyph name="five" format="2">
	<unicode hex="0035"/>
	<advance width="1117"/>
	<outline>
		<contour>
			<point x="495" y="-12" type="curve" smooth="yes"/>
			<point x="784" y="-12"/>
			<point x="992" y="223"/>
			<point x="992" y="518" type="curve" smooth="yes"/>
			<point x="992" y="803"/>
			<point x="790" y="984"/>
			<point x="541" y="984" type="curve" smooth="yes"/>
			<point x="452" y="984"/>
			<point x="352" y="967"/>
			<point x="261" y="942" type="curve"/>
			<point x="291" y="924" type="line"/>
			<point x="331" y="1522" type="line"/>
			<point x="946" y="1522" type="line" smooth="yes"/>
			<point x="981" y="1522"/>
			<point x="997" y="1533"/>
			<point x="997" y="1564" type="curve" smooth="yes"/>
			<point x="997" y="1590"/>
			<point x="981" y="1600"/>
			<point x="949" y="1600" type="curve" smooth="yes"/>
			<point x="304" y="1600" type="line" smooth="yes"/>
			<point x="271" y="1600"/>
			<point x="258" y="1592"/>
			<point x="256" y="1556" type="curve" smooth="yes"/>
			<point x="217" y="955" type="line" smooth="yes"/>
			<point x="216" y="940"/>
			<point x="216" y="932"/>
			<point x="216" y="920" type="curve" smooth="yes"/>
			<point x="216" y="893"/>
			<point x="237" y="874"/>
			<point x="264" y="874" type="curve" smooth="yes"/>
			<point x="276" y="874"/>
			<point x="296" y="878"/>
			<point x="324" y="884" type="curve" smooth="yes"/>
			<point x="370" y="894"/>
			<point x="440" y="909"/>
			<point x="522" y="909" type="curve" smooth="yes"/>
			<point x="741" y="909"/>
			<point x="908" y="762"/>
			<point x="908" y="512" type="curve" smooth="yes"/>
			<point x="908" y="262"/>
			<point x="737" y="66"/>
			<point x="503" y="66" type="curve" smooth="yes"/>
			<point x="376" y="66"/>
			<point x="263" y="97"/>
			<point x="163" y="161" type="curve" smooth="yes"/>
			<point x="142" y="175"/>
			<point x="132" y="178"/>
			<point x="125" y="178" type="curve" smooth="yes"/>
			<point x="110" y="178"/>
			<point x="90" y="159"/>
			<point x="90" y="138" type="curve" smooth="yes"/>
			<point x="90" y="129"/>
			<point x="95" y="117"/>
			<point x="117" y="102" type="curve" smooth="yes"/>
			<point x="215" y="34"/>
			<point x="361" y="-12"/>
		</contour>
	</outline>
</glyph>
<glyph name="six" format="2">
	<advance width="1143"/>
	<unicode hex="0036"/>
	<outline>
		<contour>
			<point x="551" y="-7" type="curve" smooth="yes"/>
			<point x="804" y="-7"/>
			<point x="1008" y="249"/>
			<point x="1008" y="566" type="curve" smooth="yes"/>
			<point x="1008" y="819"/>
			<point x="867" y="978"/>
			<point x="659" y="978" type="curve" smooth="yes"/>
			<point x="476" y="978"/>
			<point x="302" y="845"/>
			<point x="169" y="646" type="curve"/>
			<point x="212" y="605" type="line"/>
			<point x="333" y="781"/>
			<point x="505" y="900"/>
			<point x="649" y="900" type="curve" smooth="yes"/>
			<point x="827" y="900"/>
			<point x="925" y="766"/>
			<point x="925" y="555" type="curve" smooth="yes"/>
			<point x="925" y="256"/>
			<point x="738" y="71"/>
			<point x="561" y="71" type="curve" smooth="yes"/>
			<point x="360" y="71"/>
			<point x="225" y="248"/>
			<point x="225" y="637" type="curve" smooth="yes"/>
			<point x="225" y="1173"/>
			<point x="436" y="1547"/>
			<point x="741" y="1547" type="curve" smooth="yes"/>
			<point x="804" y="1547"/>
			<point x="865" y="1529"/>
			<point x="925" y="1503" type="curve" smooth="yes"/>
			<point x="939" y="1497"/>
			<point x="947" y="1494"/>
			<point x="955" y="1494" type="curve" smooth="yes"/>
			<point x="969" y="1494"/>
			<point x="985" y="1515"/>
			<point x="985" y="1530" type="curve" smooth="yes"/>
			<point x="985" y="1548"/>
			<point x="967" y="1564"/>
			<point x="929" y="1582" type="curve" smooth="yes"/>
			<point x="874" y="1608"/>
			<point x="806" y="1625"/>
			<point x="739" y="1625" type="curve" smooth="yes"/>
			<point x="387" y="1625"/>
			<point x="140" y="1219"/>
			<point x="140" y="638" type="curve" smooth="yes"/>
			<point x="140" y="209"/>
			<point x="306" y="-7"/>
		</contour>
	</outline>
</glyph>
<glyph name="seven" format="2">
	<advance width="1075"/>
	<unicode hex="0037"/>
	<outline>
		<contour>
			<point x="275" y="-12" type="curve" smooth="yes"/>
			<point x="298" y="-12"/>
			<point x="308" y="-3"/>
			<point x="318" y="26" type="curve" smooth="yes"/>
			<point x="418" y="312"/>
			<point x="526" y="565"/>
			<point x="634" y="786" type="curve"/>
			<point x="825" y="786" type="line" smooth="yes"/>
			<point x="851" y="786"/>
			<point x="875" y="798"/>
			<point x="875" y="827" type="curve" smooth="yes"/>
			<point x="875" y="850"/>
			<point x="856" y="859"/>
			<point x="830" y="859" type="curve" smooth="yes"/>
			<point x="670" y="859" type="line"/>
			<point x="785" y="1088"/>
			<point x="899" y="1282"/>
			<point x="1002" y="1441" type="curve" smooth="yes"/>
			<point x="1049" y="1514"/>
			<point x="1050" y="1528"/>
			<point x="1050" y="1547" type="curve" smooth="yes"/>
			<point x="1050" y="1576"/>
			<point x="1031" y="1600"/>
			<point x="988" y="1600" type="curve" smooth="yes"/>
			<point x="175" y="1600" type="line" smooth="yes"/>
			<point x="138" y="1600"/>
			<point x="120" y="1583"/>
			<point x="120" y="1561" type="curve" smooth="yes"/>
			<point x="120" y="1534"/>
			<point x="144" y="1522"/>
			<point x="178" y="1522" type="curve" smooth="yes"/>
			<point x="969" y="1522" type="line"/>
			<point x="836" y="1322"/>
			<point x="708" y="1104"/>
			<point x="585" y="859" type="curve"/>
			<point x="281" y="859" type="line" smooth="yes"/>
			<point x="255" y="859"/>
			<point x="232" y="852"/>
			<point x="232" y="823" type="curve" smooth="yes"/>
			<point x="232" y="800"/>
			<point x="250" y="786"/>
			<point x="276" y="786" type="curve" smooth="yes"/>
			<point x="548" y="786" type="line"/>
			<point x="444" y="572"/>
			<point x="343" y="339"/>
			<point x="248" y="82" type="curve" smooth="yes"/>
			<point x="238" y="54"/>
			<point x="233" y="35"/>
			<point x="233" y="23" type="curve" smooth="yes"/>
			<point x="233" y="1"/>
			<point x="254" y="-12"/>
		</contour>
	</outline>
</glyph>
<glyph name="eight" format="2">
	<unicode hex="0038"/>
	<advance width="1176"/>
	<outline>
		<contour>
			<point x="564" y="-12" type="curve" smooth="yes"/>
			<point x="814" y="-12"/>
			<point x="1036" y="148"/>
			<point x="1036" y="381" type="curve" smooth="yes"/>
			<point x="1036" y="568"/>
			<point x="945" y="703"/>
			<point x="676" y="861" type="curve"/>
			<point x="934" y="985"/>
			<point x="1026" y="1131"/>
			<point x="1026" y="1288" type="curve" smooth="yes"/>
			<point x="1026" y="1489"/>
			<point x="860" y="1625"/>
			<point x="649" y="1625" type="curve" smooth="yes"/>
			<point x="402" y="1625"/>
			<point x="237" y="1451"/>
			<point x="237" y="1250" type="curve" smooth="yes"/>
			<point x="237" y="1095"/>
			<point x="311" y="979"/>
			<point x="517" y="859" type="curve"/>
			<point x="231" y="718"/>
			<point x="140" y="544"/>
			<point x="140" y="378" type="curve" smooth="yes"/>
			<point x="140" y="146"/>
			<point x="313" y="-12"/>
		</contour>
		<contour>
			<point x="216" y="384" type="curve" smooth="yes"/>
			<point x="216" y="546"/>
			<point x="322" y="689"/>
			<point x="588" y="820" type="curve"/>
			<point x="876" y="659"/>
			<point x="956" y="538"/>
			<point x="956" y="383" type="curve" smooth="yes"/>
			<point x="956" y="196"/>
			<point x="786" y="66"/>
			<point x="569" y="66" type="curve" smooth="yes"/>
			<point x="352" y="66"/>
			<point x="216" y="196"/>
		</contour>
		<contour>
			<point x="317" y="1256" type="curve" smooth="yes"/>
			<point x="317" y="1434"/>
			<point x="470" y="1547"/>
			<point x="641" y="1547" type="curve" smooth="yes"/>
			<point x="816" y="1547"/>
			<point x="953" y="1437"/>
			<point x="953" y="1276" type="curve" smooth="yes"/>
			<point x="953" y="1140"/>
			<point x="855" y="1012"/>
			<point x="608" y="900" type="curve"/>
			<point x="376" y="1032"/>
			<point x="317" y="1120"/>
		</contour>
	</outline>
</glyph>
<glyph name="nine" format="2">
	<unicode hex="0039"/>
	<advance width="1138"/>
	<outline>
		<contour>
			<point x="428" y="-12" type="curve" smooth="yes"/>
			<point x="746" y="-12"/>
			<point x="998" y="290"/>
			<point x="998" y="930" type="curve" smooth="yes"/>
			<point x="998" y="1379"/>
			<point x="858" y="1620"/>
			<point x="574" y="1620" type="curve" smooth="yes"/>
			<point x="323" y="1620"/>
			<point x="130" y="1392"/>
			<point x="130" y="1095" type="curve" smooth="yes"/>
			<point x="130" y="822"/>
			<point x="279" y="639"/>
			<point x="524" y="639" type="curve" smooth="yes"/>
			<point x="673" y="639"/>
			<point x="813" y="715"/>
			<point x="911" y="839" type="curve"/>
			<point x="893" y="312"/>
			<point x="684" y="66"/>
			<point x="414" y="66" type="curve" smooth="yes"/>
			<point x="324" y="66"/>
			<point x="254" y="87"/>
			<point x="194" y="116" type="curve" smooth="yes"/>
			<point x="180" y="123"/>
			<point x="170" y="125"/>
			<point x="164" y="125" type="curve" smooth="yes"/>
			<point x="149" y="125"/>
			<point x="131" y="99"/>
			<point x="131" y="84" type="curve" smooth="yes"/>
			<point x="131" y="70"/>
			<point x="145" y="52"/>
			<point x="187" y="32" type="curve" smooth="yes"/>
			<point x="246" y="4"/>
			<point x="324" y="-12"/>
		</contour>
		<contour>
			<point x="213" y="1099" type="curve" smooth="yes"/>
			<point x="213" y="1353"/>
			<point x="378" y="1542"/>
			<point x="565" y="1542" type="curve" smooth="yes"/>
			<point x="793" y="1542"/>
			<point x="903" y="1347"/>
			<point x="912" y="953" type="curve"/>
			<point x="823" y="804"/>
			<point x="684" y="715"/>
			<point x="531" y="715" type="curve" smooth="yes"/>
			<point x="320" y="715"/>
			<point x="213" y="867"/>
		</contour>
	</outline>
</glyph>
<glyph name="less" format="2">
	<advance width="1200"/>
	<unicode hex="003C"/>
	<outline>
		<contour>
			<point x="922" y="318" type="curve" smooth="yes"/>
			<point x="942" y="318"/>
			<point x="956" y="335"/>
			<point x="956" y="356" type="curve" smooth="yes"/>
			<point x="956" y="374"/>
			<point x="941" y="388"/>
			<point x="911" y="406" type="curve" smooth="yes"/>
			<point x="317" y="775" type="line" smooth="yes"/>
			<point x="303" y="784"/>
			<point x="300" y="788"/>
			<point x="300" y="793" type="curve" smooth="yes"/>
			<point x="300" y="797"/>
			<point x="304" y="801"/>
			<point x="321" y="810" type="curve" smooth="yes"/>
			<point x="970" y="1161" type="line" smooth="yes"/>
			<point x="1000" y="1177"/>
			<point x="1010" y="1189"/>
			<point x="1010" y="1206" type="curve" smooth="yes"/>
			<point x="1010" y="1229"/>
			<point x="991" y="1245"/>
			<point x="973" y="1245" type="curve" smooth="yes"/>
			<point x="961" y="1245"/>
			<point x="951" y="1240"/>
			<point x="935" y="1231" type="curve" smooth="yes"/>
			<point x="299" y="881" type="line" smooth="yes"/>
			<point x="237" y="847"/>
			<point x="224" y="820"/>
			<point x="224" y="792" type="curve" smooth="yes"/>
			<point x="224" y="761"/>
			<point x="239" y="740"/>
			<point x="291" y="707" type="curve" smooth="yes"/>
			<point x="870" y="340" type="line" smooth="yes"/>
			<point x="900" y="321"/>
			<point x="909" y="318"/>
		</contour>
	</outline>
</glyph>
<glyph name="equal" format="2">
	<advance width="1158"/>
	<unicode hex="003D"/>
	<outline>
		<contour>
			<point x="196" y="973" type="curve" smooth="yes"/>
			<point x="958" y="973" type="line" smooth="yes"/>
			<point x="997" y="973"/>
			<point x="1009" y="992"/>
			<point x="1009" y="1016" type="curve" smooth="yes"/>
			<point x="1009" y="1039"/>
			<point x="992" y="1048"/>
			<point x="965" y="1048" type="curve" smooth="yes"/>
			<point x="202" y="1048" type="line" smooth="yes"/>
			<point x="167" y="1048"/>
			<point x="153" y="1031"/>
			<point x="153" y="1009" type="curve" smooth="yes"/>
			<point x="153" y="985"/>
			<point x="168" y="973"/>
		</contour>
		<contour>
			<point x="174" y="588" type="curve" smooth="yes"/>
			<point x="936" y="588" type="line" smooth="yes"/>
			<point x="975" y="588"/>
			<point x="987" y="607"/>
			<point x="987" y="631" type="curve" smooth="yes"/>
			<point x="987" y="654"/>
			<point x="970" y="663"/>
			<point x="943" y="663" type="curve" smooth="yes"/>
			<point x="180" y="663" type="line" smooth="yes"/>
			<point x="145" y="663"/>
			<point x="131" y="646"/>
			<point x="131" y="624" type="curve" smooth="yes"/>
			<point x="131" y="600"/>
			<point x="146" y="588"/>
		</contour>
	</outline>
</glyph>
<glyph name="greater" format="2">
	<advance width="1200"/>
	<unicode hex="003E"/>
	<outline>
		<contour>
			<point x="227" y="321" type="curve" smooth="yes"/>
			<point x="239" y="321"/>
			<point x="249" y="326"/>
			<point x="265" y="335" type="curve" smooth="yes"/>
			<point x="901" y="685" type="line" smooth="yes"/>
			<point x="963" y="719"/>
			<point x="976" y="746"/>
			<point x="976" y="774" type="curve" smooth="yes"/>
			<point x="976" y="805"/>
			<point x="961" y="826"/>
			<point x="909" y="859" type="curve" smooth="yes"/>
			<point x="330" y="1226" type="line" smooth="yes"/>
			<point x="300" y="1245"/>
			<point x="291" y="1248"/>
			<point x="278" y="1248" type="curve" smooth="yes"/>
			<point x="258" y="1248"/>
			<point x="244" y="1231"/>
			<point x="244" y="1210" type="curve" smooth="yes"/>
			<point x="244" y="1192"/>
			<point x="259" y="1178"/>
			<point x="289" y="1160" type="curve" smooth="yes"/>
			<point x="883" y="791" type="line" smooth="yes"/>
			<point x="897" y="782"/>
			<point x="900" y="778"/>
			<point x="900" y="773" type="curve" smooth="yes"/>
			<point x="900" y="769"/>
			<point x="896" y="765"/>
			<point x="879" y="756" type="curve" smooth="yes"/>
			<point x="230" y="405" type="line" smooth="yes"/>
			<point x="200" y="389"/>
			<point x="190" y="377"/>
			<point x="190" y="360" type="curve" smooth="yes"/>
			<point x="190" y="337"/>
			<point x="209" y="321"/>
		</contour>
	</outline>
</glyph>
<glyph name="question" format="2">
	<unicode hex="003F"/>
	<advance width="973"/>
	<outline>
		<contour>
			<point x="465" y="399" type="curve" smooth="yes"/>
			<point x="564" y="399"/>
			<point x="648" y="440"/>
			<point x="697" y="499" type="curve" smooth="yes"/>
			<point x="713" y="518"/>
			<point x="716" y="532"/>
			<point x="716" y="542" type="curve" smooth="yes"/>
			<point x="716" y="557"/>
			<point x="703" y="567"/>
			<point x="689" y="567" type="curve" smooth="yes"/>
			<point x="677" y="567"/>
			<point x="668" y="561"/>
			<point x="651" y="546" type="curve" smooth="yes"/>
			<point x="612" y="511"/>
			<point x="560" y="473"/>
			<point x="479" y="473" type="curve" smooth="yes"/>
			<point x="375" y="473"/>
			<point x="327" y="526"/>
			<point x="327" y="618" type="curve" smooth="yes"/>
			<point x="327" y="755"/>
			<point x="441" y="844"/>
			<point x="564" y="945" type="curve" smooth="yes"/>
			<point x="700" y="1056"/>
			<point x="844" y="1178"/>
			<point x="844" y="1360" type="curve" smooth="yes"/>
			<point x="844" y="1526"/>
			<point x="724" y="1621"/>
			<point x="567" y="1621" type="curve" smooth="yes"/>
			<point x="452" y="1621"/>
			<point x="331" y="1580"/>
			<point x="224" y="1490" type="curve" smooth="yes"/>
			<point x="188" y="1460"/>
			<point x="179" y="1445"/>
			<point x="179" y="1431" type="curve" smooth="yes"/>
			<point x="179" y="1412"/>
			<point x="194" y="1397"/>
			<point x="213" y="1397" type="curve" smooth="yes"/>
			<point x="225" y="1397"/>
			<point x="233" y="1403"/>
			<point x="256" y="1422" type="curve" smooth="yes"/>
			<point x="363" y="1509"/>
			<point x="458" y="1543"/>
			<point x="554" y="1543" type="curve" smooth="yes"/>
			<point x="675" y="1543"/>
			<point x="764" y="1468"/>
			<point x="764" y="1350" type="curve" smooth="yes"/>
			<point x="764" y="1215"/>
			<point x="652" y="1122"/>
			<point x="524" y="1016" type="curve" smooth="yes"/>
			<point x="388" y="904"/>
			<point x="247" y="787"/>
			<point x="247" y="613" type="curve" smooth="yes"/>
			<point x="247" y="482"/>
			<point x="330" y="399"/>
		</contour>
		<contour>
			<point x="418" y="-12" type="curve" smooth="yes"/>
			<point x="469" y="-12"/>
			<point x="517" y="35"/>
			<point x="517" y="91" type="curve" smooth="yes"/>
			<point x="517" y="140"/>
			<point x="481" y="177"/>
			<point x="432" y="177" type="curve" smooth="yes"/>
			<point x="380" y="177"/>
			<point x="338" y="134"/>
			<point x="338" y="76" type="curve" smooth="yes"/>
			<point x="338" y="23"/>
			<point x="374" y="-12"/>
		</contour>
	</outline>
</glyph>
<glyph name="at" format="2">
	<unicode hex="0040"/>
	<advance width="2241"/>
	<outline>
		<contour>
			<point x="1074" y="-510" type="curve" smooth="yes"/>
			<point x="1260" y="-510"/>
			<point x="1434" y="-477"/>
			<point x="1541" y="-439" type="curve" smooth="yes"/>
			<point x="1599" y="-418"/>
			<point x="1626" y="-399"/>
			<point x="1626" y="-379" type="curve" smooth="yes"/>
			<point x="1626" y="-367"/>
			<point x="1616" y="-347"/>
			<point x="1595" y="-347" type="curve" smooth="yes"/>
			<point x="1585" y="-347"/>
			<point x="1563" y="-353"/>
			<point x="1517" y="-368" type="curve" smooth="yes"/>
			<point x="1402" y="-405"/>
			<point x="1244" y="-430"/>
			<point x="1088" y="-430" type="curve" smooth="yes"/>
			<point x="576" y="-430"/>
			<point x="235" y="-166"/>
			<point x="235" y="331" type="curve" smooth="yes"/>
			<point x="235" y="879"/>
			<point x="646" y="1370"/>
			<point x="1255" y="1370" type="curve" smooth="yes"/>
			<point x="1712" y="1370"/>
			<point x="2006" y="1116"/>
			<point x="2006" y="705" type="curve" smooth="yes"/>
			<point x="2006" y="347"/>
			<point x="1767" y="66"/>
			<point x="1414" y="66" type="curve" smooth="yes"/>
			<point x="1333" y="66"/>
			<point x="1313" y="95"/>
			<point x="1313" y="144" type="curve" smooth="yes"/>
			<point x="1313" y="176"/>
			<point x="1321" y="233"/>
			<point x="1369" y="402" type="curve" smooth="yes"/>
			<point x="1491" y="831" type="line" smooth="yes"/>
			<point x="1499" y="859"/>
			<point x="1506" y="889"/>
			<point x="1506" y="903" type="curve" smooth="yes"/>
			<point x="1506" y="928"/>
			<point x="1485" y="935"/>
			<point x="1469" y="935" type="curve" smooth="yes"/>
			<point x="1444" y="935"/>
			<point x="1429" y="919"/>
			<point x="1422" y="891" type="curve" smooth="yes"/>
			<point x="1415" y="864" type="line"/>
			<point x="1310" y="911"/>
			<point x="1221" y="935"/>
			<point x="1161" y="935" type="curve" smooth="yes"/>
			<point x="935" y="935"/>
			<point x="713" y="618"/>
			<point x="713" y="253" type="curve" smooth="yes"/>
			<point x="713" y="73"/>
			<point x="769" y="-12"/>
			<point x="863" y="-12" type="curve" smooth="yes"/>
			<point x="1004" y="-12"/>
			<point x="1170" y="177"/>
			<point x="1292" y="398" type="curve"/>
			<point x="1245" y="243"/>
			<point x="1234" y="185"/>
			<point x="1234" y="138" type="curve" smooth="yes"/>
			<point x="1234" y="21"/>
			<point x="1308" y="-12"/>
			<point x="1406" y="-12" type="curve" smooth="yes"/>
			<point x="1798" y="-12"/>
			<point x="2091" y="314"/>
			<point x="2091" y="720" type="curve" smooth="yes"/>
			<point x="2091" y="1150"/>
			<point x="1762" y="1450"/>
			<point x="1261" y="1450" type="curve" smooth="yes"/>
			<point x="600" y="1450"/>
			<point x="150" y="928"/>
			<point x="150" y="327" type="curve" smooth="yes"/>
			<point x="150" y="-223"/>
			<point x="527" y="-510"/>
		</contour>
		<contour>
			<point x="880" y="66" type="curve" smooth="yes"/>
			<point x="827" y="66"/>
			<point x="793" y="116"/>
			<point x="793" y="251" type="curve" smooth="yes"/>
			<point x="793" y="559"/>
			<point x="972" y="857"/>
			<point x="1179" y="857" type="curve" smooth="yes"/>
			<point x="1234" y="857"/>
			<point x="1316" y="837"/>
			<point x="1398" y="800" type="curve"/>
			<point x="1392" y="778" type="line" smooth="yes"/>
			<point x="1283" y="380"/>
			<point x="1008" y="66"/>
		</contour>
	</outline>
</glyph>
<glyph name="A" format="2">
	<unicode hex="0041"/>
	<advance width="1271"/>
	<outline>
		<contour>
			<point x="95" y="-12" type="curve" smooth="yes"/>
			<point x="114" y="-12"/>
			<point x="126" y="5"/>
			<point x="136" y="31" type="curve" smooth="yes"/>
			<point x="700" y="1486" type="line"/>
			<point x="676" y="1509" type="line"/>
			<point x="1059" y="42" type="line" smooth="yes"/>
			<point x="1070" y="-2"/>
			<point x="1084" y="-12"/>
			<point x="1104" y="-12" type="curve" smooth="yes"/>
			<point x="1132" y="-12"/>
			<point x="1151" y="4"/>
			<point x="1151" y="34" type="curve" smooth="yes"/>
			<point x="1151" y="40"/>
			<point x="1150" y="48"/>
			<point x="1148" y="56" type="curve" smooth="yes"/>
			<point x="751" y="1552" type="line" smooth="yes"/>
			<point x="741" y="1590"/>
			<point x="729" y="1600"/>
			<point x="709" y="1600" type="curve" smooth="yes"/>
			<point x="691" y="1600" type="line" smooth="yes"/>
			<point x="673" y="1600"/>
			<point x="660" y="1589"/>
			<point x="646" y="1554" type="curve" smooth="yes"/>
			<point x="60" y="62" type="line" smooth="yes"/>
			<point x="56" y="52"/>
			<point x="50" y="36"/>
			<point x="50" y="22" type="curve" smooth="yes"/>
			<point x="50" y="0"/>
			<point x="70" y="-12"/>
		</contour>
		<contour>
			<point x="347" y="626" type="curve" smooth="yes"/>
			<point x="916" y="626" type="line" smooth="yes"/>
			<point x="942" y="626"/>
			<point x="961" y="635"/>
			<point x="961" y="672" type="curve" smooth="yes"/>
			<point x="961" y="694"/>
			<point x="947" y="704"/>
			<point x="921" y="704" type="curve" smooth="yes"/>
			<point x="362" y="704" type="line" smooth="yes"/>
			<point x="336" y="704"/>
			<point x="317" y="694"/>
			<point x="317" y="666" type="curve" smooth="yes"/>
			<point x="317" y="635"/>
			<point x="331" y="626"/>
		</contour>
	</outline>
	<anchor name="bottom" x="604" y="0"/>
	<anchor name="ogonek" x="1009" y="0"/>
	<anchor name="top" x="701" y="1600"/>
	<anchor name="topleft" x="303" y="1600"/>
</glyph>
<glyph name="B" format="2">
	<unicode hex="0042"/>
	<advance width="1174"/>
	<outline>
		<contour>
			<point x="386" y="-12" type="curve" smooth="yes"/>
			<point x="793" y="-12"/>
			<point x="1016" y="193"/>
			<point x="1016" y="469" type="curve" smooth="yes"/>
			<point x="1016" y="663"/>
			<point x="873" y="791"/>
			<point x="665" y="828" type="curve"/>
			<point x="666" y="814" type="line"/>
			<point x="867" y="856"/>
			<point x="1034" y="997"/>
			<point x="1034" y="1224" type="curve" smooth="yes"/>
			<point x="1034" y="1450"/>
			<point x="857" y="1600"/>
			<point x="551" y="1600" type="curve" smooth="yes"/>
			<point x="472" y="1600"/>
			<point x="357" y="1596"/>
			<point x="305" y="1593" type="curve" smooth="yes"/>
			<point x="262" y="1591"/>
			<point x="251" y="1578"/>
			<point x="248" y="1538" type="curve" smooth="yes"/>
			<point x="154" y="119" type="line" smooth="yes"/>
			<point x="150" y="60"/>
			<point x="150" y="48"/>
			<point x="150" y="38" type="curve" smooth="yes"/>
			<point x="150" y="1"/>
			<point x="187" y="-12"/>
		</contour>
		<contour>
			<point x="399" y="66" type="curve" smooth="yes"/>
			<point x="340" y="66"/>
			<point x="290" y="68"/>
			<point x="236" y="71" type="curve"/>
			<point x="332" y="1517" type="line"/>
			<point x="367" y="1519"/>
			<point x="474" y="1522"/>
			<point x="545" y="1522" type="curve" smooth="yes"/>
			<point x="806" y="1522"/>
			<point x="954" y="1403"/>
			<point x="954" y="1213" type="curve" smooth="yes"/>
			<point x="954" y="1019"/>
			<point x="781" y="859"/>
			<point x="470" y="859" type="curve" smooth="yes"/>
			<point x="255" y="859" type="line"/>
			<point x="250" y="781" type="line"/>
			<point x="463" y="781" type="line" smooth="yes"/>
			<point x="745" y="781"/>
			<point x="936" y="665"/>
			<point x="936" y="451" type="curve" smooth="yes"/>
			<point x="936" y="240"/>
			<point x="746" y="66"/>
		</contour>
	</outline>
</glyph>
<glyph name="C" format="2">
	<advance width="1225"/>
	<unicode hex="0043"/>
	<anchor x="708" y="0" name="bottom"/>
	<anchor x="812" y="1600" name="top"/>
	<outline>
		<contour>
			<point x="697" y="-12" type="curve" smooth="yes"/>
			<point x="857" y="-12"/>
			<point x="1011" y="47"/>
			<point x="1105" y="131" type="curve" smooth="yes"/>
			<point x="1137" y="160"/>
			<point x="1145" y="173"/>
			<point x="1145" y="188" type="curve" smooth="yes"/>
			<point x="1145" y="207"/>
			<point x="1126" y="222"/>
			<point x="1113" y="222" type="curve" smooth="yes"/>
			<point x="1099" y="222"/>
			<point x="1086" y="211"/>
			<point x="1068" y="195" type="curve" smooth="yes"/>
			<point x="975" y="114"/>
			<point x="840" y="68"/>
			<point x="711" y="68" type="curve" smooth="yes"/>
			<point x="419" y="68"/>
			<point x="255" y="261"/>
			<point x="255" y="683" type="curve" smooth="yes"/>
			<point x="255" y="1198"/>
			<point x="512" y="1545"/>
			<point x="835" y="1545" type="curve" smooth="yes"/>
			<point x="927" y="1545"/>
			<point x="1012" y="1516"/>
			<point x="1090" y="1450" type="curve" smooth="yes"/>
			<point x="1112" y="1431"/>
			<point x="1122" y="1428"/>
			<point x="1131" y="1428" type="curve" smooth="yes"/>
			<point x="1154" y="1428"/>
			<point x="1165" y="1446"/>
			<point x="1165" y="1462" type="curve" smooth="yes"/>
			<point x="1165" y="1477"/>
			<point x="1156" y="1498"/>
			<point x="1106" y="1536" type="curve" smooth="yes"/>
			<point x="1038" y="1587"/>
			<point x="949" y="1625"/>
			<point x="832" y="1625" type="curve" smooth="yes"/>
			<point x="459" y="1625"/>
			<point x="170" y="1254"/>
			<point x="170" y="678" type="curve" smooth="yes"/>
			<point x="170" y="218"/>
			<point x="367" y="-12"/>
		</contour>
	</outline>
</glyph>
<glyph name="D" format="2">
	<unicode hex="0044"/>
	<advance width="1353"/>
	<outline>
		<contour>
			<point x="336" y="-12" type="curve" smooth="yes"/>
			<point x="848" y="-12"/>
			<point x="1203" y="390"/>
			<point x="1203" y="948" type="curve" smooth="yes"/>
			<point x="1203" y="1375"/>
			<point x="931" y="1600"/>
			<point x="567" y="1600" type="curve" smooth="yes"/>
			<point x="424" y="1600"/>
			<point x="353" y="1596"/>
			<point x="304" y="1593" type="curve" smooth="yes"/>
			<point x="261" y="1590"/>
			<point x="250" y="1578"/>
			<point x="247" y="1538" type="curve" smooth="yes"/>
			<point x="154" y="119" type="line" smooth="yes"/>
			<point x="150" y="60"/>
			<point x="150" y="48"/>
			<point x="150" y="38" type="curve" smooth="yes"/>
			<point x="150" y="1"/>
			<point x="184" y="-12"/>
		</contour>
		<contour>
			<point x="355" y="66" type="curve" smooth="yes"/>
			<point x="328" y="66"/>
			<point x="283" y="68"/>
			<point x="236" y="71" type="curve"/>
			<point x="331" y="1517" type="line"/>
			<point x="363" y="1519"/>
			<point x="454" y="1522"/>
			<point x="559" y="1522" type="curve" smooth="yes"/>
			<point x="877" y="1522"/>
			<point x="1118" y="1334"/>
			<point x="1118" y="928" type="curve" smooth="yes"/>
			<point x="1118" y="448"/>
			<point x="797" y="66"/>
		</contour>
	</outline>
	<anchor name="bottom" x="330" y="0"/>
	<anchor name="center" x="245" y="829"/>
	<anchor name="top" x="593" y="1600"/>
</glyph>
<glyph name="E" format="2">
	<advance width="1071"/>
	<unicode hex="0045"/>
	<anchor x="521" y="0" name="bottom"/>
	<anchor x="796" y="0" name="ogonek"/>
	<anchor x="637" y="1600" name="top"/>
	<anchor x="307" y="1600" name="topleft"/>
	<outline>
		<contour>
			<point x="188" y="-12" type="curve" smooth="yes"/>
			<point x="323" y="-12"/>
			<point x="770" y="-9"/>
			<point x="887" y="-5" type="curve" smooth="yes"/>
			<point x="927" y="-4"/>
			<point x="940" y="11"/>
			<point x="940" y="38" type="curve" smooth="yes"/>
			<point x="940" y="58"/>
			<point x="926" y="73"/>
			<point x="897" y="73" type="curve" smooth="yes"/>
			<point x="842" y="73"/>
			<point x="324" y="68"/>
			<point x="236" y="65" type="curve"/>
			<point x="285" y="803" type="line"/>
			<point x="382" y="803"/>
			<point x="716" y="806"/>
			<point x="769" y="808" type="curve" smooth="yes"/>
			<point x="805" y="809"/>
			<point x="822" y="822"/>
			<point x="822" y="851" type="curve" smooth="yes"/>
			<point x="822" y="869"/>
			<point x="810" y="886"/>
			<point x="781" y="886" type="curve" smooth="yes"/>
			<point x="749" y="886"/>
			<point x="350" y="881"/>
			<point x="290" y="879" type="curve"/>
			<point x="332" y="1522" type="line"/>
			<point x="948" y="1522" type="line" smooth="yes"/>
			<point x="988" y="1522"/>
			<point x="1001" y="1538"/>
			<point x="1001" y="1565" type="curve" smooth="yes"/>
			<point x="1001" y="1585"/>
			<point x="987" y="1600"/>
			<point x="958" y="1600" type="curve" smooth="yes"/>
			<point x="291" y="1600" type="line" smooth="yes"/>
			<point x="265" y="1600"/>
			<point x="252" y="1586"/>
			<point x="250" y="1557" type="curve" smooth="yes"/>
			<point x="152" y="70" type="line" smooth="yes"/>
			<point x="151" y="56"/>
			<point x="150" y="42"/>
			<point x="150" y="31" type="curve" smooth="yes"/>
			<point x="150" y="0"/>
			<point x="165" y="-12"/>
		</contour>
	</outline>
</glyph>
<glyph name="F" format="2">
	<advance width="951"/>
	<unicode hex="0046"/>
	<outline>
		<contour>
			<point x="188" y="-12" type="curve" smooth="yes"/>
			<point x="217" y="-12"/>
			<point x="232" y="2"/>
			<point x="234" y="31" type="curve" smooth="yes"/>
			<point x="285" y="803" type="line"/>
			<point x="333" y="803"/>
			<point x="723" y="807"/>
			<point x="769" y="808" type="curve" smooth="yes"/>
			<point x="805" y="809"/>
			<point x="822" y="822"/>
			<point x="822" y="851" type="curve" smooth="yes"/>
			<point x="822" y="869"/>
			<point x="810" y="886"/>
			<point x="781" y="886" type="curve" smooth="yes"/>
			<point x="749" y="886"/>
			<point x="383" y="882"/>
			<point x="290" y="879" type="curve"/>
			<point x="332" y="1522" type="line"/>
			<point x="948" y="1522" type="line" smooth="yes"/>
			<point x="988" y="1522"/>
			<point x="1001" y="1538"/>
			<point x="1001" y="1565" type="curve" smooth="yes"/>
			<point x="1001" y="1585"/>
			<point x="987" y="1600"/>
			<point x="958" y="1600" type="curve" smooth="yes"/>
			<point x="291" y="1600" type="line" smooth="yes"/>
			<point x="265" y="1600"/>
			<point x="252" y="1586"/>
			<point x="250" y="1557" type="curve" smooth="yes"/>
			<point x="152" y="70" type="line" smooth="yes"/>
			<point x="151" y="56"/>
			<point x="150" y="42"/>
			<point x="150" y="31" type="curve" smooth="yes"/>
			<point x="150" y="0"/>
			<point x="165" y="-12"/>
		</contour>
	</outline>
</glyph>
<glyph name="G" format="2">
	<advance width="1417"/>
	<unicode hex="0047"/>
	<anchor x="637" y="-12" name="bottom"/>
	<anchor x="840" y="1600" name="top"/>
	<outline>
		<contour>
			<point x="637" y="-12" type="curve" smooth="yes"/>
			<point x="840" y="-12"/>
			<point x="1037" y="138"/>
			<point x="1123" y="408" type="curve"/>
			<point x="1099" y="73" type="line" smooth="yes"/>
			<point x="1097" y="51"/>
			<point x="1097" y="40"/>
			<point x="1097" y="24" type="curve" smooth="yes"/>
			<point x="1097" y="-5"/>
			<point x="1122" y="-12"/>
			<point x="1142" y="-12" type="curve" smooth="yes"/>
			<point x="1169" y="-12"/>
			<point x="1178" y="1"/>
			<point x="1180" y="29" type="curve" smooth="yes"/>
			<point x="1225" y="727" type="line" smooth="yes"/>
			<point x="1226" y="745"/>
			<point x="1227" y="764"/>
			<point x="1227" y="774" type="curve" smooth="yes"/>
			<point x="1227" y="801"/>
			<point x="1215" y="813"/>
			<point x="1183" y="813" type="curve" smooth="yes"/>
			<point x="797" y="813" type="line" smooth="yes"/>
			<point x="762" y="813"/>
			<point x="746" y="799"/>
			<point x="746" y="771" type="curve" smooth="yes"/>
			<point x="746" y="749"/>
			<point x="761" y="738"/>
			<point x="791" y="738" type="curve" smooth="yes"/>
			<point x="1146" y="738" type="line"/>
			<point x="1089" y="288"/>
			<point x="873" y="68"/>
			<point x="651" y="68" type="curve" smooth="yes"/>
			<point x="419" y="68"/>
			<point x="255" y="261"/>
			<point x="255" y="683" type="curve" smooth="yes"/>
			<point x="255" y="1198"/>
			<point x="512" y="1545"/>
			<point x="835" y="1545" type="curve" smooth="yes"/>
			<point x="934" y="1545"/>
			<point x="1032" y="1516"/>
			<point x="1110" y="1450" type="curve" smooth="yes"/>
			<point x="1132" y="1431"/>
			<point x="1142" y="1428"/>
			<point x="1151" y="1428" type="curve" smooth="yes"/>
			<point x="1174" y="1428"/>
			<point x="1185" y="1446"/>
			<point x="1185" y="1462" type="curve" smooth="yes"/>
			<point x="1185" y="1477"/>
			<point x="1176" y="1499"/>
			<point x="1126" y="1537" type="curve" smooth="yes"/>
			<point x="1058" y="1588"/>
			<point x="958" y="1625"/>
			<point x="832" y="1625" type="curve" smooth="yes"/>
			<point x="459" y="1625"/>
			<point x="170" y="1254"/>
			<point x="170" y="678" type="curve" smooth="yes"/>
			<point x="170" y="218"/>
			<point x="367" y="-12"/>
		</contour>
	</outline>
</glyph>
<glyph name="H" format="2">
	<unicode hex="0048"/>
	<advance width="1321"/>
	<outline>
		<contour>
			<point x="1025" y="-12" type="curve" smooth="yes"/>
			<point x="1054" y="-12"/>
			<point x="1069" y="2"/>
			<point x="1071" y="31" type="curve" smooth="yes"/>
			<point x="1169" y="1518" type="line" smooth="yes"/>
			<point x="1170" y="1532"/>
			<point x="1171" y="1546"/>
			<point x="1171" y="1557" type="curve" smooth="yes"/>
			<point x="1171" y="1588"/>
			<point x="1154" y="1600"/>
			<point x="1128" y="1600" type="curve" smooth="yes"/>
			<point x="1102" y="1600"/>
			<point x="1089" y="1586"/>
			<point x="1087" y="1557" type="curve" smooth="yes"/>
			<point x="1041" y="856" type="line"/>
			<point x="984" y="854"/>
			<point x="875" y="852"/>
			<point x="762" y="852" type="curve" smooth="yes"/>
			<point x="568" y="852"/>
			<point x="380" y="852"/>
			<point x="288" y="855" type="curve"/>
			<point x="332" y="1518" type="line" smooth="yes"/>
			<point x="333" y="1532"/>
			<point x="334" y="1546"/>
			<point x="334" y="1557" type="curve" smooth="yes"/>
			<point x="334" y="1588"/>
			<point x="317" y="1600"/>
			<point x="291" y="1600" type="curve" smooth="yes"/>
			<point x="265" y="1600"/>
			<point x="252" y="1586"/>
			<point x="250" y="1557" type="curve" smooth="yes"/>
			<point x="152" y="70" type="line" smooth="yes"/>
			<point x="151" y="56"/>
			<point x="150" y="42"/>
			<point x="150" y="31" type="curve" smooth="yes"/>
			<point x="150" y="0"/>
			<point x="165" y="-12"/>
			<point x="188" y="-12" type="curve" smooth="yes"/>
			<point x="217" y="-12"/>
			<point x="232" y="2"/>
			<point x="234" y="31" type="curve" smooth="yes"/>
			<point x="283" y="779" type="line"/>
			<point x="336" y="778"/>
			<point x="550" y="777"/>
			<point x="758" y="777" type="curve" smooth="yes"/>
			<point x="818" y="777"/>
			<point x="942" y="779"/>
			<point x="1036" y="783" type="curve"/>
			<point x="989" y="70" type="line" smooth="yes"/>
			<point x="988" y="56"/>
			<point x="987" y="42"/>
			<point x="987" y="31" type="curve" smooth="yes"/>
			<point x="987" y="0"/>
			<point x="1002" y="-12"/>
		</contour>
	</outline>
	<anchor name="bottom" x="603" y="0"/>
	<anchor name="center" x="682" y="1220"/>
	<anchor name="top" x="706" y="1600"/>
	<anchor name="topleft" x="197" y="1600"/>
	<note>
		u0048
	</note>
</glyph>
<glyph name="I" format="2">
	<advance width="584"/>
	<unicode hex="0049"/>
	<anchor x="241" y="0" name="bottom"/>
	<anchor x="207" y="0" name="ogonek"/>
	<anchor x="352" y="1600" name="top"/>
	<anchor x="269" y="1600" name="topleft"/>
	<outline>
		<contour>
			<point x="238" y="-12" type="curve" smooth="yes"/>
			<point x="267" y="-12"/>
			<point x="282" y="2"/>
			<point x="284" y="31" type="curve" smooth="yes"/>
			<point x="382" y="1518" type="line" smooth="yes"/>
			<point x="383" y="1532"/>
			<point x="384" y="1546"/>
			<point x="384" y="1557" type="curve" smooth="yes"/>
			<point x="384" y="1588"/>
			<point x="367" y="1600"/>
			<point x="341" y="1600" type="curve" smooth="yes"/>
			<point x="315" y="1600"/>
			<point x="302" y="1586"/>
			<point x="300" y="1557" type="curve" smooth="yes"/>
			<point x="202" y="70" type="line" smooth="yes"/>
			<point x="201" y="56"/>
			<point x="200" y="42"/>
			<point x="200" y="31" type="curve" smooth="yes"/>
			<point x="200" y="0"/>
			<point x="215" y="-12"/>
		</contour>
	</outline>
</glyph>
<glyph name="J" format="2">
	<advance width="896"/>
	<unicode hex="004A"/>
	<anchor x="652" y="717" name="center"/>
	<anchor x="695" y="1600" name="top"/>
	<outline>
		<contour>
			<point x="267" y="-504" type="curve" smooth="yes"/>
			<point x="487" y="-504"/>
			<point x="619" y="-379"/>
			<point x="642" y="-34" type="curve" smooth="yes"/>
			<point x="744" y="1518" type="line" smooth="yes"/>
			<point x="745" y="1532"/>
			<point x="746" y="1550"/>
			<point x="746" y="1557" type="curve" smooth="yes"/>
			<point x="746" y="1588"/>
			<point x="729" y="1600"/>
			<point x="703" y="1600" type="curve" smooth="yes"/>
			<point x="210" y="1600" type="line" smooth="yes"/>
			<point x="172" y="1600"/>
			<point x="155" y="1586"/>
			<point x="155" y="1560" type="curve" smooth="yes"/>
			<point x="155" y="1536"/>
			<point x="169" y="1522"/>
			<point x="204" y="1522" type="curve" smooth="yes"/>
			<point x="660" y="1522" type="line"/>
			<point x="560" y="0" type="line" smooth="yes"/>
			<point x="538" y="-332"/>
			<point x="443" y="-426"/>
			<point x="262" y="-426" type="curve" smooth="yes"/>
			<point x="166" y="-426"/>
			<point x="80" y="-391"/>
			<point x="-10" y="-308" type="curve" smooth="yes"/>
			<point x="-22" y="-296"/>
			<point x="-29" y="-292"/>
			<point x="-39" y="-292" type="curve" smooth="yes"/>
			<point x="-63" y="-292"/>
			<point x="-80" y="-310"/>
			<point x="-80" y="-334" type="curve" smooth="yes"/>
			<point x="-80" y="-342"/>
			<point x="-76" y="-356"/>
			<point x="-59" y="-372" type="curve" smooth="yes"/>
			<point x="26" y="-452"/>
			<point x="142" y="-504"/>
		</contour>
	</outline>
</glyph>
<glyph name="K" format="2">
	<unicode hex="004B"/>
	<advance width="1186"/>
	<outline>
		<contour>
			<point x="1028" y="-12" type="curve" smooth="yes"/>
			<point x="1053" y="-12"/>
			<point x="1073" y="11"/>
			<point x="1073" y="37" type="curve" smooth="yes"/>
			<point x="1073" y="49"/>
			<point x="1063" y="64"/>
			<point x="1042" y="90" type="curve" smooth="yes"/>
			<point x="436" y="822" type="line"/>
			<point x="1144" y="1509" type="line" smooth="yes"/>
			<point x="1169" y="1534"/>
			<point x="1176" y="1544"/>
			<point x="1176" y="1558" type="curve" smooth="yes"/>
			<point x="1176" y="1579"/>
			<point x="1160" y="1600"/>
			<point x="1138" y="1600" type="curve" smooth="yes"/>
			<point x="1126" y="1600"/>
			<point x="1118" y="1599"/>
			<point x="1096" y="1578" type="curve" smooth="yes"/>
			<point x="391" y="889" type="line" smooth="yes"/>
			<point x="365" y="863"/>
			<point x="355" y="844"/>
			<point x="355" y="821" type="curve" smooth="yes"/>
			<point x="355" y="797"/>
			<point x="365" y="777"/>
			<point x="391" y="745" type="curve" smooth="yes"/>
			<point x="977" y="26" type="line" smooth="yes"/>
			<point x="1001" y="-3"/>
			<point x="1013" y="-12"/>
		</contour>
		<contour>
			<point x="238" y="-12" type="curve" smooth="yes"/>
			<point x="267" y="-12"/>
			<point x="282" y="2"/>
			<point x="284" y="31" type="curve" smooth="yes"/>
			<point x="382" y="1518" type="line" smooth="yes"/>
			<point x="383" y="1532"/>
			<point x="384" y="1546"/>
			<point x="384" y="1557" type="curve" smooth="yes"/>
			<point x="384" y="1588"/>
			<point x="367" y="1600"/>
			<point x="341" y="1600" type="curve" smooth="yes"/>
			<point x="315" y="1600"/>
			<point x="302" y="1586"/>
			<point x="300" y="1557" type="curve" smooth="yes"/>
			<point x="202" y="70" type="line" smooth="yes"/>
			<point x="201" y="56"/>
			<point x="200" y="42"/>
			<point x="200" y="31" type="curve" smooth="yes"/>
			<point x="200" y="0"/>
			<point x="215" y="-12"/>
		</contour>
	</outline>
	<anchor name="bottom" x="490" y="0"/>
	<anchor name="ogonek" x="207" y="0"/>
	<anchor name="top" x="743" y="1600"/>
	<anchor name="topleft" x="269" y="1600"/>
</glyph>
<glyph name="L" format="2">
	<advance width="1020"/>
	<unicode hex="004C"/>
	<anchor x="531" y="-12" name="bottom"/>
	<anchor x="246" y="839" name="center"/>
	<anchor x="288" y="1600" name="top"/>
	<anchor x="432" y="1600" name="topright"/>
	<outline>
		<contour>
			<point x="205" y="-12" type="curve" smooth="yes"/>
			<point x="439" y="-12"/>
			<point x="673" y="-10"/>
			<point x="877" y="-3" type="curve" smooth="yes"/>
			<point x="937" y="-1"/>
			<point x="950" y="12"/>
			<point x="950" y="41" type="curve" smooth="yes"/>
			<point x="950" y="67"/>
			<point x="938" y="77"/>
			<point x="901" y="77" type="curve" smooth="yes"/>
			<point x="876" y="77"/>
			<point x="802" y="76"/>
			<point x="762" y="75" type="curve" smooth="yes"/>
			<point x="234" y="66" type="line"/>
			<point x="329" y="1518" type="line" smooth="yes"/>
			<point x="330" y="1532"/>
			<point x="331" y="1546"/>
			<point x="331" y="1557" type="curve" smooth="yes"/>
			<point x="331" y="1588"/>
			<point x="314" y="1600"/>
			<point x="288" y="1600" type="curve" smooth="yes"/>
			<point x="262" y="1600"/>
			<point x="249" y="1586"/>
			<point x="247" y="1557" type="curve" smooth="yes"/>
			<point x="152" y="100" type="line" smooth="yes"/>
			<point x="150" y="62"/>
			<point x="150" y="55"/>
			<point x="150" y="48" type="curve" smooth="yes"/>
			<point x="150" y="10"/>
			<point x="169" y="-12"/>
		</contour>
	</outline>
</glyph>
<glyph name="M" format="2">
	<unicode hex="004D"/>
	<advance width="1800"/>
	<outline>
		<contour>
			<point x="193" y="-12" type="curve" smooth="yes"/>
			<point x="219" y="-12"/>
			<point x="230" y="2"/>
			<point x="234" y="31" type="curve" smooth="yes"/>
			<point x="409" y="1440" type="line"/>
			<point x="796" y="93" type="line" smooth="yes"/>
			<point x="809" y="47"/>
			<point x="824" y="38"/>
			<point x="850" y="38" type="curve" smooth="yes"/>
			<point x="878" y="38"/>
			<point x="892" y="50"/>
			<point x="911" y="95" type="curve" smooth="yes"/>
			<point x="1471" y="1440" type="line"/>
			<point x="1487" y="31" type="line" smooth="yes"/>
			<point x="1487" y="2"/>
			<point x="1504" y="-12"/>
			<point x="1530" y="-12" type="curve" smooth="yes"/>
			<point x="1552" y="-12"/>
			<point x="1570" y="0"/>
			<point x="1570" y="31" type="curve" smooth="yes"/>
			<point x="1570" y="46"/>
			<point x="1569" y="111"/>
			<point x="1568" y="165" type="curve" smooth="yes"/>
			<point x="1544" y="1547" type="line" smooth="yes"/>
			<point x="1543" y="1578"/>
			<point x="1532" y="1600"/>
			<point x="1498" y="1600" type="curve" smooth="yes"/>
			<point x="1467" y="1600"/>
			<point x="1455" y="1593"/>
			<point x="1435" y="1546" type="curve" smooth="yes"/>
			<point x="860" y="162" type="line"/>
			<point x="461" y="1547" type="line" smooth="yes"/>
			<point x="448" y="1591"/>
			<point x="437" y="1600"/>
			<point x="402" y="1600" type="curve" smooth="yes"/>
			<point x="374" y="1600"/>
			<point x="354" y="1581"/>
			<point x="349" y="1544" type="curve" smooth="yes"/>
			<point x="157" y="70" type="line" smooth="yes"/>
			<point x="155" y="56"/>
			<point x="155" y="42"/>
			<point x="155" y="31" type="curve" smooth="yes"/>
			<point x="155" y="0"/>
			<point x="171" y="-12"/>
		</contour>
	</outline>
	<anchor name="bottom" x="672" y="0"/>
	<anchor name="top" x="937" y="1600"/>
</glyph>
<glyph name="N" format="2">
	<advance width="1355"/>
	<unicode hex="004E"/>
	<anchor x="610" y="0" name="bottom"/>
	<anchor x="756" y="1600" name="top"/>
	<outline>
		<contour>
			<point x="186" y="-12" type="curve" smooth="yes"/>
			<point x="212" y="-12"/>
			<point x="225" y="2"/>
			<point x="227" y="31" type="curve" smooth="yes"/>
			<point x="312" y="1317" type="line"/>
			<point x="315" y="1426" type="line"/>
			<point x="354" y="1336" type="line"/>
			<point x="1014" y="42" type="line" smooth="yes"/>
			<point x="1036" y="-1"/>
			<point x="1049" y="-12"/>
			<point x="1069" y="-12" type="curve" smooth="yes"/>
			<point x="1093" y="-12"/>
			<point x="1105" y="5"/>
			<point x="1107" y="34" type="curve" smooth="yes"/>
			<point x="1203" y="1518" type="line" smooth="yes"/>
			<point x="1204" y="1532"/>
			<point x="1205" y="1546"/>
			<point x="1205" y="1557" type="curve" smooth="yes"/>
			<point x="1205" y="1588"/>
			<point x="1190" y="1600"/>
			<point x="1167" y="1600" type="curve" smooth="yes"/>
			<point x="1143" y="1600"/>
			<point x="1130" y="1586"/>
			<point x="1128" y="1557" type="curve" smooth="yes"/>
			<point x="1044" y="286" type="line"/>
			<point x="1040" y="164" type="line"/>
			<point x="992" y="269" type="line"/>
			<point x="341" y="1542" type="line" smooth="yes"/>
			<point x="314" y="1595"/>
			<point x="304" y="1600"/>
			<point x="284" y="1600" type="curve" smooth="yes"/>
			<point x="262" y="1600"/>
			<point x="251" y="1586"/>
			<point x="249" y="1548" type="curve" smooth="yes"/>
			<point x="152" y="70" type="line" smooth="yes"/>
			<point x="151" y="56"/>
			<point x="150" y="42"/>
			<point x="150" y="31" type="curve" smooth="yes"/>
			<point x="150" y="0"/>
			<point x="164" y="-12"/>
		</contour>
	</outline>
</glyph>
<glyph name="O" format="2">
	<advance width="1432"/>
	<unicode hex="004F"/>
	<anchor x="656" y="-12" name="bottom"/>
	<anchor x="721" y="784" name="center"/>
	<anchor x="1076" y="10" name="ogonek"/>
	<anchor x="801" y="1600" name="top"/>
	<anchor x="287" y="1434" name="topleft"/>
	<anchor x="1488" y="1434" name="topright"/>
	<outline>
		<contour>
			<point x="656" y="-12" type="curve" smooth="yes"/>
			<point x="993" y="-12"/>
			<point x="1282" y="348"/>
			<point x="1282" y="898" type="curve" smooth="yes"/>
			<point x="1282" y="1388"/>
			<point x="1058" y="1615"/>
			<point x="793" y="1615" type="curve" smooth="yes"/>
			<point x="459" y="1615"/>
			<point x="170" y="1258"/>
			<point x="170" y="708" type="curve" smooth="yes"/>
			<point x="170" y="218"/>
			<point x="391" y="-12"/>
		</contour>
		<contour>
			<point x="662" y="68" type="curve" smooth="yes"/>
			<point x="442" y="68"/>
			<point x="255" y="249"/>
			<point x="255" y="713" type="curve" smooth="yes"/>
			<point x="255" y="1203"/>
			<point x="502" y="1535"/>
			<point x="790" y="1535" type="curve" smooth="yes"/>
			<point x="1010" y="1535"/>
			<point x="1197" y="1356"/>
			<point x="1197" y="892" type="curve" smooth="yes"/>
			<point x="1197" y="402"/>
			<point x="950" y="68"/>
		</contour>
	</outline>
</glyph>
<glyph name="P" format="2">
	<advance width="1140"/>
	<unicode hex="0050"/>
	<anchor x="558" y="1600" name="top"/>
	<outline>
		<contour>
			<point x="190" y="-12" type="curve" smooth="yes"/>
			<point x="220" y="-12"/>
			<point x="232" y="4"/>
			<point x="234" y="32" type="curve" smooth="yes"/>
			<point x="334" y="1517" type="line"/>
			<point x="369" y="1519"/>
			<point x="476" y="1522"/>
			<point x="547" y="1522" type="curve" smooth="yes"/>
			<point x="843" y="1522"/>
			<point x="1010" y="1388"/>
			<point x="1010" y="1172" type="curve" smooth="yes"/>
			<point x="1010" y="931"/>
			<point x="820" y="751"/>
			<point x="479" y="751" type="curve" smooth="yes"/>
			<point x="264" y="751" type="line"/>
			<point x="259" y="673" type="line"/>
			<point x="472" y="673" type="line" smooth="yes"/>
			<point x="855" y="673"/>
			<point x="1090" y="876"/>
			<point x="1090" y="1183" type="curve" smooth="yes"/>
			<point x="1090" y="1434"/>
			<point x="893" y="1600"/>
			<point x="553" y="1600" type="curve" smooth="yes"/>
			<point x="474" y="1600"/>
			<point x="360" y="1597"/>
			<point x="307" y="1593" type="curve" smooth="yes"/>
			<point x="264" y="1590"/>
			<point x="253" y="1578"/>
			<point x="250" y="1538" type="curve" smooth="yes"/>
			<point x="154" y="119" type="line" smooth="yes"/>
			<point x="150" y="60"/>
			<point x="150" y="48"/>
			<point x="150" y="38" type="curve" smooth="yes"/>
			<point x="150" y="10"/>
			<point x="150" y="-12"/>
		</contour>
	</outline>
</glyph>
<glyph name="R" format="2">
	<advance width="1148"/>
	<unicode hex="0052"/>
	<anchor x="500" y="0" name="bottom"/>
	<anchor x="621" y="1600" name="top"/>
	<outline>
		<contour>
			<point x="188" y="-12" type="curve" smooth="yes"/>
			<point x="221" y="-12"/>
			<point x="232" y="4"/>
			<point x="234" y="32" type="curve" smooth="yes"/>
			<point x="332" y="1517" type="line"/>
			<point x="361" y="1520"/>
			<point x="520" y="1522"/>
			<point x="522" y="1522" type="curve" smooth="yes"/>
			<point x="820" y="1522"/>
			<point x="958" y="1387"/>
			<point x="958" y="1175" type="curve" smooth="yes"/>
			<point x="958" y="953"/>
			<point x="790" y="811"/>
			<point x="511" y="811" type="curve" smooth="yes"/>
			<point x="264" y="811" type="line"/>
			<point x="259" y="733" type="line"/>
			<point x="504" y="733" type="line" smooth="yes"/>
			<point x="834" y="733"/>
			<point x="1038" y="909"/>
			<point x="1038" y="1186" type="curve" smooth="yes"/>
			<point x="1038" y="1441"/>
			<point x="870" y="1600"/>
			<point x="538" y="1600" type="curve" smooth="yes"/>
			<point x="487" y="1600"/>
			<point x="353" y="1596"/>
			<point x="305" y="1593" type="curve" smooth="yes"/>
			<point x="262" y="1590"/>
			<point x="251" y="1578"/>
			<point x="248" y="1538" type="curve" smooth="yes"/>
			<point x="154" y="119" type="line" smooth="yes"/>
			<point x="150" y="60"/>
			<point x="150" y="48"/>
			<point x="150" y="38" type="curve" smooth="yes"/>
			<point x="150" y="10"/>
			<point x="150" y="-12"/>
		</contour>
		<contour>
			<point x="946" y="-12" type="curve" smooth="yes"/>
			<point x="971" y="-12"/>
			<point x="993" y="12"/>
			<point x="993" y="36" type="curve" smooth="yes"/>
			<point x="993" y="48"/>
			<point x="985" y="58"/>
			<point x="962" y="84" type="curve" smooth="yes"/>
			<point x="455" y="660" type="line" smooth="yes"/>
			<point x="407" y="715"/>
			<point x="356" y="760"/>
			<point x="326" y="784" type="curve"/>
			<point x="276" y="742" type="line"/>
			<point x="893" y="26" type="line" smooth="yes"/>
			<point x="919" y="-4"/>
			<point x="931" y="-12"/>
		</contour>
	</outline>
</glyph>
<glyph name="S" format="2">
	<unicode hex="0053"/>
	<advance width="1065"/>
	<outline>
		<contour>
			<point x="410" y="-12" type="curve" smooth="yes"/>
			<point x="683" y="-12"/>
			<point x="907" y="144"/>
			<point x="907" y="403" type="curve" smooth="yes"/>
			<point x="907" y="613"/>
			<point x="744" y="748"/>
			<point x="584" y="877" type="curve" smooth="yes"/>
			<point x="436" y="997"/>
			<point x="296" y="1111"/>
			<point x="296" y="1278" type="curve" smooth="yes"/>
			<point x="296" y="1433"/>
			<point x="427" y="1545"/>
			<point x="602" y="1545" type="curve" smooth="yes"/>
			<point x="703" y="1545"/>
			<point x="775" y="1525"/>
			<point x="846" y="1497" type="curve" smooth="yes"/>
			<point x="872" y="1487"/>
			<point x="884" y="1483"/>
			<point x="892" y="1483" type="curve" smooth="yes"/>
			<point x="912" y="1483"/>
			<point x="925" y="1501"/>
			<point x="925" y="1520" type="curve" smooth="yes"/>
			<point x="925" y="1537"/>
			<point x="910" y="1557"/>
			<point x="847" y="1581" type="curve" smooth="yes"/>
			<point x="776" y="1608"/>
			<point x="697" y="1625"/>
			<point x="613" y="1625" type="curve" smooth="yes"/>
			<point x="374" y="1625"/>
			<point x="211" y="1471"/>
			<point x="211" y="1271" type="curve" smooth="yes"/>
			<point x="211" y="1064"/>
			<point x="370" y="935"/>
			<point x="527" y="808" type="curve" smooth="yes"/>
			<point x="677" y="687"/>
			<point x="822" y="569"/>
			<point x="822" y="389" type="curve" smooth="yes"/>
			<point x="822" y="187"/>
			<point x="627" y="68"/>
			<point x="418" y="68" type="curve" smooth="yes"/>
			<point x="326" y="68"/>
			<point x="225" y="83"/>
			<point x="155" y="106" type="curve" smooth="yes"/>
			<point x="128" y="115"/>
			<point x="109" y="120"/>
			<point x="95" y="120" type="curve" smooth="yes"/>
			<point x="74" y="120"/>
			<point x="60" y="103"/>
			<point x="60" y="83" type="curve" smooth="yes"/>
			<point x="60" y="67"/>
			<point x="72" y="54"/>
			<point x="100" y="42" type="curve" smooth="yes"/>
			<point x="168" y="13"/>
			<point x="287" y="-12"/>
		</contour>
	</outline>
	<anchor name="bottom" x="430" y="0"/>
	<anchor name="top" x="613" y="1600"/>
</glyph>
<glyph name="T" format="2">
	<advance width="998"/>
	<unicode hex="0054"/>
	<anchor x="438" y="0" name="bottom"/>
	<anchor x="473" y="717" name="center"/>
	<anchor x="541" y="1600" name="top"/>
	<outline>
		<contour>
			<point x="438" y="-12" type="curve" smooth="yes"/>
			<point x="467" y="-12"/>
			<point x="482" y="2"/>
			<point x="484" y="31" type="curve" smooth="yes"/>
			<point x="582" y="1525" type="line"/>
			<point x="1025" y="1525" type="line" smooth="yes"/>
			<point x="1055" y="1525"/>
			<point x="1078" y="1542"/>
			<point x="1078" y="1566" type="curve" smooth="yes"/>
			<point x="1078" y="1587"/>
			<point x="1061" y="1600"/>
			<point x="1037" y="1600" type="curve" smooth="yes"/>
			<point x="78" y="1600" type="line" smooth="yes"/>
			<point x="47" y="1600"/>
			<point x="30" y="1582"/>
			<point x="30" y="1562" type="curve" smooth="yes"/>
			<point x="30" y="1541"/>
			<point x="47" y="1525"/>
			<point x="76" y="1525" type="curve" smooth="yes"/>
			<point x="498" y="1525" type="line"/>
			<point x="402" y="70" type="line" smooth="yes"/>
			<point x="401" y="56"/>
			<point x="400" y="42"/>
			<point x="400" y="31" type="curve" smooth="yes"/>
			<point x="400" y="0"/>
			<point x="415" y="-12"/>
		</contour>
	</outline>
</glyph>
<glyph name="U" format="2">
	<advance width="1331"/>
	<unicode hex="0055"/>
	<anchor x="499" y="0" name="bottom"/>
	<anchor x="992" y="-12" name="ogonek"/>
	<anchor x="713" y="1600" name="top"/>
	<anchor x="1188" y="1600" name="topright"/>
	<outline>
		<contour>
			<point x="497" y="-12" type="curve" smooth="yes"/>
			<point x="802" y="-12"/>
			<point x="974" y="324"/>
			<point x="1070" y="850" type="curve"/>
			<point x="1055" y="720"/>
			<point x="1044" y="599"/>
			<point x="1029" y="422" type="curve" smooth="yes"/>
			<point x="1000" y="70" type="line" smooth="yes"/>
			<point x="999" y="56"/>
			<point x="998" y="42"/>
			<point x="998" y="31" type="curve" smooth="yes"/>
			<point x="998" y="0"/>
			<point x="1013" y="-12"/>
			<point x="1037" y="-12" type="curve" smooth="yes"/>
			<point x="1065" y="-12"/>
			<point x="1080" y="2"/>
			<point x="1082" y="31" type="curve" smooth="yes"/>
			<point x="1178" y="1493" type="line" smooth="yes"/>
			<point x="1180" y="1527"/>
			<point x="1181" y="1546"/>
			<point x="1181" y="1557" type="curve" smooth="yes"/>
			<point x="1181" y="1588"/>
			<point x="1168" y="1600"/>
			<point x="1142" y="1600" type="curve" smooth="yes"/>
			<point x="1116" y="1600"/>
			<point x="1102" y="1585"/>
			<point x="1100" y="1556" type="curve" smooth="yes"/>
			<point x="1074" y="1225" type="line"/>
			<point x="955" y="407"/>
			<point x="772" y="66"/>
			<point x="507" y="66" type="curve" smooth="yes"/>
			<point x="342" y="66"/>
			<point x="253" y="163"/>
			<point x="253" y="386" type="curve" smooth="yes"/>
			<point x="253" y="468"/>
			<point x="257" y="522"/>
			<point x="265" y="622" type="curve" smooth="yes"/>
			<point x="332" y="1489" type="line" smooth="yes"/>
			<point x="335" y="1522"/>
			<point x="338" y="1555"/>
			<point x="338" y="1564" type="curve" smooth="yes"/>
			<point x="338" y="1587"/>
			<point x="329" y="1600"/>
			<point x="300" y="1600" type="curve" smooth="yes"/>
			<point x="269" y="1600"/>
			<point x="255" y="1587"/>
			<point x="252" y="1545" type="curve" smooth="yes"/>
			<point x="184" y="655" type="line" smooth="yes"/>
			<point x="175" y="535"/>
			<point x="170" y="464"/>
			<point x="170" y="375" type="curve" smooth="yes"/>
			<point x="170" y="125"/>
			<point x="287" y="-12"/>
		</contour>
	</outline>
</glyph>
<glyph name="V" format="2">
	<unicode hex="0056"/>
	<advance width="1090"/>
	<outline>
		<contour>
			<point x="490" y="-12" type="curve" smooth="yes"/>
			<point x="519" y="-12"/>
			<point x="538" y="-1"/>
			<point x="552" y="36" type="curve" smooth="yes"/>
			<point x="1120" y="1526" type="line" smooth="yes"/>
			<point x="1124" y="1536"/>
			<point x="1130" y="1552"/>
			<point x="1130" y="1566" type="curve" smooth="yes"/>
			<point x="1130" y="1588"/>
			<point x="1112" y="1600"/>
			<point x="1087" y="1600" type="curve" smooth="yes"/>
			<point x="1064" y="1600"/>
			<point x="1053" y="1583"/>
			<point x="1043" y="1557" type="curve" smooth="yes"/>
			<point x="533" y="207" type="line"/>
			<point x="500" y="116" type="line"/>
			<point x="481" y="207" type="line"/>
			<point x="143" y="1546" type="line" smooth="yes"/>
			<point x="132" y="1590"/>
			<point x="118" y="1600"/>
			<point x="93" y="1600" type="curve" smooth="yes"/>
			<point x="67" y="1600"/>
			<point x="50" y="1587"/>
			<point x="50" y="1557" type="curve" smooth="yes"/>
			<point x="50" y="1551"/>
			<point x="51" y="1543"/>
			<point x="53" y="1535" type="curve" smooth="yes"/>
			<point x="433" y="46" type="line" smooth="yes"/>
			<point x="446" y="-6"/>
			<point x="463" y="-12"/>
		</contour>
	</outline>
	<anchor name="bottom" x="669" y="1588"/>
	<anchor name="top" x="252" y="-14"/>
</glyph>
<glyph name="W" format="2">
	<advance width="1928"/>
	<unicode hex="0057"/>
	<anchor x="669" y="0" name="bottom"/>
	<anchor x="1053" y="1600" name="top"/>
	<outline>
		<contour>
			<point x="480" y="-12" type="curve" smooth="yes"/>
			<point x="508" y="-12"/>
			<point x="527" y="-6"/>
			<point x="542" y="38" type="curve" smooth="yes"/>
			<point x="977" y="1325" type="line"/>
			<point x="1007" y="1430" type="line"/>
			<point x="1027" y="1328" type="line"/>
			<point x="1307" y="38" type="line" smooth="yes"/>
			<point x="1316" y="-3"/>
			<point x="1337" y="-12"/>
			<point x="1361" y="-12" type="curve" smooth="yes"/>
			<point x="1387" y="-12"/>
			<point x="1406" y="-2"/>
			<point x="1421" y="41" type="curve" smooth="yes"/>
			<point x="1948" y="1526" type="line" smooth="yes"/>
			<point x="1955" y="1545"/>
			<point x="1958" y="1556"/>
			<point x="1958" y="1566" type="curve" smooth="yes"/>
			<point x="1958" y="1588"/>
			<point x="1941" y="1600"/>
			<point x="1920" y="1600" type="curve" smooth="yes"/>
			<point x="1891" y="1600"/>
			<point x="1877" y="1583"/>
			<point x="1868" y="1557" type="curve" smooth="yes"/>
			<point x="1411" y="258" type="line"/>
			<point x="1368" y="124" type="line"/>
			<point x="1343" y="259" type="line"/>
			<point x="1072" y="1509" type="line" smooth="yes"/>
			<point x="1064" y="1548"/>
			<point x="1045" y="1563"/>
			<point x="1017" y="1563" type="curve" smooth="yes"/>
			<point x="986" y="1563"/>
			<point x="970" y="1553"/>
			<point x="956" y="1510" type="curve" smooth="yes"/>
			<point x="534" y="263" type="line"/>
			<point x="493" y="129" type="line"/>
			<point x="469" y="259" type="line"/>
			<point x="173" y="1546" type="line" smooth="yes"/>
			<point x="163" y="1590"/>
			<point x="149" y="1600"/>
			<point x="124" y="1600" type="curve" smooth="yes"/>
			<point x="99" y="1600"/>
			<point x="80" y="1587"/>
			<point x="80" y="1558" type="curve" smooth="yes"/>
			<point x="80" y="1551"/>
			<point x="81" y="1544"/>
			<point x="83" y="1535" type="curve" smooth="yes"/>
			<point x="433" y="38" type="line" smooth="yes"/>
			<point x="443" y="-3"/>
			<point x="456" y="-12"/>
		</contour>
	</outline>
</glyph>
<glyph name="X" format="2">
	<advance width="1225"/>
	<unicode hex="0058"/>
	<anchor x="382" y="0" name="bottom"/>
	<anchor x="898" y="1598" name="top"/>
	<outline>
		<contour>
			<point x="54" y="-12" type="curve" smooth="yes"/>
			<point x="73" y="-12"/>
			<point x="82" y="0"/>
			<point x="95" y="18" type="curve" smooth="yes"/>
			<point x="645" y="772" type="line"/>
			<point x="676" y="802" type="line"/>
			<point x="1208" y="1525" type="line" smooth="yes"/>
			<point x="1220" y="1541"/>
			<point x="1225" y="1551"/>
			<point x="1225" y="1565" type="curve" smooth="yes"/>
			<point x="1225" y="1583"/>
			<point x="1209" y="1600"/>
			<point x="1184" y="1600" type="curve" smooth="yes"/>
			<point x="1173" y="1600"/>
			<point x="1162" y="1595"/>
			<point x="1142" y="1567" type="curve" smooth="yes"/>
			<point x="637" y="878" type="line"/>
			<point x="601" y="842" type="line"/>
			<point x="28" y="66" type="line" smooth="yes"/>
			<point x="15" y="48"/>
			<point x="10" y="39"/>
			<point x="10" y="25" type="curve" smooth="yes"/>
			<point x="10" y="8"/>
			<point x="31" y="-12"/>
		</contour>
		<contour>
			<point x="1046" y="-12" type="curve" smooth="yes"/>
			<point x="1071" y="-12"/>
			<point x="1092" y="11"/>
			<point x="1092" y="29" type="curve" smooth="yes"/>
			<point x="1092" y="42"/>
			<point x="1082" y="61"/>
			<point x="1076" y="72" type="curve" smooth="yes"/>
			<point x="313" y="1562" type="line" smooth="yes"/>
			<point x="299" y="1590"/>
			<point x="290" y="1600"/>
			<point x="270" y="1600" type="curve" smooth="yes"/>
			<point x="243" y="1600"/>
			<point x="222" y="1582"/>
			<point x="222" y="1560" type="curve" smooth="yes"/>
			<point x="222" y="1548"/>
			<point x="227" y="1538"/>
			<point x="237" y="1518" type="curve" smooth="yes"/>
			<point x="1001" y="32" type="line" smooth="yes"/>
			<point x="1019" y="-4"/>
			<point x="1028" y="-12"/>
		</contour>
	</outline>
</glyph>
<glyph name="Y" format="2">
	<advance width="1043"/>
	<unicode hex="0059"/>
	<anchor x="242" y="0" name="bottom"/>
	<anchor x="606" y="1600" name="top"/>
	<anchor x="111" y="1602" name="topleft"/>
	<outline>
		<contour>
			<point x="468" y="-12" type="curve" smooth="yes"/>
			<point x="500" y="-12"/>
			<point x="512" y="10"/>
			<point x="513" y="34" type="curve" smooth="yes"/>
			<point x="548" y="653" type="line"/>
			<point x="1068" y="1503" type="line" smooth="yes"/>
			<point x="1085" y="1531"/>
			<point x="1093" y="1545"/>
			<point x="1093" y="1563" type="curve" smooth="yes"/>
			<point x="1093" y="1583"/>
			<point x="1072" y="1600"/>
			<point x="1045" y="1600" type="curve" smooth="yes"/>
			<point x="1031" y="1600"/>
			<point x="1022" y="1593"/>
			<point x="999" y="1554" type="curve" smooth="yes"/>
			<point x="468" y="673" type="line"/>
			<point x="425" y="60" type="line" smooth="yes"/>
			<point x="423" y="37"/>
			<point x="423" y="31"/>
			<point x="423" y="20" type="curve" smooth="yes"/>
			<point x="423" y="0"/>
			<point x="447" y="-12"/>
		</contour>
		<contour>
			<point x="497" y="651" type="curve"/>
			<point x="536" y="696" type="line"/>
			<point x="150" y="1562" type="line" smooth="yes"/>
			<point x="138" y="1589"/>
			<point x="133" y="1600"/>
			<point x="112" y="1600" type="curve" smooth="yes"/>
			<point x="85" y="1600"/>
			<point x="60" y="1582"/>
			<point x="60" y="1562" type="curve" smooth="yes"/>
			<point x="60" y="1550"/>
			<point x="61" y="1541"/>
			<point x="71" y="1519" type="curve" smooth="yes"/>
			<point x="446" y="702" type="line" smooth="yes"/>
			<point x="465" y="660"/>
			<point x="477" y="651"/>
		</contour>
	</outline>
</glyph>
<glyph name="Z" format="2">
	<unicode hex="005A"/>
	<advance width="1183"/>
	<outline>
		<contour>
			<point x="122" y="0" type="curve" smooth="yes"/>
			<point x="986" y="0" type="line" smooth="yes"/>
			<point x="1014" y="0"/>
			<point x="1034" y="12"/>
			<point x="1034" y="43" type="curve" smooth="yes"/>
			<point x="1034" y="66"/>
			<point x="1019" y="78"/>
			<point x="992" y="78" type="curve" smooth="yes"/>
			<point x="162" y="78" type="line"/>
			<point x="1137" y="1481" type="line" smooth="yes"/>
			<point x="1154" y="1506"/>
			<point x="1163" y="1526"/>
			<point x="1163" y="1548" type="curve" smooth="yes"/>
			<point x="1163" y="1576"/>
			<point x="1145" y="1600"/>
			<point x="1089" y="1600" type="curve" smooth="yes"/>
			<point x="289" y="1600" type="line" smooth="yes"/>
			<point x="259" y="1600"/>
			<point x="239" y="1589"/>
			<point x="239" y="1559" type="curve" smooth="yes"/>
			<point x="239" y="1534"/>
			<point x="254" y="1522"/>
			<point x="284" y="1522" type="curve" smooth="yes"/>
			<point x="1068" y="1522" type="line"/>
			<point x="94" y="125" type="line" smooth="yes"/>
			<point x="72" y="94"/>
			<point x="60" y="76"/>
			<point x="60" y="55" type="curve" smooth="yes"/>
			<point x="60" y="24"/>
			<point x="79" y="0"/>
		</contour>
	</outline>
	<anchor name="bottom" x="494" y="0"/>
	<anchor name="center" x="630" y="820"/>
	<anchor name="top" x="701" y="1600"/>
	<anchor name="topright" x="1196" y="1600"/>
</glyph>
<glyph name="bracketleft" format="2">
	<unicode hex="005B"/>
	<advance width="779"/>
	<outline>
		<contour>
			<point x="325" y="-358" type="curve" smooth="yes"/>
			<point x="553" y="-358" type="line" smooth="yes"/>
			<point x="586" y="-358"/>
			<point x="600" y="-343"/>
			<point x="600" y="-319" type="curve" smooth="yes"/>
			<point x="600" y="-293"/>
			<point x="581" y="-278"/>
			<point x="555" y="-278" type="curve" smooth="yes"/>
			<point x="331" y="-278" type="line" smooth="yes"/>
			<point x="295" y="-278"/>
			<point x="281" y="-268"/>
			<point x="281" y="-233" type="curve" smooth="yes"/>
			<point x="281" y="-225"/>
			<point x="282" y="-212"/>
			<point x="283" y="-199" type="curve" smooth="yes"/>
			<point x="411" y="1567" type="line" smooth="yes"/>
			<point x="413" y="1594"/>
			<point x="420" y="1600"/>
			<point x="446" y="1600" type="curve" smooth="yes"/>
			<point x="681" y="1600" type="line" smooth="yes"/>
			<point x="723" y="1600"/>
			<point x="739" y="1616"/>
			<point x="739" y="1641" type="curve" smooth="yes"/>
			<point x="739" y="1666"/>
			<point x="725" y="1680"/>
			<point x="689" y="1680" type="curve" smooth="yes"/>
			<point x="432" y="1680" type="line" smooth="yes"/>
			<point x="369" y="1680"/>
			<point x="338" y="1649"/>
			<point x="333" y="1582" type="curve" smooth="yes"/>
			<point x="203" y="-184" type="line" smooth="yes"/>
			<point x="201" y="-209"/>
			<point x="200" y="-222"/>
			<point x="200" y="-236" type="curve" smooth="yes"/>
			<point x="200" y="-312"/>
			<point x="250" y="-358"/>
		</contour>
	</outline>
</glyph>
<glyph name="backslash" format="2">
	<unicode hex="005C"/>
	<advance width="1025"/>
	<outline>
		<contour>
			<point x="923" y="-156" type="curve" smooth="yes"/>
			<point x="944" y="-156"/>
			<point x="963" y="-142"/>
			<point x="965" y="-121" type="curve" smooth="yes"/>
			<point x="965" y="-114"/>
			<point x="963" y="-107"/>
			<point x="960" y="-101" type="curve" smooth="yes"/>
			<point x="152" y="1669" type="line" smooth="yes"/>
			<point x="147" y="1680"/>
			<point x="135" y="1690"/>
			<point x="121" y="1690" type="curve" smooth="yes"/>
			<point x="100" y="1690"/>
			<point x="82" y="1677"/>
			<point x="80" y="1656" type="curve" smooth="yes"/>
			<point x="80" y="1649"/>
			<point x="81" y="1642"/>
			<point x="84" y="1635" type="curve" smooth="yes"/>
			<point x="893" y="-134" type="line" smooth="yes"/>
			<point x="898" y="-145"/>
			<point x="910" y="-156"/>
		</contour>
	</outline>
</glyph>
<glyph name="bracketright" format="2">
	<unicode hex="005D"/>
	<advance width="779"/>
	<outline>
		<contour>
			<point x="90" y="-361" type="curve" smooth="yes"/>
			<point x="347" y="-361" type="line" smooth="yes"/>
			<point x="410" y="-361"/>
			<point x="441" y="-330"/>
			<point x="446" y="-263" type="curve" smooth="yes"/>
			<point x="576" y="1503" type="line" smooth="yes"/>
			<point x="578" y="1528"/>
			<point x="579" y="1541"/>
			<point x="579" y="1555" type="curve" smooth="yes"/>
			<point x="579" y="1631"/>
			<point x="529" y="1677"/>
			<point x="454" y="1677" type="curve" smooth="yes"/>
			<point x="226" y="1677" type="line" smooth="yes"/>
			<point x="193" y="1677"/>
			<point x="179" y="1662"/>
			<point x="179" y="1638" type="curve" smooth="yes"/>
			<point x="179" y="1612"/>
			<point x="198" y="1597"/>
			<point x="224" y="1597" type="curve" smooth="yes"/>
			<point x="448" y="1597" type="line" smooth="yes"/>
			<point x="484" y="1597"/>
			<point x="498" y="1587"/>
			<point x="498" y="1552" type="curve" smooth="yes"/>
			<point x="498" y="1544"/>
			<point x="497" y="1531"/>
			<point x="495" y="1510" type="curve" smooth="yes"/>
			<point x="368" y="-248" type="line" smooth="yes"/>
			<point x="366" y="-275"/>
			<point x="359" y="-281"/>
			<point x="333" y="-281" type="curve" smooth="yes"/>
			<point x="98" y="-281" type="line" smooth="yes"/>
			<point x="56" y="-281"/>
			<point x="40" y="-297"/>
			<point x="40" y="-322" type="curve" smooth="yes"/>
			<point x="40" y="-347"/>
			<point x="54" y="-361"/>
		</contour>
	</outline>
</glyph>
<glyph name="a" format="2">
	<advance width="1041"/>
	<unicode hex="0061"/>
	<anchor x="355" y="0" name="bottom"/>
	<anchor x="731" y="0" name="ogonek"/>
	<anchor x="571" y="910" name="top"/>
	<outline>
		<contour>
			<point x="333" y="-12" type="curve" smooth="yes"/>
			<point x="513" y="-12"/>
			<point x="700" y="214"/>
			<point x="840" y="691" type="curve"/>
			<point x="794" y="739" type="line"/>
			<point x="679" y="350"/>
			<point x="488" y="66"/>
			<point x="355" y="66" type="curve" smooth="yes"/>
			<point x="262" y="66"/>
			<point x="215" y="157"/>
			<point x="215" y="332" type="curve" smooth="yes"/>
			<point x="215" y="654"/>
			<point x="363" y="857"/>
			<point x="557" y="857" type="curve" smooth="yes"/>
			<point x="644" y="857"/>
			<point x="710" y="834"/>
			<point x="803" y="768" type="curve"/>
			<point x="808" y="844" type="line"/>
			<point x="724" y="907"/>
			<point x="639" y="935"/>
			<point x="553" y="935" type="curve" smooth="yes"/>
			<point x="308" y="935"/>
			<point x="130" y="700"/>
			<point x="130" y="328" type="curve" smooth="yes"/>
			<point x="130" y="108"/>
			<point x="204" y="-12"/>
		</contour>
		<contour>
			<point x="780" y="-12" type="curve" smooth="yes"/>
			<point x="805" y="-12"/>
			<point x="823" y="1"/>
			<point x="825" y="33" type="curve" smooth="yes"/>
			<point x="878" y="843" type="line" smooth="yes"/>
			<point x="880" y="866"/>
			<point x="881" y="879"/>
			<point x="881" y="891" type="curve" smooth="yes"/>
			<point x="881" y="922"/>
			<point x="869" y="935"/>
			<point x="840" y="935" type="curve" smooth="yes"/>
			<point x="816" y="935"/>
			<point x="798" y="926"/>
			<point x="795" y="881" type="curve" smooth="yes"/>
			<point x="741" y="49" type="line" smooth="yes"/>
			<point x="740" y="37"/>
			<point x="740" y="35"/>
			<point x="740" y="27" type="curve" smooth="yes"/>
			<point x="740" y="1"/>
			<point x="754" y="-12"/>
		</contour>
	</outline>
</glyph>
<glyph name="b" format="2">
	<advance width="1040"/>
	<unicode hex="0062"/>
	<outline>
		<contour>
			<point x="432" y="-12" type="curve" smooth="yes"/>
			<point x="680" y="-12"/>
			<point x="920" y="241"/>
			<point x="920" y="625" type="curve" smooth="yes"/>
			<point x="920" y="833"/>
			<point x="844" y="935"/>
			<point x="699" y="935" type="curve" smooth="yes"/>
			<point x="500" y="935"/>
			<point x="340" y="744"/>
			<point x="200" y="349" type="curve"/>
			<point x="250" y="317" type="line"/>
			<point x="370" y="659"/>
			<point x="539" y="857"/>
			<point x="685" y="857" type="curve" smooth="yes"/>
			<point x="785" y="857"/>
			<point x="835" y="780"/>
			<point x="835" y="611" type="curve" smooth="yes"/>
			<point x="835" y="281"/>
			<point x="642" y="66"/>
			<point x="447" y="66" type="curve" smooth="yes"/>
			<point x="325" y="66"/>
			<point x="260" y="155"/>
			<point x="260" y="319" type="curve" smooth="yes"/>
			<point x="260" y="374"/>
			<point x="263" y="432"/>
			<point x="270" y="526" type="curve" smooth="yes"/>
			<point x="343" y="1529" type="line" smooth="yes"/>
			<point x="344" y="1542"/>
			<point x="344" y="1547"/>
			<point x="344" y="1554" type="curve" smooth="yes"/>
			<point x="344" y="1585"/>
			<point x="332" y="1600"/>
			<point x="302" y="1600" type="curve" smooth="yes"/>
			<point x="278" y="1600"/>
			<point x="260" y="1591"/>
			<point x="257" y="1546" type="curve" smooth="yes"/>
			<point x="192" y="557" type="line" smooth="yes"/>
			<point x="183" y="423"/>
			<point x="180" y="361"/>
			<point x="180" y="310" type="curve" smooth="yes"/>
			<point x="180" y="88"/>
			<point x="283" y="-12"/>
		</contour>
	</outline>
</glyph>
<glyph name="c" format="2">
	<unicode hex="0063"/>
	<advance width="851"/>
	<outline>
		<contour>
			<point x="458" y="-12" type="curve" smooth="yes"/>
			<point x="565" y="-12"/>
			<point x="648" y="18"/>
			<point x="709" y="64" type="curve" smooth="yes"/>
			<point x="752" y="96"/>
			<point x="763" y="110"/>
			<point x="763" y="125" type="curve" smooth="yes"/>
			<point x="763" y="142"/>
			<point x="743" y="160"/>
			<point x="730" y="160" type="curve" smooth="yes"/>
			<point x="720" y="160"/>
			<point x="713" y="156"/>
			<point x="687" y="137" type="curve" smooth="yes"/>
			<point x="623" y="90"/>
			<point x="556" y="66"/>
			<point x="472" y="66" type="curve" smooth="yes"/>
			<point x="312" y="66"/>
			<point x="215" y="176"/>
			<point x="215" y="406" type="curve" smooth="yes"/>
			<point x="215" y="656"/>
			<point x="368" y="857"/>
			<point x="539" y="857" type="curve" smooth="yes"/>
			<point x="603" y="857"/>
			<point x="652" y="843"/>
			<point x="699" y="815" type="curve" smooth="yes"/>
			<point x="722" y="801"/>
			<point x="732" y="795"/>
			<point x="743" y="795" type="curve" smooth="yes"/>
			<point x="760" y="795"/>
			<point x="776" y="815"/>
			<point x="776" y="832" type="curve" smooth="yes"/>
			<point x="776" y="847"/>
			<point x="766" y="863"/>
			<point x="724" y="889" type="curve" smooth="yes"/>
			<point x="676" y="918"/>
			<point x="616" y="935"/>
			<point x="549" y="935" type="curve" smooth="yes"/>
			<point x="312" y="935"/>
			<point x="130" y="705"/>
			<point x="130" y="395" type="curve" smooth="yes"/>
			<point x="130" y="129"/>
			<point x="254" y="-12"/>
		</contour>
	</outline>
	<anchor name="bottom" x="460" y="0"/>
	<anchor name="top" x="528" y="910"/>
</glyph>
<glyph name="e" format="2">
	<advance width="888"/>
	<unicode hex="0065"/>
	<anchor x="461" y="0" name="bottom"/>
	<anchor x="580" y="0" name="ogonek"/>
	<anchor x="535" y="910" name="top"/>
	<outline>
		<contour>
			<point x="453" y="-12" type="curve" smooth="yes"/>
			<point x="558" y="-12"/>
			<point x="661" y="26"/>
			<point x="736" y="92" type="curve" smooth="yes"/>
			<point x="764" y="117"/>
			<point x="778" y="137"/>
			<point x="778" y="148" type="curve" smooth="yes"/>
			<point x="778" y="167"/>
			<point x="758" y="186"/>
			<point x="742" y="186" type="curve" smooth="yes"/>
			<point x="733" y="186"/>
			<point x="725" y="182"/>
			<point x="698" y="157" type="curve" smooth="yes"/>
			<point x="637" y="100"/>
			<point x="549" y="66"/>
			<point x="462" y="66" type="curve" smooth="yes"/>
			<point x="291" y="66"/>
			<point x="214" y="190"/>
			<point x="214" y="370" type="curve" smooth="yes"/>
			<point x="214" y="674"/>
			<point x="368" y="857"/>
			<point x="541" y="857" type="curve" smooth="yes"/>
			<point x="635" y="857"/>
			<point x="693" y="808"/>
			<point x="693" y="724" type="curve" smooth="yes"/>
			<point x="693" y="594"/>
			<point x="553" y="475"/>
			<point x="208" y="475" type="curve" smooth="yes"/>
			<point x="179" y="475"/>
			<point x="161" y="464"/>
			<point x="161" y="444" type="curve" smooth="yes"/>
			<point x="161" y="422"/>
			<point x="182" y="406"/>
			<point x="208" y="406" type="curve" smooth="yes"/>
			<point x="580" y="406"/>
			<point x="773" y="545"/>
			<point x="773" y="737" type="curve" smooth="yes"/>
			<point x="773" y="855"/>
			<point x="690" y="935"/>
			<point x="550" y="935" type="curve" smooth="yes"/>
			<point x="333" y="935"/>
			<point x="130" y="727"/>
			<point x="130" y="365" type="curve" smooth="yes"/>
			<point x="130" y="136"/>
			<point x="242" y="-12"/>
		</contour>
	</outline>
</glyph>
<glyph name="f" format="2">
	<unicode hex="0066"/>
	<advance width="626"/>
	<outline>
		<contour>
			<point x="250" y="-12" type="curve" smooth="yes"/>
			<point x="275" y="-12"/>
			<point x="293" y="1"/>
			<point x="295" y="33" type="curve" smooth="yes"/>
			<point x="349" y="835" type="line"/>
			<point x="589" y="835" type="line" smooth="yes"/>
			<point x="615" y="835"/>
			<point x="634" y="846"/>
			<point x="634" y="876" type="curve" smooth="yes"/>
			<point x="634" y="899"/>
			<point x="620" y="910"/>
			<point x="594" y="910" type="curve" smooth="yes"/>
			<point x="353" y="910" type="line"/>
			<point x="375" y="1246" type="line" smooth="yes"/>
			<point x="387" y="1435"/>
			<point x="463" y="1522"/>
			<point x="572" y="1522" type="curve" smooth="yes"/>
			<point x="613" y="1522"/>
			<point x="654" y="1509"/>
			<point x="699" y="1484" type="curve" smooth="yes"/>
			<point x="717" y="1474"/>
			<point x="726" y="1469"/>
			<point x="737" y="1469" type="curve" smooth="yes"/>
			<point x="751" y="1469"/>
			<point x="766" y="1487"/>
			<point x="766" y="1505" type="curve" smooth="yes"/>
			<point x="766" y="1535"/>
			<point x="685" y="1600"/>
			<point x="580" y="1600" type="curve" smooth="yes"/>
			<point x="423" y="1600"/>
			<point x="305" y="1489"/>
			<point x="290" y="1265" type="curve" smooth="yes"/>
			<point x="267" y="910" type="line"/>
			<point x="145" y="910" type="line" smooth="yes"/>
			<point x="119" y="910"/>
			<point x="100" y="899"/>
			<point x="100" y="870" type="curve" smooth="yes"/>
			<point x="100" y="846"/>
			<point x="114" y="835"/>
			<point x="140" y="835" type="curve" smooth="yes"/>
			<point x="262" y="835" type="line"/>
			<point x="211" y="49" type="line" smooth="yes"/>
			<point x="210" y="37"/>
			<point x="210" y="35"/>
			<point x="210" y="27" type="curve" smooth="yes"/>
			<point x="210" y="1"/>
			<point x="224" y="-12"/>
		</contour>
	</outline>
	<guideline x="323" y="454" angle="86.1904"/>
</glyph>
<glyph name="g" format="2">
	<advance width="1039"/>
	<unicode hex="0067"/>
	<guideline x="130" y="328" angle="90"/>
	<anchor x="269" y="0" name="bottom"/>
	<anchor x="874" y="0" name="ogonek"/>
	<anchor x="551" y="910" name="top"/>
	<outline>
		<contour>
			<point x="422" y="-690" type="curve" smooth="yes"/>
			<point x="653" y="-690"/>
			<point x="785" y="-528"/>
			<point x="808" y="-186" type="curve" smooth="yes"/>
			<point x="876" y="843" type="line" smooth="yes"/>
			<point x="878" y="866"/>
			<point x="879" y="886"/>
			<point x="879" y="891" type="curve" smooth="yes"/>
			<point x="879" y="922"/>
			<point x="867" y="935"/>
			<point x="838" y="935" type="curve" smooth="yes"/>
			<point x="814" y="935"/>
			<point x="796" y="926"/>
			<point x="793" y="881" type="curve" smooth="yes"/>
			<point x="725" y="-161" type="line" smooth="yes"/>
			<point x="704" y="-481"/>
			<point x="603" y="-612"/>
			<point x="432" y="-612" type="curve" smooth="yes"/>
			<point x="347" y="-612"/>
			<point x="280" y="-588"/>
			<point x="210" y="-531" type="curve" smooth="yes"/>
			<point x="189" y="-514"/>
			<point x="180" y="-509"/>
			<point x="169" y="-509" type="curve" smooth="yes"/>
			<point x="151" y="-509"/>
			<point x="130" y="-533"/>
			<point x="130" y="-554" type="curve" smooth="yes"/>
			<point x="130" y="-587"/>
			<point x="244" y="-690"/>
		</contour>
		<contour>
			<point x="333" y="-12" type="curve" smooth="yes"/>
			<point x="513" y="-12"/>
			<point x="700" y="214"/>
			<point x="840" y="691" type="curve"/>
			<point x="794" y="739" type="line"/>
			<point x="679" y="350"/>
			<point x="488" y="66"/>
			<point x="355" y="66" type="curve" smooth="yes"/>
			<point x="262" y="66"/>
			<point x="215" y="157"/>
			<point x="215" y="332" type="curve" smooth="yes"/>
			<point x="215" y="654"/>
			<point x="363" y="857"/>
			<point x="557" y="857" type="curve" smooth="yes"/>
			<point x="644" y="857"/>
			<point x="710" y="834"/>
			<point x="803" y="768" type="curve"/>
			<point x="808" y="844" type="line"/>
			<point x="724" y="907"/>
			<point x="639" y="935"/>
			<point x="553" y="935" type="curve" smooth="yes"/>
			<point x="308" y="935"/>
			<point x="130" y="700"/>
			<point x="130" y="328" type="curve" smooth="yes"/>
			<point x="130" y="108"/>
			<point x="204" y="-12"/>
		</contour>
	</outline>
</glyph>
<glyph name="h" format="2">
	<unicode hex="0068"/>
	<advance width="1071"/>
	<outline>
		<contour>
			<point x="805" y="-12" type="curve" smooth="yes"/>
			<point x="830" y="-12"/>
			<point x="847" y="0"/>
			<point x="850" y="33" type="curve" smooth="yes"/>
			<point x="888" y="503" type="line" smooth="yes"/>
			<point x="897" y="615"/>
			<point x="901" y="682"/>
			<point x="901" y="719" type="curve" smooth="yes"/>
			<point x="901" y="874"/>
			<point x="831" y="935"/>
			<point x="726" y="935" type="curve" smooth="yes"/>
			<point x="496" y="935"/>
			<point x="304" y="640"/>
			<point x="186" y="101" type="curve"/>
			<point x="247" y="84" type="line"/>
			<point x="332" y="544"/>
			<point x="552" y="857"/>
			<point x="717" y="857" type="curve" smooth="yes"/>
			<point x="776" y="857"/>
			<point x="816" y="817"/>
			<point x="816" y="706" type="curve" smooth="yes"/>
			<point x="816" y="674"/>
			<point x="812" y="601"/>
			<point x="804" y="508" type="curve" smooth="yes"/>
			<point x="766" y="49" type="line" smooth="yes"/>
			<point x="765" y="37"/>
			<point x="765" y="35"/>
			<point x="765" y="27" type="curve" smooth="yes"/>
			<point x="765" y="1"/>
			<point x="779" y="-12"/>
		</contour>
		<contour>
			<point x="200" y="-12" type="curve" smooth="yes"/>
			<point x="225" y="-12"/>
			<point x="243" y="1"/>
			<point x="245" y="33" type="curve" smooth="yes"/>
			<point x="342" y="1508" type="line" smooth="yes"/>
			<point x="344" y="1531"/>
			<point x="345" y="1544"/>
			<point x="345" y="1556" type="curve" smooth="yes"/>
			<point x="345" y="1587"/>
			<point x="333" y="1600"/>
			<point x="304" y="1600" type="curve" smooth="yes"/>
			<point x="280" y="1600"/>
			<point x="262" y="1591"/>
			<point x="259" y="1546" type="curve" smooth="yes"/>
			<point x="161" y="49" type="line" smooth="yes"/>
			<point x="160" y="37"/>
			<point x="160" y="35"/>
			<point x="160" y="27" type="curve" smooth="yes"/>
			<point x="160" y="1"/>
			<point x="174" y="-12"/>
		</contour>
	</outline>
	<anchor name="bottom" x="494" y="0"/>
	<anchor name="center" x="315" y="1208"/>
	<anchor name="top" x="307" y="1600"/>
</glyph>
<glyph name="k" format="2">
	<unicode hex="006B"/>
	<advance width="925"/>
	<outline>
		<contour>
			<point x="789" y="-12" type="curve" smooth="yes"/>
			<point x="814" y="-12"/>
			<point x="836" y="11"/>
			<point x="836" y="36" type="curve" smooth="yes"/>
			<point x="836" y="48"/>
			<point x="828" y="61"/>
			<point x="804" y="86" type="curve" smooth="yes"/>
			<point x="375" y="539" type="line"/>
			<point x="823" y="850" type="line" smooth="yes"/>
			<point x="850" y="869"/>
			<point x="855" y="880"/>
			<point x="855" y="895" type="curve" smooth="yes"/>
			<point x="855" y="910"/>
			<point x="841" y="935"/>
			<point x="815" y="935" type="curve" smooth="yes"/>
			<point x="802" y="935"/>
			<point x="792" y="930"/>
			<point x="768" y="913" type="curve" smooth="yes"/>
			<point x="331" y="604" type="line" smooth="yes"/>
			<point x="304" y="585"/>
			<point x="291" y="567"/>
			<point x="291" y="541" type="curve" smooth="yes"/>
			<point x="291" y="517"/>
			<point x="297" y="502"/>
			<point x="332" y="464" type="curve" smooth="yes"/>
			<point x="736" y="26" type="line" smooth="yes"/>
			<point x="763" y="-3"/>
			<point x="774" y="-12"/>
		</contour>
		<contour>
			<point x="200" y="-12" type="curve" smooth="yes"/>
			<point x="225" y="-12"/>
			<point x="243" y="1"/>
			<point x="245" y="33" type="curve" smooth="yes"/>
			<point x="337" y="1500" type="line" smooth="yes"/>
			<point x="339" y="1524"/>
			<point x="340" y="1544"/>
			<point x="340" y="1556" type="curve" smooth="yes"/>
			<point x="340" y="1587"/>
			<point x="328" y="1600"/>
			<point x="299" y="1600" type="curve" smooth="yes"/>
			<point x="275" y="1600"/>
			<point x="257" y="1591"/>
			<point x="254" y="1546" type="curve" smooth="yes"/>
			<point x="161" y="49" type="line" smooth="yes"/>
			<point x="160" y="37"/>
			<point x="160" y="35"/>
			<point x="160" y="27" type="curve" smooth="yes"/>
			<point x="160" y="1"/>
			<point x="174" y="-12"/>
		</contour>
	</outline>
	<anchor name="bottom" x="452" y="0"/>
	<anchor name="top" x="299" y="1600"/>
</glyph>
<glyph name="l" format="2">
	<unicode hex="006C"/>
	<advance width="604"/>
	<outline>
		<contour>
			<point x="346" y="-12" type="curve" smooth="yes"/>
			<point x="410" y="-12"/>
			<point x="472" y="14"/>
			<point x="512" y="54" type="curve" smooth="yes"/>
			<point x="539" y="81"/>
			<point x="544" y="95"/>
			<point x="544" y="106" type="curve" smooth="yes"/>
			<point x="544" y="120"/>
			<point x="532" y="137"/>
			<point x="512" y="137" type="curve" smooth="yes"/>
			<point x="502" y="137"/>
			<point x="493" y="132"/>
			<point x="473" y="114" type="curve" smooth="yes"/>
			<point x="440" y="85"/>
			<point x="398" y="66"/>
			<point x="356" y="66" type="curve" smooth="yes"/>
			<point x="295" y="66"/>
			<point x="265" y="101"/>
			<point x="265" y="193" type="curve" smooth="yes"/>
			<point x="265" y="233"/>
			<point x="266" y="264"/>
			<point x="275" y="406" type="curve" smooth="yes"/>
			<point x="348" y="1500" type="line" smooth="yes"/>
			<point x="350" y="1524"/>
			<point x="351" y="1544"/>
			<point x="351" y="1556" type="curve" smooth="yes"/>
			<point x="351" y="1587"/>
			<point x="339" y="1600"/>
			<point x="310" y="1600" type="curve" smooth="yes"/>
			<point x="286" y="1600"/>
			<point x="268" y="1591"/>
			<point x="265" y="1546" type="curve" smooth="yes"/>
			<point x="191" y="411" type="line" smooth="yes"/>
			<point x="181" y="254"/>
			<point x="180" y="224"/>
			<point x="180" y="180" type="curve" smooth="yes"/>
			<point x="180" y="61"/>
			<point x="242" y="-12"/>
		</contour>
	</outline>
	<anchor name="bottom" x="326" y="0"/>
	<anchor name="center" x="264" y="845"/>
	<anchor name="top" x="310" y="1510"/>
	<anchor name="topright" x="440" y="1600"/>
</glyph>
<glyph name="m" format="2">
	<unicode hex="006D"/>
	<advance width="1608"/>
	<outline>
		<contour>
			<point x="1342" y="-12" type="curve" smooth="yes"/>
			<point x="1367" y="-12"/>
			<point x="1384" y="0"/>
			<point x="1387" y="33" type="curve" smooth="yes"/>
			<point x="1425" y="503" type="line" smooth="yes"/>
			<point x="1434" y="615"/>
			<point x="1438" y="684"/>
			<point x="1438" y="721" type="curve" smooth="yes"/>
			<point x="1438" y="874"/>
			<point x="1370" y="935"/>
			<point x="1271" y="935" type="curve" smooth="yes"/>
			<point x="1102" y="935"/>
			<point x="953" y="755"/>
			<point x="841" y="416" type="curve"/>
			<point x="863" y="631"/>
			<point x="866" y="689"/>
			<point x="866" y="723" type="curve" smooth="yes"/>
			<point x="866" y="874"/>
			<point x="798" y="935"/>
			<point x="699" y="935" type="curve" smooth="yes"/>
			<point x="530" y="935"/>
			<point x="382" y="756"/>
			<point x="270" y="419" type="curve"/>
			<point x="298" y="841" type="line" smooth="yes"/>
			<point x="300" y="866"/>
			<point x="301" y="879"/>
			<point x="301" y="891" type="curve" smooth="yes"/>
			<point x="301" y="922"/>
			<point x="289" y="935"/>
			<point x="260" y="935" type="curve" smooth="yes"/>
			<point x="236" y="935"/>
			<point x="218" y="926"/>
			<point x="215" y="881" type="curve" smooth="yes"/>
			<point x="161" y="49" type="line" smooth="yes"/>
			<point x="160" y="37"/>
			<point x="160" y="35"/>
			<point x="160" y="27" type="curve" smooth="yes"/>
			<point x="160" y="1"/>
			<point x="174" y="-12"/>
			<point x="200" y="-12" type="curve" smooth="yes"/>
			<point x="225" y="-12"/>
			<point x="243" y="1"/>
			<point x="245" y="33" type="curve" smooth="yes"/>
			<point x="249" y="96" type="line"/>
			<point x="332" y="554"/>
			<point x="533" y="857"/>
			<point x="689" y="857" type="curve" smooth="yes"/>
			<point x="743" y="857"/>
			<point x="781" y="820"/>
			<point x="781" y="711" type="curve" smooth="yes"/>
			<point x="781" y="684"/>
			<point x="778" y="591"/>
			<point x="756" y="338" type="curve" smooth="yes"/>
			<point x="731" y="49" type="line" smooth="yes"/>
			<point x="730" y="37"/>
			<point x="730" y="35"/>
			<point x="730" y="27" type="curve" smooth="yes"/>
			<point x="730" y="1"/>
			<point x="744" y="-12"/>
			<point x="770" y="-12" type="curve" smooth="yes"/>
			<point x="795" y="-12"/>
			<point x="813" y="1"/>
			<point x="815" y="33" type="curve" smooth="yes"/>
			<point x="816" y="50"/>
			<point x="818" y="76"/>
			<point x="819" y="84" type="curve"/>
			<point x="901" y="549"/>
			<point x="1104" y="857"/>
			<point x="1260" y="857" type="curve" smooth="yes"/>
			<point x="1315" y="857"/>
			<point x="1353" y="819"/>
			<point x="1353" y="713" type="curve" smooth="yes"/>
			<point x="1353" y="684"/>
			<point x="1349" y="601"/>
			<point x="1341" y="508" type="curve" smooth="yes"/>
			<point x="1303" y="49" type="line" smooth="yes"/>
			<point x="1302" y="37"/>
			<point x="1302" y="35"/>
			<point x="1302" y="27" type="curve" smooth="yes"/>
			<point x="1302" y="1"/>
			<point x="1316" y="-12"/>
		</contour>
	</outline>
</glyph>
<glyph name="n" format="2">
	<advance width="1071"/>
	<unicode hex="006E"/>
	<anchor x="505" y="0" name="bottom"/>
	<anchor x="570" y="910" name="top"/>
	<note>
		u006E
	</note>
	<outline>
		<contour>
			<point x="805" y="-12" type="curve" smooth="yes"/>
			<point x="830" y="-12"/>
			<point x="847" y="0"/>
			<point x="850" y="33" type="curve" smooth="yes"/>
			<point x="888" y="503" type="line" smooth="yes"/>
			<point x="897" y="615"/>
			<point x="901" y="682"/>
			<point x="901" y="719" type="curve" smooth="yes"/>
			<point x="901" y="874"/>
			<point x="831" y="935"/>
			<point x="726" y="935" type="curve" smooth="yes"/>
			<point x="544" y="935"/>
			<point x="386" y="751"/>
			<point x="270" y="408" type="curve"/>
			<point x="300" y="843" type="line" smooth="yes"/>
			<point x="301" y="864"/>
			<point x="301" y="879"/>
			<point x="301" y="891" type="curve" smooth="yes"/>
			<point x="301" y="922"/>
			<point x="289" y="935"/>
			<point x="260" y="935" type="curve" smooth="yes"/>
			<point x="236" y="935"/>
			<point x="218" y="926"/>
			<point x="215" y="881" type="curve" smooth="yes"/>
			<point x="161" y="49" type="line" smooth="yes"/>
			<point x="160" y="37"/>
			<point x="160" y="35"/>
			<point x="160" y="27" type="curve" smooth="yes"/>
			<point x="160" y="1"/>
			<point x="174" y="-12"/>
			<point x="200" y="-12" type="curve" smooth="yes"/>
			<point x="225" y="-12"/>
			<point x="243" y="1"/>
			<point x="245" y="33" type="curve" smooth="yes"/>
			<point x="249" y="95" type="line"/>
			<point x="335" y="546"/>
			<point x="545" y="857"/>
			<point x="715" y="857" type="curve" smooth="yes"/>
			<point x="777" y="857"/>
			<point x="816" y="816"/>
			<point x="816" y="706" type="curve" smooth="yes"/>
			<point x="816" y="674"/>
			<point x="812" y="601"/>
			<point x="804" y="508" type="curve" smooth="yes"/>
			<point x="766" y="49" type="line" smooth="yes"/>
			<point x="765" y="37"/>
			<point x="765" y="35"/>
			<point x="765" y="27" type="curve" smooth="yes"/>
			<point x="765" y="1"/>
			<point x="779" y="-12"/>
		</contour>
	</outline>
</glyph>
<glyph name="o" format="2">
	<unicode hex="006F"/>
	<advance width="1015"/>
	<outline>
		<contour>
			<point x="465" y="-12" type="curve" smooth="yes"/>
			<point x="707" y="-12"/>
			<point x="895" y="218"/>
			<point x="895" y="528" type="curve" smooth="yes"/>
			<point x="895" y="794"/>
			<point x="770" y="935"/>
			<point x="560" y="935" type="curve" smooth="yes"/>
			<point x="312" y="935"/>
			<point x="130" y="705"/>
			<point x="130" y="395" type="curve" smooth="yes"/>
			<point x="130" y="129"/>
			<point x="255" y="-12"/>
		</contour>
		<contour>
			<point x="465" y="66" type="curve" smooth="yes"/>
			<point x="313" y="66"/>
			<point x="215" y="176"/>
			<point x="215" y="406" type="curve" smooth="yes"/>
			<point x="215" y="656"/>
			<point x="364" y="857"/>
			<point x="560" y="857" type="curve" smooth="yes"/>
			<point x="712" y="857"/>
			<point x="810" y="747"/>
			<point x="810" y="517" type="curve" smooth="yes"/>
			<point x="810" y="267"/>
			<point x="664" y="66"/>
		</contour>
	</outline>
	<anchor name="bottom" x="467" y="0"/>
	<anchor name="center" x="513" y="455"/>
	<anchor name="ogonek" x="502" y="0"/>
	<anchor name="top" x="557" y="910"/>
	<anchor name="topright" x="935" y="910"/>
	<note>
		u006F
	</note>
</glyph>
<glyph name="p" format="2">
	<unicode hex="0070"/>
	<advance width="1060"/>
	<outline>
		<contour>
			<point x="462" y="-12" type="curve" smooth="yes"/>
			<point x="705" y="-12"/>
			<point x="940" y="236"/>
			<point x="940" y="625" type="curve" smooth="yes"/>
			<point x="940" y="833"/>
			<point x="864" y="935"/>
			<point x="719" y="935" type="curve" smooth="yes"/>
			<point x="554" y="935"/>
			<point x="417" y="795"/>
			<point x="294" y="514" type="curve"/>
			<point x="316" y="859" type="line" smooth="yes"/>
			<point x="317" y="879"/>
			<point x="317" y="882"/>
			<point x="317" y="891" type="curve" smooth="yes"/>
			<point x="317" y="922"/>
			<point x="305" y="935"/>
			<point x="276" y="935" type="curve" smooth="yes"/>
			<point x="252" y="935"/>
			<point x="234" y="926"/>
			<point x="231" y="881" type="curve" smooth="yes"/>
			<point x="134" y="-609" type="line" smooth="yes"/>
			<point x="133" y="-621"/>
			<point x="133" y="-627"/>
			<point x="133" y="-631" type="curve" smooth="yes"/>
			<point x="133" y="-657"/>
			<point x="147" y="-670"/>
			<point x="175" y="-670" type="curve" smooth="yes"/>
			<point x="200" y="-670"/>
			<point x="218" y="-657"/>
			<point x="220" y="-625" type="curve" smooth="yes"/>
			<point x="263" y="37" type="line"/>
			<point x="320" y="6"/>
			<point x="385" y="-12"/>
		</contour>
		<contour>
			<point x="268" y="115" type="curve"/>
			<point x="282" y="333" type="line"/>
			<point x="409" y="677"/>
			<point x="566" y="857"/>
			<point x="705" y="857" type="curve" smooth="yes"/>
			<point x="805" y="857"/>
			<point x="855" y="780"/>
			<point x="855" y="611" type="curve" smooth="yes"/>
			<point x="855" y="281"/>
			<point x="662" y="66"/>
			<point x="466" y="66" type="curve" smooth="yes"/>
			<point x="382" y="66"/>
			<point x="321" y="83"/>
		</contour>
	</outline>
</glyph>
<glyph name="q" format="2">
	<advance width="1040"/>
	<unicode hex="0071"/>
	<outline>
		<contour>
			<point x="739" y="-670" type="curve" smooth="yes"/>
			<point x="769" y="-670"/>
			<point x="780" y="-656"/>
			<point x="783" y="-615" type="curve" smooth="yes"/>
			<point x="880" y="859" type="line" smooth="yes"/>
			<point x="881" y="879"/>
			<point x="881" y="882"/>
			<point x="881" y="891" type="curve" smooth="yes"/>
			<point x="881" y="922"/>
			<point x="869" y="935"/>
			<point x="840" y="935" type="curve" smooth="yes"/>
			<point x="816" y="935"/>
			<point x="798" y="926"/>
			<point x="795" y="881" type="curve" smooth="yes"/>
			<point x="793" y="855" type="line"/>
			<point x="714" y="910"/>
			<point x="634" y="935"/>
			<point x="553" y="935" type="curve" smooth="yes"/>
			<point x="308" y="935"/>
			<point x="130" y="700"/>
			<point x="130" y="328" type="curve" smooth="yes"/>
			<point x="130" y="108"/>
			<point x="204" y="-12"/>
			<point x="333" y="-12" type="curve" smooth="yes"/>
			<point x="484" y="-12"/>
			<point x="640" y="147"/>
			<point x="769" y="480" type="curve"/>
			<point x="698" y="-609" type="line" smooth="yes"/>
			<point x="697" y="-621"/>
			<point x="697" y="-627"/>
			<point x="697" y="-631" type="curve" smooth="yes"/>
			<point x="697" y="-657"/>
			<point x="711" y="-670"/>
		</contour>
		<contour>
			<point x="355" y="66" type="curve" smooth="yes"/>
			<point x="262" y="66"/>
			<point x="215" y="157"/>
			<point x="215" y="332" type="curve" smooth="yes"/>
			<point x="215" y="654"/>
			<point x="363" y="857"/>
			<point x="557" y="857" type="curve" smooth="yes"/>
			<point x="639" y="857"/>
			<point x="703" y="836"/>
			<point x="788" y="778" type="curve"/>
			<point x="783" y="704" type="line"/>
			<point x="668" y="333"/>
			<point x="484" y="66"/>
		</contour>
	</outline>
</glyph>
<glyph name="r" format="2">
	<advance width="781"/>
	<unicode hex="0072"/>
	<anchor x="203" y="0" name="bottom"/>
	<anchor x="480" y="910" name="top"/>
	<outline>
		<contour>
			<point x="200" y="-12" type="curve" smooth="yes"/>
			<point x="225" y="-12"/>
			<point x="243" y="1"/>
			<point x="245" y="33" type="curve" smooth="yes"/>
			<point x="250" y="114" type="line"/>
			<point x="302" y="541"/>
			<point x="462" y="857"/>
			<point x="589" y="857" type="curve" smooth="yes"/>
			<point x="634" y="857"/>
			<point x="658" y="823"/>
			<point x="667" y="740" type="curve" smooth="yes"/>
			<point x="671" y="704"/>
			<point x="683" y="687"/>
			<point x="711" y="687" type="curve" smooth="yes"/>
			<point x="736" y="687"/>
			<point x="751" y="711"/>
			<point x="751" y="750" type="curve" smooth="yes"/>
			<point x="751" y="859"/>
			<point x="699" y="935"/>
			<point x="606" y="935" type="curve" smooth="yes"/>
			<point x="478" y="935"/>
			<point x="375" y="823"/>
			<point x="276" y="492" type="curve"/>
			<point x="300" y="843" type="line" smooth="yes"/>
			<point x="301" y="864"/>
			<point x="301" y="879"/>
			<point x="301" y="891" type="curve" smooth="yes"/>
			<point x="301" y="922"/>
			<point x="289" y="935"/>
			<point x="260" y="935" type="curve" smooth="yes"/>
			<point x="236" y="935"/>
			<point x="218" y="926"/>
			<point x="215" y="881" type="curve" smooth="yes"/>
			<point x="160" y="35" type="line" smooth="yes"/>
			<point x="160" y="33"/>
			<point x="160" y="31"/>
			<point x="160" y="29" type="curve" smooth="yes"/>
			<point x="160" y="1"/>
			<point x="174" y="-12"/>
		</contour>
	</outline>
</glyph>
<glyph name="s" format="2">
	<advance width="715"/>
	<unicode hex="0073"/>
	<anchor x="339" y="0" name="bottom"/>
	<anchor x="431" y="910" name="top"/>
	<outline>
		<contour>
			<point x="331" y="-12" type="curve" smooth="yes"/>
			<point x="492" y="-12"/>
			<point x="619" y="93"/>
			<point x="619" y="245" type="curve" smooth="yes"/>
			<point x="619" y="391"/>
			<point x="509" y="460"/>
			<point x="409" y="522" type="curve" smooth="yes"/>
			<point x="325" y="574"/>
			<point x="249" y="622"/>
			<point x="249" y="707" type="curve" smooth="yes"/>
			<point x="249" y="793"/>
			<point x="324" y="860"/>
			<point x="437" y="860" type="curve" smooth="yes"/>
			<point x="498" y="860"/>
			<point x="541" y="850"/>
			<point x="570" y="843" type="curve" smooth="yes"/>
			<point x="586" y="839"/>
			<point x="598" y="836"/>
			<point x="607" y="836" type="curve" smooth="yes"/>
			<point x="625" y="836"/>
			<point x="635" y="856"/>
			<point x="635" y="869" type="curve" smooth="yes"/>
			<point x="635" y="878"/>
			<point x="627" y="889"/>
			<point x="615" y="896" type="curve" smooth="yes"/>
			<point x="581" y="916"/>
			<point x="513" y="935"/>
			<point x="443" y="935" type="curve" smooth="yes"/>
			<point x="281" y="935"/>
			<point x="165" y="840"/>
			<point x="165" y="702" type="curve" smooth="yes"/>
			<point x="165" y="573"/>
			<point x="262" y="513"/>
			<point x="358" y="456" type="curve" smooth="yes"/>
			<point x="448" y="403"/>
			<point x="534" y="350"/>
			<point x="534" y="242" type="curve" smooth="yes"/>
			<point x="534" y="138"/>
			<point x="448" y="63"/>
			<point x="327" y="63" type="curve" smooth="yes"/>
			<point x="238" y="63"/>
			<point x="181" y="79"/>
			<point x="143" y="91" type="curve" smooth="yes"/>
			<point x="125" y="97"/>
			<point x="112" y="100"/>
			<point x="103" y="100" type="curve" smooth="yes"/>
			<point x="84" y="100"/>
			<point x="70" y="82"/>
			<point x="70" y="60" type="curve" smooth="yes"/>
			<point x="70" y="44"/>
			<point x="78" y="35"/>
			<point x="100" y="26" type="curve" smooth="yes"/>
			<point x="150" y="6"/>
			<point x="230" y="-12"/>
		</contour>
	</outline>
</glyph>
<glyph name="t" format="2">
	<advance width="703"/>
	<unicode hex="0074"/>
	<anchor x="398" y="0" name="bottom"/>
	<anchor x="207" y="455" name="center"/>
	<anchor x="177" y="910" name="top"/>
	<anchor x="457" y="1377" name="topright"/>
	<outline>
		<contour>
			<point x="399" y="-12" type="curve" smooth="yes"/>
			<point x="481" y="-12"/>
			<point x="562" y="23"/>
			<point x="629" y="96" type="curve" smooth="yes"/>
			<point x="655" y="124"/>
			<point x="663" y="140"/>
			<point x="663" y="154" type="curve" smooth="yes"/>
			<point x="663" y="169"/>
			<point x="646" y="186"/>
			<point x="627" y="186" type="curve" smooth="yes"/>
			<point x="618" y="186"/>
			<point x="610" y="181"/>
			<point x="584" y="155" type="curve" smooth="yes"/>
			<point x="523" y="94"/>
			<point x="468" y="66"/>
			<point x="410" y="66" type="curve" smooth="yes"/>
			<point x="329" y="66"/>
			<point x="295" y="110"/>
			<point x="295" y="222" type="curve" smooth="yes"/>
			<point x="295" y="266"/>
			<point x="299" y="326"/>
			<point x="305" y="415" type="curve" smooth="yes"/>
			<point x="362" y="1209" type="line" smooth="yes"/>
			<point x="363" y="1224"/>
			<point x="363" y="1225"/>
			<point x="363" y="1232" type="curve" smooth="yes"/>
			<point x="363" y="1264"/>
			<point x="351" y="1274"/>
			<point x="325" y="1274" type="curve" smooth="yes"/>
			<point x="301" y="1274"/>
			<point x="278" y="1265"/>
			<point x="275" y="1220" type="curve" smooth="yes"/>
			<point x="220" y="418" type="line" smooth="yes"/>
			<point x="212" y="308"/>
			<point x="210" y="261"/>
			<point x="210" y="209" type="curve" smooth="yes"/>
			<point x="210" y="67"/>
			<point x="284" y="-12"/>
		</contour>
		<contour>
			<point x="130" y="835" type="curve" smooth="yes"/>
			<point x="579" y="835" type="line" smooth="yes"/>
			<point x="605" y="835"/>
			<point x="624" y="846"/>
			<point x="624" y="876" type="curve" smooth="yes"/>
			<point x="624" y="899"/>
			<point x="610" y="910"/>
			<point x="584" y="910" type="curve" smooth="yes"/>
			<point x="135" y="910" type="line" smooth="yes"/>
			<point x="109" y="910"/>
			<point x="90" y="899"/>
			<point x="90" y="870" type="curve" smooth="yes"/>
			<point x="90" y="846"/>
			<point x="104" y="835"/>
		</contour>
	</outline>
</glyph>
<glyph name="u" format="2">
	<advance width="1051"/>
	<unicode hex="0075"/>
	<anchor x="412" y="0" name="bottom"/>
	<anchor x="775" y="0" name="ogonek"/>
	<anchor x="555" y="910" name="top"/>
	<anchor x="828" y="910" name="topright"/>
	<outline>
		<contour>
			<point x="394" y="-12" type="curve" smooth="yes"/>
			<point x="537" y="-12"/>
			<point x="667" y="94"/>
			<point x="765" y="422" type="curve"/>
			<point x="741" y="71" type="line" smooth="yes"/>
			<point x="740" y="56"/>
			<point x="739" y="40"/>
			<point x="739" y="33" type="curve" smooth="yes"/>
			<point x="739" y="2"/>
			<point x="751" y="-12"/>
			<point x="781" y="-12" type="curve" smooth="yes"/>
			<point x="805" y="-12"/>
			<point x="823" y="-3"/>
			<point x="826" y="42" type="curve" smooth="yes"/>
			<point x="879" y="859" type="line" smooth="yes"/>
			<point x="880" y="873"/>
			<point x="881" y="889"/>
			<point x="881" y="899" type="curve" smooth="yes"/>
			<point x="881" y="922"/>
			<point x="867" y="935"/>
			<point x="841" y="935" type="curve" smooth="yes"/>
			<point x="816" y="935"/>
			<point x="801" y="923"/>
			<point x="798" y="891" type="curve" smooth="yes"/>
			<point x="794" y="840" type="line"/>
			<point x="707" y="268"/>
			<point x="561" y="66"/>
			<point x="404" y="66" type="curve" smooth="yes"/>
			<point x="293" y="66"/>
			<point x="245" y="135"/>
			<point x="245" y="256" type="curve" smooth="yes"/>
			<point x="245" y="294"/>
			<point x="248" y="364"/>
			<point x="256" y="446" type="curve" smooth="yes"/>
			<point x="298" y="888" type="line" smooth="yes"/>
			<point x="298" y="891"/>
			<point x="298" y="894"/>
			<point x="298" y="897" type="curve" smooth="yes"/>
			<point x="298" y="921"/>
			<point x="286" y="935"/>
			<point x="258" y="935" type="curve" smooth="yes"/>
			<point x="233" y="935"/>
			<point x="216" y="923"/>
			<point x="213" y="890" type="curve" smooth="yes"/>
			<point x="172" y="451" type="line" smooth="yes"/>
			<point x="162" y="343"/>
			<point x="160" y="288"/>
			<point x="160" y="256" type="curve" smooth="yes"/>
			<point x="160" y="79"/>
			<point x="243" y="-12"/>
		</contour>
	</outline>
</glyph>
<glyph name="v" format="2">
	<unicode hex="0076"/>
	<advance width="882"/>
	<outline>
		<contour>
			<point x="388" y="-12" type="curve" smooth="yes"/>
			<point x="432" y="-12"/>
			<point x="450" y="1"/>
			<point x="473" y="54" type="curve" smooth="yes"/>
			<point x="818" y="849" type="line" smooth="yes"/>
			<point x="830" y="877"/>
			<point x="832" y="886"/>
			<point x="832" y="897" type="curve" smooth="yes"/>
			<point x="832" y="923"/>
			<point x="811" y="935"/>
			<point x="790" y="935" type="curve" smooth="yes"/>
			<point x="772" y="935"/>
			<point x="760" y="926"/>
			<point x="746" y="892" type="curve" smooth="yes"/>
			<point x="442" y="178" type="line"/>
			<point x="404" y="78" type="line"/>
			<point x="379" y="176" type="line"/>
			<point x="199" y="891" type="line" smooth="yes"/>
			<point x="190" y="925"/>
			<point x="177" y="935"/>
			<point x="159" y="935" type="curve" smooth="yes"/>
			<point x="136" y="935"/>
			<point x="110" y="923"/>
			<point x="110" y="893" type="curve" smooth="yes"/>
			<point x="110" y="884"/>
			<point x="112" y="874"/>
			<point x="118" y="851" type="curve" smooth="yes"/>
			<point x="328" y="43" type="line" smooth="yes"/>
			<point x="338" y="3"/>
			<point x="357" y="-12"/>
		</contour>
	</outline>
</glyph>
<glyph name="w" format="2">
	<advance width="1458"/>
	<unicode hex="0077"/>
	<anchor x="732" y="0" name="bottom"/>
	<anchor x="766" y="910" name="top"/>
	<outline>
		<contour>
			<point x="373" y="-12" type="curve" smooth="yes"/>
			<point x="417" y="-12"/>
			<point x="434" y="1"/>
			<point x="456" y="54" type="curve" smooth="yes"/>
			<point x="720" y="701" type="line"/>
			<point x="754" y="793" type="line"/>
			<point x="770" y="707" type="line"/>
			<point x="913" y="73" type="line" smooth="yes"/>
			<point x="928" y="5"/>
			<point x="945" y="-12"/>
			<point x="982" y="-12" type="curve" smooth="yes"/>
			<point x="1026" y="-12"/>
			<point x="1045" y="1"/>
			<point x="1067" y="54" type="curve" smooth="yes"/>
			<point x="1394" y="851" type="line" smooth="yes"/>
			<point x="1405" y="879"/>
			<point x="1408" y="888"/>
			<point x="1408" y="899" type="curve" smooth="yes"/>
			<point x="1408" y="924"/>
			<point x="1390" y="935"/>
			<point x="1368" y="935" type="curve" smooth="yes"/>
			<point x="1350" y="935"/>
			<point x="1338" y="926"/>
			<point x="1324" y="892" type="curve" smooth="yes"/>
			<point x="1036" y="177" type="line"/>
			<point x="1000" y="77" type="line"/>
			<point x="977" y="178" type="line"/>
			<point x="815" y="876" type="line" smooth="yes"/>
			<point x="806" y="913"/>
			<point x="793" y="922"/>
			<point x="768" y="922" type="curve" smooth="yes"/>
			<point x="748" y="922"/>
			<point x="730" y="918"/>
			<point x="708" y="865" type="curve" smooth="yes"/>
			<point x="427" y="176" type="line"/>
			<point x="391" y="77" type="line"/>
			<point x="367" y="177" type="line"/>
			<point x="199" y="891" type="line" smooth="yes"/>
			<point x="191" y="925"/>
			<point x="177" y="935"/>
			<point x="159" y="935" type="curve" smooth="yes"/>
			<point x="137" y="935"/>
			<point x="110" y="923"/>
			<point x="110" y="893" type="curve" smooth="yes"/>
			<point x="110" y="884"/>
			<point x="112" y="874"/>
			<point x="117" y="851" type="curve" smooth="yes"/>
			<point x="295" y="110" type="line" smooth="yes"/>
			<point x="320" y="4"/>
			<point x="330" y="-12"/>
		</contour>
	</outline>
</glyph>
<glyph name="x" format="2">
	<unicode hex="0078"/>
	<advance width="946"/>
	<outline>
		<contour>
			<point x="106" y="-12" type="curve" smooth="yes"/>
			<point x="130" y="-12"/>
			<point x="141" y="-1"/>
			<point x="163" y="26" type="curve" smooth="yes"/>
			<point x="476" y="408" type="line"/>
			<point x="736" y="27" type="line" smooth="yes"/>
			<point x="757" y="-4"/>
			<point x="771" y="-12"/>
			<point x="786" y="-12" type="curve" smooth="yes"/>
			<point x="807" y="-12"/>
			<point x="826" y="8"/>
			<point x="826" y="30" type="curve" smooth="yes"/>
			<point x="826" y="43"/>
			<point x="822" y="50"/>
			<point x="803" y="78" type="curve" smooth="yes"/>
			<point x="534" y="474" type="line"/>
			<point x="857" y="863" type="line" smooth="yes"/>
			<point x="872" y="882"/>
			<point x="876" y="891"/>
			<point x="876" y="898" type="curve" smooth="yes"/>
			<point x="876" y="919"/>
			<point x="858" y="935"/>
			<point x="836" y="935" type="curve" smooth="yes"/>
			<point x="822" y="935"/>
			<point x="814" y="930"/>
			<point x="799" y="912" type="curve" smooth="yes"/>
			<point x="491" y="537" type="line"/>
			<point x="241" y="904" type="line" smooth="yes"/>
			<point x="224" y="928"/>
			<point x="214" y="935"/>
			<point x="200" y="935" type="curve" smooth="yes"/>
			<point x="181" y="935"/>
			<point x="154" y="917"/>
			<point x="154" y="894" type="curve" smooth="yes"/>
			<point x="154" y="882"/>
			<point x="162" y="869"/>
			<point x="175" y="850" type="curve" smooth="yes"/>
			<point x="432" y="473" type="line"/>
			<point x="91" y="67" type="line" smooth="yes"/>
			<point x="73" y="46"/>
			<point x="70" y="38"/>
			<point x="70" y="23" type="curve" smooth="yes"/>
			<point x="70" y="5"/>
			<point x="91" y="-12"/>
		</contour>
	</outline>
</glyph>
<glyph name="y" format="2">
	<unicode hex="0079"/>
	<advance width="916"/>
	<outline>
		<contour>
			<point x="125" y="-670" type="curve" smooth="yes"/>
			<point x="159" y="-670"/>
			<point x="167" y="-659"/>
			<point x="255" y="-469" type="curve" smooth="yes"/>
			<point x="845" y="802" type="line" smooth="yes"/>
			<point x="882" y="881"/>
			<point x="886" y="890"/>
			<point x="886" y="902" type="curve" smooth="yes"/>
			<point x="886" y="920"/>
			<point x="857" y="935"/>
			<point x="834" y="935" type="curve" smooth="yes"/>
			<point x="818" y="935"/>
			<point x="811" y="927"/>
			<point x="795" y="893" type="curve" smooth="yes"/>
			<point x="431" y="106" type="line"/>
			<point x="182" y="891" type="line" smooth="yes"/>
			<point x="171" y="925"/>
			<point x="161" y="935"/>
			<point x="142" y="935" type="curve" smooth="yes"/>
			<point x="119" y="935"/>
			<point x="91" y="925"/>
			<point x="91" y="899" type="curve" smooth="yes"/>
			<point x="91" y="889"/>
			<point x="94" y="874"/>
			<point x="102" y="849" type="curve" smooth="yes"/>
			<point x="344" y="100" type="line" smooth="yes"/>
			<point x="362" y="45"/>
			<point x="372" y="20"/>
			<point x="387" y="9" type="curve"/>
			<point x="185" y="-427" type="line" smooth="yes"/>
			<point x="148" y="-508"/>
			<point x="120" y="-557"/>
			<point x="102" y="-587" type="curve" smooth="yes"/>
			<point x="87" y="-612"/>
			<point x="80" y="-625"/>
			<point x="80" y="-635" type="curve" smooth="yes"/>
			<point x="80" y="-653"/>
			<point x="97" y="-670"/>
		</contour>
	</outline>
	<anchor name="top" x="495" y="910"/>
	<anchor name="topright" x="882" y="910"/>
</glyph>
<glyph name="z" format="2">
	<advance width="875"/>
	<unicode hex="007A"/>
	<anchor x="247" y="0" name="bottom"/>
	<anchor x="480" y="910" name="top"/>
	<outline>
		<contour>
			<point x="133" y="0" type="curve" smooth="yes"/>
			<point x="731" y="0" type="line" smooth="yes"/>
			<point x="757" y="0"/>
			<point x="776" y="11"/>
			<point x="776" y="41" type="curve" smooth="yes"/>
			<point x="776" y="64"/>
			<point x="762" y="75"/>
			<point x="736" y="75" type="curve" smooth="yes"/>
			<point x="170" y="75" type="line"/>
			<point x="784" y="795" type="line" smooth="yes"/>
			<point x="805" y="820"/>
			<point x="815" y="840"/>
			<point x="815" y="859" type="curve" smooth="yes"/>
			<point x="815" y="886"/>
			<point x="802" y="910"/>
			<point x="746" y="910" type="curve" smooth="yes"/>
			<point x="206" y="910" type="line" smooth="yes"/>
			<point x="180" y="910"/>
			<point x="161" y="899"/>
			<point x="161" y="870" type="curve" smooth="yes"/>
			<point x="161" y="846"/>
			<point x="175" y="835"/>
			<point x="201" y="835" type="curve" smooth="yes"/>
			<point x="726" y="835" type="line"/>
			<point x="108" y="119" type="line" smooth="yes"/>
			<point x="78" y="84"/>
			<point x="70" y="69"/>
			<point x="70" y="53" type="curve" smooth="yes"/>
			<point x="70" y="23"/>
			<point x="93" y="0"/>
		</contour>
	</outline>
</glyph>
<glyph name="braceleft" format="2">
	<unicode hex="007B"/>
	<advance width="785"/>
	<outline>
		<contour>
			<point x="517" y="-325" type="curve" smooth="yes"/>
			<point x="541" y="-325"/>
			<point x="551" y="-305"/>
			<point x="551" y="-287" type="curve" smooth="yes"/>
			<point x="551" y="-270"/>
			<point x="541" y="-259"/>
			<point x="520" y="-253" type="curve" smooth="yes"/>
			<point x="379" y="-214"/>
			<point x="312" y="-135"/>
			<point x="312" y="-25" type="curve" smooth="yes"/>
			<point x="312" y="51"/>
			<point x="332" y="140"/>
			<point x="353" y="231" type="curve" smooth="yes"/>
			<point x="374" y="323"/>
			<point x="395" y="417"/>
			<point x="395" y="498" type="curve" smooth="yes"/>
			<point x="395" y="571"/>
			<point x="364" y="637"/>
			<point x="295" y="669" type="curve"/>
			<point x="386" y="701"/>
			<point x="428" y="763"/>
			<point x="428" y="875" type="curve" smooth="yes"/>
			<point x="428" y="914"/>
			<point x="425" y="966"/>
			<point x="420" y="1026" type="curve" smooth="yes"/>
			<point x="414" y="1103"/>
			<point x="409" y="1188"/>
			<point x="409" y="1269" type="curve" smooth="yes"/>
			<point x="409" y="1439"/>
			<point x="486" y="1537"/>
			<point x="681" y="1550" type="curve" smooth="yes"/>
			<point x="725" y="1553"/>
			<point x="735" y="1573"/>
			<point x="735" y="1593" type="curve" smooth="yes"/>
			<point x="735" y="1610"/>
			<point x="728" y="1625"/>
			<point x="690" y="1625" type="curve" smooth="yes"/>
			<point x="463" y="1625"/>
			<point x="328" y="1475"/>
			<point x="328" y="1282" type="curve" smooth="yes"/>
			<point x="328" y="1182"/>
			<point x="333" y="1089"/>
			<point x="340" y="1009" type="curve" smooth="yes"/>
			<point x="345" y="950"/>
			<point x="348" y="898"/>
			<point x="348" y="857" type="curve" smooth="yes"/>
			<point x="348" y="763"/>
			<point x="295" y="716"/>
			<point x="213" y="716" type="curve" smooth="yes"/>
			<point x="185" y="716"/>
			<point x="167" y="716"/>
			<point x="149" y="716" type="curve" smooth="yes"/>
			<point x="124" y="716"/>
			<point x="100" y="703"/>
			<point x="100" y="674" type="curve" smooth="yes"/>
			<point x="100" y="649"/>
			<point x="121" y="637"/>
			<point x="160" y="635" type="curve" smooth="yes"/>
			<point x="275" y="630"/>
			<point x="315" y="590"/>
			<point x="315" y="493" type="curve" smooth="yes"/>
			<point x="315" y="419"/>
			<point x="295" y="330"/>
			<point x="274" y="241" type="curve" smooth="yes"/>
			<point x="253" y="151"/>
			<point x="232" y="60"/>
			<point x="232" y="-16" type="curve" smooth="yes"/>
			<point x="232" y="-146"/>
			<point x="288" y="-238"/>
			<point x="418" y="-299" type="curve" smooth="yes"/>
			<point x="460" y="-319"/>
			<point x="497" y="-325"/>
		</contour>
	</outline>
</glyph>
<glyph name="bar" format="2">
	<unicode hex="007C"/>
	<advance width="975"/>
	<outline>
		<contour>
			<point x="482" y="-535" type="curve" smooth="yes"/>
			<point x="505" y="-535"/>
			<point x="525" y="-520"/>
			<point x="525" y="-458" type="curve" smooth="yes"/>
			<point x="525" y="1854" type="line" smooth="yes"/>
			<point x="525" y="1888"/>
			<point x="513" y="1907"/>
			<point x="488" y="1907" type="curve" smooth="yes"/>
			<point x="466" y="1907"/>
			<point x="450" y="1897"/>
			<point x="450" y="1865" type="curve" smooth="yes"/>
			<point x="450" y="-492" type="line" smooth="yes"/>
			<point x="450" y="-520"/>
			<point x="458" y="-535"/>
		</contour>
	</outline>
</glyph>
<glyph name="braceright" format="2">
	<unicode hex="007D"/>
	<advance width="785"/>
	<outline>
		<contour>
			<point x="95" y="-309" type="curve" smooth="yes"/>
			<point x="322" y="-309"/>
			<point x="457" y="-159"/>
			<point x="457" y="34" type="curve" smooth="yes"/>
			<point x="457" y="134"/>
			<point x="452" y="227"/>
			<point x="445" y="307" type="curve" smooth="yes"/>
			<point x="440" y="366"/>
			<point x="437" y="418"/>
			<point x="437" y="459" type="curve" smooth="yes"/>
			<point x="437" y="553"/>
			<point x="490" y="600"/>
			<point x="572" y="600" type="curve" smooth="yes"/>
			<point x="600" y="600"/>
			<point x="618" y="600"/>
			<point x="636" y="600" type="curve" smooth="yes"/>
			<point x="661" y="600"/>
			<point x="685" y="613"/>
			<point x="685" y="642" type="curve" smooth="yes"/>
			<point x="685" y="667"/>
			<point x="664" y="679"/>
			<point x="625" y="681" type="curve" smooth="yes"/>
			<point x="510" y="686"/>
			<point x="470" y="726"/>
			<point x="470" y="823" type="curve" smooth="yes"/>
			<point x="470" y="897"/>
			<point x="490" y="986"/>
			<point x="511" y="1075" type="curve" smooth="yes"/>
			<point x="532" y="1165"/>
			<point x="553" y="1256"/>
			<point x="553" y="1332" type="curve" smooth="yes"/>
			<point x="553" y="1462"/>
			<point x="497" y="1554"/>
			<point x="367" y="1615" type="curve" smooth="yes"/>
			<point x="325" y="1635"/>
			<point x="288" y="1641"/>
			<point x="268" y="1641" type="curve" smooth="yes"/>
			<point x="244" y="1641"/>
			<point x="234" y="1621"/>
			<point x="234" y="1603" type="curve" smooth="yes"/>
			<point x="234" y="1586"/>
			<point x="244" y="1575"/>
			<point x="265" y="1569" type="curve" smooth="yes"/>
			<point x="406" y="1530"/>
			<point x="473" y="1451"/>
			<point x="473" y="1341" type="curve" smooth="yes"/>
			<point x="473" y="1265"/>
			<point x="453" y="1176"/>
			<point x="432" y="1085" type="curve" smooth="yes"/>
			<point x="411" y="993"/>
			<point x="390" y="899"/>
			<point x="390" y="818" type="curve" smooth="yes"/>
			<point x="390" y="745"/>
			<point x="421" y="679"/>
			<point x="490" y="647" type="curve"/>
			<point x="399" y="615"/>
			<point x="357" y="553"/>
			<point x="357" y="441" type="curve" smooth="yes"/>
			<point x="357" y="402"/>
			<point x="360" y="350"/>
			<point x="365" y="290" type="curve" smooth="yes"/>
			<point x="371" y="214"/>
			<point x="376" y="128"/>
			<point x="376" y="47" type="curve" smooth="yes"/>
			<point x="376" y="-123"/>
			<point x="299" y="-221"/>
			<point x="104" y="-234" type="curve" smooth="yes"/>
			<point x="60" y="-237"/>
			<point x="50" y="-257"/>
			<point x="50" y="-277" type="curve" smooth="yes"/>
			<point x="50" y="-294"/>
			<point x="57" y="-309"/>
		</contour>
	</outline>
</glyph>
<glyph name="exclamdown" format="2">
	<advance width="726"/>
	<unicode hex="00A1"/>
	<outline>
		<contour>
			<point x="292" y="-677" type="curve" smooth="yes"/>
			<point x="316" y="-677"/>
			<point x="334" y="-668"/>
			<point x="337" y="-623" type="curve" smooth="yes"/>
			<point x="409" y="480" type="line" smooth="yes"/>
			<point x="409" y="482"/>
			<point x="409" y="484"/>
			<point x="409" y="486" type="curve" smooth="yes"/>
			<point x="409" y="514"/>
			<point x="396" y="527"/>
			<point x="370" y="527" type="curve" smooth="yes"/>
			<point x="345" y="527"/>
			<point x="327" y="514"/>
			<point x="325" y="482" type="curve" smooth="yes"/>
			<point x="251" y="-606" type="line" smooth="yes"/>
			<point x="250" y="-621"/>
			<point x="250" y="-626"/>
			<point x="250" y="-631" type="curve" smooth="yes"/>
			<point x="250" y="-665"/>
			<point x="263" y="-677"/>
		</contour>
		<contour>
			<point x="378" y="746" type="curve" smooth="yes"/>
			<point x="428" y="746"/>
			<point x="476" y="793"/>
			<point x="476" y="849" type="curve" smooth="yes"/>
			<point x="476" y="898"/>
			<point x="440" y="935"/>
			<point x="389" y="935" type="curve" smooth="yes"/>
			<point x="340" y="935"/>
			<point x="297" y="892"/>
			<point x="297" y="836" type="curve" smooth="yes"/>
			<point x="297" y="780"/>
			<point x="333" y="746"/>
		</contour>
	</outline>
</glyph>
<glyph name="cent" format="2">
	<advance width="1200"/>
	<unicode hex="00A2"/>
	<outline>
		<contour>
			<point x="603" y="314" type="curve" smooth="yes"/>
			<point x="737" y="314"/>
			<point x="845" y="373"/>
			<point x="913" y="446" type="curve" smooth="yes"/>
			<point x="941" y="477"/>
			<point x="945" y="492"/>
			<point x="945" y="504" type="curve" smooth="yes"/>
			<point x="945" y="518"/>
			<point x="930" y="530"/>
			<point x="914" y="530" type="curve" smooth="yes"/>
			<point x="902" y="530"/>
			<point x="893" y="522"/>
			<point x="873" y="502" type="curve" smooth="yes"/>
			<point x="807" y="435"/>
			<point x="720" y="389"/>
			<point x="611" y="389" type="curve" smooth="yes"/>
			<point x="422" y="389"/>
			<point x="304" y="528"/>
			<point x="304" y="757" type="curve" smooth="yes"/>
			<point x="304" y="997"/>
			<point x="452" y="1224"/>
			<point x="669" y="1224" type="curve" smooth="yes"/>
			<point x="747" y="1224"/>
			<point x="809" y="1194"/>
			<point x="869" y="1139" type="curve" smooth="yes"/>
			<point x="888" y="1121"/>
			<point x="901" y="1114"/>
			<point x="910" y="1114" type="curve" smooth="yes"/>
			<point x="926" y="1114"/>
			<point x="941" y="1127"/>
			<point x="941" y="1144" type="curve" smooth="yes"/>
			<point x="941" y="1156"/>
			<point x="935" y="1171"/>
			<point x="908" y="1200" type="curve" smooth="yes"/>
			<point x="851" y="1260"/>
			<point x="766" y="1299"/>
			<point x="674" y="1299" type="curve" smooth="yes"/>
			<point x="404" y="1299"/>
			<point x="224" y="1039"/>
			<point x="224" y="760" type="curve" smooth="yes"/>
			<point x="224" y="494"/>
			<point x="382" y="314"/>
		</contour>
		<contour>
			<point x="532" y="120" type="curve" smooth="yes"/>
			<point x="548" y="120"/>
			<point x="563" y="131"/>
			<point x="565" y="147" type="curve" smooth="yes"/>
			<point x="752" y="1452" type="line" smooth="yes"/>
			<point x="754" y="1464"/>
			<point x="755" y="1472"/>
			<point x="755" y="1479" type="curve" smooth="yes"/>
			<point x="755" y="1494"/>
			<point x="741" y="1509"/>
			<point x="714" y="1509" type="curve" smooth="yes"/>
			<point x="695" y="1509"/>
			<point x="681" y="1498"/>
			<point x="678" y="1479" type="curve" smooth="yes"/>
			<point x="490" y="170" type="line" smooth="yes"/>
			<point x="489" y="165"/>
			<point x="488" y="157"/>
			<point x="488" y="150" type="curve" smooth="yes"/>
			<point x="488" y="134"/>
			<point x="504" y="120"/>
		</contour>
	</outline>
</glyph>
<glyph name="sterling" format="2">
	<unicode hex="00A3"/>
	<advance width="1200"/>
	<outline>
		<contour>
			<point x="152" y="-12" type="curve" smooth="yes"/>
			<point x="312" y="-12"/>
			<point x="398" y="154"/>
			<point x="438" y="826" type="curve" smooth="yes"/>
			<point x="471" y="1379"/>
			<point x="599" y="1525"/>
			<point x="771" y="1525" type="curve" smooth="yes"/>
			<point x="840" y="1525"/>
			<point x="889" y="1503"/>
			<point x="946" y="1461" type="curve" smooth="yes"/>
			<point x="971" y="1442"/>
			<point x="979" y="1437"/>
			<point x="992" y="1437" type="curve" smooth="yes"/>
			<point x="1007" y="1437"/>
			<point x="1018" y="1450"/>
			<point x="1018" y="1463" type="curve" smooth="yes"/>
			<point x="1018" y="1479"/>
			<point x="1006" y="1504"/>
			<point x="963" y="1537" type="curve" smooth="yes"/>
			<point x="912" y="1576"/>
			<point x="850" y="1600"/>
			<point x="768" y="1600" type="curve" smooth="yes"/>
			<point x="568" y="1600"/>
			<point x="397" y="1442"/>
			<point x="358" y="840" type="curve" smooth="yes"/>
			<point x="320" y="259"/>
			<point x="270" y="63"/>
			<point x="155" y="63" type="curve" smooth="yes"/>
			<point x="121" y="63"/>
			<point x="101" y="80"/>
			<point x="101" y="107" type="curve" smooth="yes"/>
			<point x="101" y="140"/>
			<point x="135" y="167"/>
			<point x="192" y="167" type="curve" smooth="yes"/>
			<point x="269" y="167"/>
			<point x="347" y="132"/>
			<point x="431" y="90" type="curve" smooth="yes"/>
			<point x="532" y="40"/>
			<point x="644" y="-12"/>
			<point x="778" y="-12" type="curve" smooth="yes"/>
			<point x="957" y="-12"/>
			<point x="1060" y="81"/>
			<point x="1112" y="185" type="curve" smooth="yes"/>
			<point x="1130" y="222"/>
			<point x="1135" y="240"/>
			<point x="1135" y="254" type="curve" smooth="yes"/>
			<point x="1135" y="273"/>
			<point x="1117" y="279"/>
			<point x="1104" y="279" type="curve" smooth="yes"/>
			<point x="1089" y="279"/>
			<point x="1081" y="266"/>
			<point x="1065" y="234" type="curve" smooth="yes"/>
			<point x="1011" y="128"/>
			<point x="927" y="63"/>
			<point x="783" y="63" type="curve" smooth="yes"/>
			<point x="657" y="63"/>
			<point x="551" y="112"/>
			<point x="452" y="159" type="curve" smooth="yes"/>
			<point x="364" y="201"/>
			<point x="281" y="239"/>
			<point x="194" y="239" type="curve" smooth="yes"/>
			<point x="88" y="239"/>
			<point x="25" y="176"/>
			<point x="25" y="103" type="curve" smooth="yes"/>
			<point x="25" y="36"/>
			<point x="78" y="-12"/>
		</contour>
		<contour>
			<point x="153" y="760" type="curve" smooth="yes"/>
			<point x="858" y="760" type="line" smooth="yes"/>
			<point x="884" y="760"/>
			<point x="903" y="771"/>
			<point x="903" y="801" type="curve" smooth="yes"/>
			<point x="903" y="824"/>
			<point x="889" y="835"/>
			<point x="863" y="835" type="curve" smooth="yes"/>
			<point x="158" y="835" type="line" smooth="yes"/>
			<point x="132" y="835"/>
			<point x="113" y="824"/>
			<point x="113" y="795" type="curve" smooth="yes"/>
			<point x="113" y="771"/>
			<point x="127" y="760"/>
		</contour>
	</outline>
</glyph>
<glyph name="brokenbar" format="2">
	<unicode hex="00A6"/>
	<advance width="975"/>
	<outline>
		<contour>
			<point x="482" y="1009" type="curve" smooth="yes"/>
			<point x="505" y="1009"/>
			<point x="525" y="1024"/>
			<point x="525" y="1086" type="curve" smooth="yes"/>
			<point x="525" y="1854" type="line" smooth="yes"/>
			<point x="525" y="1888"/>
			<point x="513" y="1907"/>
			<point x="488" y="1907" type="curve" smooth="yes"/>
			<point x="466" y="1907"/>
			<point x="450" y="1897"/>
			<point x="450" y="1865" type="curve" smooth="yes"/>
			<point x="450" y="1052" type="line" smooth="yes"/>
			<point x="450" y="1024"/>
			<point x="458" y="1009"/>
		</contour>
		<contour>
			<point x="482" y="-535" type="curve" smooth="yes"/>
			<point x="505" y="-535"/>
			<point x="525" y="-520"/>
			<point x="525" y="-458" type="curve" smooth="yes"/>
			<point x="525" y="310" type="line" smooth="yes"/>
			<point x="525" y="344"/>
			<point x="513" y="363"/>
			<point x="488" y="363" type="curve" smooth="yes"/>
			<point x="466" y="363"/>
			<point x="450" y="353"/>
			<point x="450" y="321" type="curve" smooth="yes"/>
			<point x="450" y="-492" type="line" smooth="yes"/>
			<point x="450" y="-520"/>
			<point x="458" y="-535"/>
		</contour>
	</outline>
</glyph>
<glyph name="section" format="2">
	<unicode hex="00A7"/>
	<advance width="1140"/>
	<outline>
		<contour>
			<point x="430" y="-510" type="curve" smooth="yes"/>
			<point x="635" y="-510"/>
			<point x="772" y="-366"/>
			<point x="772" y="-179" type="curve" smooth="yes"/>
			<point x="772" y="-100"/>
			<point x="748" y="-27"/>
			<point x="675" y="59" type="curve"/>
			<point x="864" y="154"/>
			<point x="977" y="283"/>
			<point x="977" y="485" type="curve" smooth="yes"/>
			<point x="977" y="640"/>
			<point x="912" y="769"/>
			<point x="680" y="960" type="curve" smooth="yes"/>
			<point x="493" y="1114"/>
			<point x="451" y="1189"/>
			<point x="451" y="1285" type="curve" smooth="yes"/>
			<point x="451" y="1447"/>
			<point x="569" y="1536"/>
			<point x="721" y="1536" type="curve" smooth="yes"/>
			<point x="796" y="1536"/>
			<point x="867" y="1515"/>
			<point x="938" y="1471" type="curve" smooth="yes"/>
			<point x="959" y="1458"/>
			<point x="969" y="1453"/>
			<point x="980" y="1453" type="curve" smooth="yes"/>
			<point x="999" y="1453"/>
			<point x="1010" y="1473"/>
			<point x="1010" y="1484" type="curve" smooth="yes"/>
			<point x="1010" y="1499"/>
			<point x="992" y="1522"/>
			<point x="951" y="1548" type="curve" smooth="yes"/>
			<point x="884" y="1590"/>
			<point x="793" y="1614"/>
			<point x="710" y="1614" type="curve" smooth="yes"/>
			<point x="505" y="1614"/>
			<point x="368" y="1470"/>
			<point x="368" y="1283" type="curve" smooth="yes"/>
			<point x="368" y="1204"/>
			<point x="392" y="1131"/>
			<point x="465" y="1045" type="curve"/>
			<point x="276" y="950"/>
			<point x="163" y="821"/>
			<point x="163" y="619" type="curve" smooth="yes"/>
			<point x="163" y="464"/>
			<point x="228" y="335"/>
			<point x="460" y="144" type="curve" smooth="yes"/>
			<point x="647" y="-10"/>
			<point x="689" y="-85"/>
			<point x="689" y="-181" type="curve" smooth="yes"/>
			<point x="689" y="-343"/>
			<point x="571" y="-432"/>
			<point x="419" y="-432" type="curve" smooth="yes"/>
			<point x="344" y="-432"/>
			<point x="272" y="-410"/>
			<point x="202" y="-367" type="curve" smooth="yes"/>
			<point x="181" y="-354"/>
			<point x="171" y="-349"/>
			<point x="160" y="-349" type="curve" smooth="yes"/>
			<point x="141" y="-349"/>
			<point x="130" y="-369"/>
			<point x="130" y="-380" type="curve" smooth="yes"/>
			<point x="130" y="-395"/>
			<point x="148" y="-418"/>
			<point x="189" y="-444" type="curve" smooth="yes"/>
			<point x="256" y="-486"/>
			<point x="347" y="-510"/>
		</contour>
		<contour>
			<point x="246" y="628" type="curve" smooth="yes"/>
			<point x="246" y="792"/>
			<point x="329" y="896"/>
			<point x="517" y="990" type="curve"/>
			<point x="546" y="961"/>
			<point x="580" y="930"/>
			<point x="621" y="897" type="curve" smooth="yes"/>
			<point x="841" y="718"/>
			<point x="894" y="607"/>
			<point x="894" y="476" type="curve" smooth="yes"/>
			<point x="894" y="312"/>
			<point x="811" y="208"/>
			<point x="623" y="114" type="curve"/>
			<point x="594" y="143"/>
			<point x="560" y="174"/>
			<point x="519" y="207" type="curve" smooth="yes"/>
			<point x="299" y="386"/>
			<point x="246" y="497"/>
		</contour>
	</outline>
	<anchor name="bottom" x="639" y="0"/>
</glyph>
<glyph name="copyright" format="2">
	<unicode hex="00A9"/>
	<advance width="2173"/>
	<outline>
		<contour>
			<point x="1012" y="-222" type="curve" smooth="yes"/>
			<point x="1609" y="-222"/>
			<point x="2043" y="200"/>
			<point x="2043" y="850" type="curve" smooth="yes"/>
			<point x="2043" y="1417"/>
			<point x="1713" y="1778"/>
			<point x="1161" y="1778" type="curve" smooth="yes"/>
			<point x="564" y="1778"/>
			<point x="130" y="1357"/>
			<point x="130" y="707" type="curve" smooth="yes"/>
			<point x="130" y="140"/>
			<point x="460" y="-222"/>
		</contour>
		<contour>
			<point x="1038" y="123" type="curve" smooth="yes"/>
			<point x="1206" y="123"/>
			<point x="1344" y="180"/>
			<point x="1450" y="286" type="curve" smooth="yes"/>
			<point x="1483" y="319"/>
			<point x="1490" y="333"/>
			<point x="1490" y="346" type="curve" smooth="yes"/>
			<point x="1490" y="364"/>
			<point x="1472" y="376"/>
			<point x="1458" y="376" type="curve" smooth="yes"/>
			<point x="1445" y="376"/>
			<point x="1429" y="362"/>
			<point x="1412" y="347" type="curve" smooth="yes"/>
			<point x="1299" y="244"/>
			<point x="1185" y="198"/>
			<point x="1048" y="198" type="curve" smooth="yes"/>
			<point x="780" y="198"/>
			<point x="634" y="385"/>
			<point x="634" y="700" type="curve" smooth="yes"/>
			<point x="634" y="1092"/>
			<point x="849" y="1358"/>
			<point x="1131" y="1358" type="curve" smooth="yes"/>
			<point x="1229" y="1358"/>
			<point x="1305" y="1324"/>
			<point x="1383" y="1266" type="curve" smooth="yes"/>
			<point x="1403" y="1251"/>
			<point x="1414" y="1243"/>
			<point x="1426" y="1243" type="curve" smooth="yes"/>
			<point x="1444" y="1243"/>
			<point x="1456" y="1259"/>
			<point x="1456" y="1275" type="curve" smooth="yes"/>
			<point x="1456" y="1293"/>
			<point x="1440" y="1312"/>
			<point x="1402" y="1341" type="curve" smooth="yes"/>
			<point x="1324" y="1401"/>
			<point x="1233" y="1433"/>
			<point x="1123" y="1433" type="curve" smooth="yes"/>
			<point x="805" y="1433"/>
			<point x="554" y="1137"/>
			<point x="554" y="707" type="curve" smooth="yes"/>
			<point x="554" y="345"/>
			<point x="731" y="123"/>
		</contour>
		<contour>
			<point x="1015" y="-147" type="curve" smooth="yes"/>
			<point x="507" y="-147"/>
			<point x="209" y="185"/>
			<point x="209" y="710" type="curve" smooth="yes"/>
			<point x="209" y="1330"/>
			<point x="626" y="1703"/>
			<point x="1166" y="1703" type="curve" smooth="yes"/>
			<point x="1673" y="1703"/>
			<point x="1964" y="1375"/>
			<point x="1964" y="851" type="curve" smooth="yes"/>
			<point x="1964" y="233"/>
			<point x="1558" y="-147"/>
		</contour>
	</outline>
</glyph>
<glyph name="degree" format="2">
	<advance width="941"/>
	<unicode hex="00B0"/>
	<outline>
		<contour>
			<point x="469" y="1053" type="curve" smooth="yes"/>
			<point x="649" y="1053"/>
			<point x="791" y="1189"/>
			<point x="791" y="1367" type="curve" smooth="yes"/>
			<point x="791" y="1520"/>
			<point x="687" y="1627"/>
			<point x="526" y="1627" type="curve" smooth="yes"/>
			<point x="342" y="1627"/>
			<point x="200" y="1491"/>
			<point x="200" y="1313" type="curve" smooth="yes"/>
			<point x="200" y="1160"/>
			<point x="304" y="1053"/>
		</contour>
		<contour>
			<point x="472" y="1128" type="curve" smooth="yes"/>
			<point x="353" y="1128"/>
			<point x="278" y="1201"/>
			<point x="278" y="1320" type="curve" smooth="yes"/>
			<point x="278" y="1460"/>
			<point x="388" y="1552"/>
			<point x="519" y="1552" type="curve" smooth="yes"/>
			<point x="636" y="1552"/>
			<point x="713" y="1479"/>
			<point x="713" y="1360" type="curve" smooth="yes"/>
			<point x="713" y="1220"/>
			<point x="603" y="1128"/>
		</contour>
	</outline>
</glyph>
<glyph name="paragraph" format="2">
	<advance width="1279"/>
	<unicode hex="00B6"/>
	<outline>
		<contour>
			<point x="496" y="-510" type="curve" smooth="yes"/>
			<point x="540" y="-510"/>
			<point x="578" y="-504"/>
			<point x="610" y="-490" type="curve"/>
			<point x="642" y="-503"/>
			<point x="680" y="-510"/>
			<point x="715" y="-510" type="curve" smooth="yes"/>
			<point x="867" y="-510"/>
			<point x="950" y="-419"/>
			<point x="968" y="-156" type="curve" smooth="yes"/>
			<point x="1086" y="1579" type="line" smooth="yes"/>
			<point x="1088" y="1602"/>
			<point x="1089" y="1618"/>
			<point x="1089" y="1627" type="curve" smooth="yes"/>
			<point x="1089" y="1648"/>
			<point x="1078" y="1665"/>
			<point x="1048" y="1665" type="curve" smooth="yes"/>
			<point x="1022" y="1665"/>
			<point x="1009" y="1652"/>
			<point x="1005" y="1600" type="curve" smooth="yes"/>
			<point x="1002" y="1560" type="line"/>
			<point x="932" y="1582"/>
			<point x="851" y="1594"/>
			<point x="780" y="1594" type="curve" smooth="yes"/>
			<point x="416" y="1594"/>
			<point x="180" y="1334"/>
			<point x="180" y="1019" type="curve" smooth="yes"/>
			<point x="180" y="696"/>
			<point x="395" y="492"/>
			<point x="729" y="472" type="curve"/>
			<point x="687" y="-118" type="line" smooth="yes"/>
			<point x="669" y="-368"/>
			<point x="634" y="-435"/>
			<point x="502" y="-435" type="curve" smooth="yes"/>
			<point x="418" y="-435"/>
			<point x="332" y="-400"/>
			<point x="272" y="-345" type="curve" smooth="yes"/>
			<point x="257" y="-332"/>
			<point x="251" y="-329"/>
			<point x="243" y="-329" type="curve" smooth="yes"/>
			<point x="229" y="-329"/>
			<point x="208" y="-345"/>
			<point x="208" y="-366" type="curve" smooth="yes"/>
			<point x="208" y="-379"/>
			<point x="218" y="-392"/>
			<point x="230" y="-405" type="curve" smooth="yes"/>
			<point x="282" y="-462"/>
			<point x="394" y="-510"/>
		</contour>
		<contour>
			<point x="265" y="1016" type="curve" smooth="yes"/>
			<point x="265" y="1295"/>
			<point x="474" y="1516"/>
			<point x="786" y="1516" type="curve" smooth="yes"/>
			<point x="803" y="1516" type="line"/>
			<point x="734" y="550" type="line"/>
			<point x="446" y="566"/>
			<point x="265" y="731"/>
		</contour>
		<contour>
			<point x="687" y="-432" type="curve"/>
			<point x="733" y="-376"/>
			<point x="758" y="-285"/>
			<point x="767" y="-156" type="curve" smooth="yes"/>
			<point x="812" y="472" type="line"/>
			<point x="850" y="474"/>
			<point x="892" y="480"/>
			<point x="930" y="487" type="curve"/>
			<point x="888" y="-132" type="line" smooth="yes"/>
			<point x="872" y="-370"/>
			<point x="821" y="-435"/>
			<point x="715" y="-435" type="curve" smooth="yes"/>
			<point x="706" y="-435"/>
			<point x="697" y="-434"/>
		</contour>
		<contour>
			<point x="817" y="550" type="curve"/>
			<point x="885" y="1507" type="line"/>
			<point x="925" y="1501"/>
			<point x="965" y="1492"/>
			<point x="997" y="1482" type="curve"/>
			<point x="935" y="566" type="line"/>
			<point x="900" y="559"/>
			<point x="858" y="552"/>
		</contour>
	</outline>
</glyph>
<glyph name="questiondown" format="2">
	<advance width="925"/>
	<unicode hex="00BF"/>
	<outline>
		<contour>
			<point x="539" y="746" type="curve" smooth="yes"/>
			<point x="589" y="746"/>
			<point x="637" y="793"/>
			<point x="637" y="849" type="curve" smooth="yes"/>
			<point x="637" y="898"/>
			<point x="601" y="935"/>
			<point x="550" y="935" type="curve" smooth="yes"/>
			<point x="501" y="935"/>
			<point x="458" y="892"/>
			<point x="458" y="836" type="curve" smooth="yes"/>
			<point x="458" y="780"/>
			<point x="494" y="746"/>
		</contour>
		<contour>
			<point x="509" y="524" type="curve" smooth="yes"/>
			<point x="410" y="524"/>
			<point x="326" y="483"/>
			<point x="277" y="424" type="curve" smooth="yes"/>
			<point x="261" y="405"/>
			<point x="258" y="391"/>
			<point x="258" y="381" type="curve" smooth="yes"/>
			<point x="258" y="366"/>
			<point x="271" y="356"/>
			<point x="285" y="356" type="curve" smooth="yes"/>
			<point x="297" y="356"/>
			<point x="306" y="362"/>
			<point x="323" y="377" type="curve" smooth="yes"/>
			<point x="362" y="412"/>
			<point x="414" y="450"/>
			<point x="495" y="450" type="curve" smooth="yes"/>
			<point x="599" y="450"/>
			<point x="647" y="397"/>
			<point x="647" y="305" type="curve" smooth="yes"/>
			<point x="647" y="168"/>
			<point x="533" y="79"/>
			<point x="410" y="-22" type="curve" smooth="yes"/>
			<point x="274" y="-133"/>
			<point x="130" y="-255"/>
			<point x="130" y="-437" type="curve" smooth="yes"/>
			<point x="130" y="-603"/>
			<point x="250" y="-698"/>
			<point x="407" y="-698" type="curve" smooth="yes"/>
			<point x="522" y="-698"/>
			<point x="643" y="-657"/>
			<point x="750" y="-567" type="curve" smooth="yes"/>
			<point x="786" y="-537"/>
			<point x="795" y="-522"/>
			<point x="795" y="-508" type="curve" smooth="yes"/>
			<point x="795" y="-489"/>
			<point x="780" y="-474"/>
			<point x="761" y="-474" type="curve" smooth="yes"/>
			<point x="749" y="-474"/>
			<point x="741" y="-480"/>
			<point x="718" y="-499" type="curve" smooth="yes"/>
			<point x="611" y="-586"/>
			<point x="516" y="-620"/>
			<point x="420" y="-620" type="curve" smooth="yes"/>
			<point x="299" y="-620"/>
			<point x="210" y="-545"/>
			<point x="210" y="-427" type="curve" smooth="yes"/>
			<point x="210" y="-292"/>
			<point x="322" y="-199"/>
			<point x="450" y="-93" type="curve" smooth="yes"/>
			<point x="586" y="19"/>
			<point x="727" y="136"/>
			<point x="727" y="310" type="curve" smooth="yes"/>
			<point x="727" y="441"/>
			<point x="644" y="524"/>
		</contour>
	</outline>
</glyph>
<glyph name="AE" format="2">
	<advance width="1774"/>
	<unicode hex="00C6"/>
	<anchor x="-24" y="0" name="bottom"/>
	<anchor x="702" y="0" name="ogonek"/>
	<anchor x="1079" y="1600" name="top"/>
	<anchor x="1010" y="1600" name="topleft"/>
	<outline>
		<contour>
			<point x="45" y="-12" type="curve" smooth="yes"/>
			<point x="60" y="-12"/>
			<point x="68" y="-4"/>
			<point x="81" y="17" type="curve" smooth="yes"/>
			<point x="544" y="759" type="line"/>
			<point x="902" y="759" type="line"/>
			<point x="855" y="70" type="line" smooth="yes"/>
			<point x="854" y="56"/>
			<point x="853" y="42"/>
			<point x="853" y="31" type="curve" smooth="yes"/>
			<point x="853" y="0"/>
			<point x="868" y="-12"/>
			<point x="891" y="-12" type="curve"/>
			<point x="1590" y="-5" type="line" smooth="yes"/>
			<point x="1630" y="-5"/>
			<point x="1643" y="11"/>
			<point x="1643" y="38" type="curve" smooth="yes"/>
			<point x="1643" y="58"/>
			<point x="1629" y="73"/>
			<point x="1600" y="73" type="curve" smooth="yes"/>
			<point x="1559" y="73"/>
			<point x="1159" y="68"/>
			<point x="939" y="65" type="curve"/>
			<point x="985" y="760" type="line"/>
			<point x="1472" y="763" type="line" smooth="yes"/>
			<point x="1513" y="763"/>
			<point x="1525" y="777"/>
			<point x="1525" y="806" type="curve" smooth="yes"/>
			<point x="1525" y="824"/>
			<point x="1512" y="842"/>
			<point x="1483" y="842" type="curve" smooth="yes"/>
			<point x="990" y="838" type="line"/>
			<point x="1035" y="1522" type="line"/>
			<point x="1651" y="1522" type="line" smooth="yes"/>
			<point x="1691" y="1522"/>
			<point x="1704" y="1538"/>
			<point x="1704" y="1565" type="curve" smooth="yes"/>
			<point x="1704" y="1585"/>
			<point x="1690" y="1600"/>
			<point x="1661" y="1600" type="curve" smooth="yes"/>
			<point x="1014" y="1600" type="line" smooth="yes"/>
			<point x="989" y="1600"/>
			<point x="977" y="1595"/>
			<point x="958" y="1565" type="curve" smooth="yes"/>
			<point x="17" y="67" type="line" smooth="yes"/>
			<point x="5" y="48"/>
			<point x="0" y="37"/>
			<point x="0" y="26" type="curve" smooth="yes"/>
			<point x="0" y="7"/>
			<point x="21" y="-12"/>
		</contour>
		<contour>
			<point x="591" y="835" type="line"/>
			<point x="892" y="1318" type="line"/>
			<point x="951" y="1416" type="line"/>
			<point x="935" y="1235" type="line"/>
			<point x="908" y="837" type="line"/>
		</contour>
	</outline>
</glyph>
<glyph name="multiply" format="2">
	<advance width="1200"/>
	<unicode hex="00D7"/>
	<outline>
		<contour>
			<point x="232" y="378" type="curve" smooth="yes"/>
			<point x="243" y="378"/>
			<point x="254" y="385"/>
			<point x="269" y="400" type="curve" smooth="yes"/>
			<point x="985" y="1111" type="line" smooth="yes"/>
			<point x="1001" y="1127"/>
			<point x="1007" y="1137"/>
			<point x="1007" y="1148" type="curve" smooth="yes"/>
			<point x="1007" y="1167"/>
			<point x="986" y="1187"/>
			<point x="968" y="1187" type="curve" smooth="yes"/>
			<point x="957" y="1187"/>
			<point x="946" y="1180"/>
			<point x="931" y="1165" type="curve" smooth="yes"/>
			<point x="215" y="454" type="line" smooth="yes"/>
			<point x="199" y="438"/>
			<point x="193" y="428"/>
			<point x="193" y="417" type="curve" smooth="yes"/>
			<point x="193" y="398"/>
			<point x="214" y="378"/>
		</contour>
		<contour>
			<point x="942" y="378" type="curve" smooth="yes"/>
			<point x="959" y="378"/>
			<point x="976" y="397"/>
			<point x="976" y="412" type="curve" smooth="yes"/>
			<point x="976" y="426"/>
			<point x="966" y="443"/>
			<point x="946" y="465" type="curve" smooth="yes"/>
			<point x="299" y="1165" type="line" smooth="yes"/>
			<point x="286" y="1180"/>
			<point x="274" y="1188"/>
			<point x="263" y="1188" type="curve" smooth="yes"/>
			<point x="243" y="1188"/>
			<point x="225" y="1171"/>
			<point x="225" y="1151" type="curve" smooth="yes"/>
			<point x="225" y="1142"/>
			<point x="231" y="1131"/>
			<point x="244" y="1116" type="curve" smooth="yes"/>
			<point x="899" y="406" type="line" smooth="yes"/>
			<point x="916" y="388"/>
			<point x="929" y="378"/>
		</contour>
	</outline>
</glyph>
<glyph name="Oslash" format="2">
	<unicode hex="00D8"/>
	<advance width="1432"/>
	<outline>
		<contour>
			<point x="656" y="-12" type="curve" smooth="yes"/>
			<point x="993" y="-12"/>
			<point x="1282" y="348"/>
			<point x="1282" y="898" type="curve" smooth="yes"/>
			<point x="1282" y="1142"/>
			<point x="1226" y="1321"/>
			<point x="1138" y="1439" type="curve"/>
			<point x="1200" y="1549" type="line" smooth="yes"/>
			<point x="1216" y="1577"/>
			<point x="1221" y="1591"/>
			<point x="1221" y="1602" type="curve" smooth="yes"/>
			<point x="1221" y="1620"/>
			<point x="1202" y="1634"/>
			<point x="1181" y="1634" type="curve" smooth="yes"/>
			<point x="1167" y="1634"/>
			<point x="1157" y="1626"/>
			<point x="1134" y="1586" type="curve" smooth="yes"/>
			<point x="1085" y="1499" type="line"/>
			<point x="1002" y="1577"/>
			<point x="901" y="1615"/>
			<point x="793" y="1615" type="curve" smooth="yes"/>
			<point x="459" y="1615"/>
			<point x="170" y="1258"/>
			<point x="170" y="708" type="curve" smooth="yes"/>
			<point x="170" y="457"/>
			<point x="228" y="275"/>
			<point x="320" y="156" type="curve"/>
			<point x="254" y="41" type="line" smooth="yes"/>
			<point x="237" y="11"/>
			<point x="232" y="0"/>
			<point x="232" y="-11" type="curve" smooth="yes"/>
			<point x="232" y="-30"/>
			<point x="254" y="-45"/>
			<point x="275" y="-45" type="curve" smooth="yes"/>
			<point x="289" y="-45"/>
			<point x="299" y="-33"/>
			<point x="317" y="-1" type="curve" smooth="yes"/>
			<point x="373" y="98" type="line"/>
			<point x="453" y="24"/>
			<point x="551" y="-12"/>
		</contour>
		<contour>
			<point x="255" y="713" type="curve" smooth="yes"/>
			<point x="255" y="1203"/>
			<point x="502" y="1535"/>
			<point x="790" y="1535" type="curve" smooth="yes"/>
			<point x="885" y="1535"/>
			<point x="973" y="1502"/>
			<point x="1043" y="1427" type="curve"/>
			<point x="364" y="234" type="line"/>
			<point x="297" y="338"/>
			<point x="255" y="494"/>
		</contour>
		<contour>
			<point x="415" y="170" type="curve"/>
			<point x="1093" y="1362" type="line"/>
			<point x="1157" y="1259"/>
			<point x="1197" y="1105"/>
			<point x="1197" y="892" type="curve" smooth="yes"/>
			<point x="1197" y="402"/>
			<point x="950" y="68"/>
			<point x="662" y="68" type="curve" smooth="yes"/>
			<point x="570" y="68"/>
			<point x="484" y="100"/>
		</contour>
	</outline>
	<anchor name="bottom" x="656" y="-12"/>
	<anchor name="center" x="721" y="784"/>
	<anchor name="ogonek" x="1076" y="10"/>
	<anchor name="top" x="801" y="1600"/>
	<anchor name="topleft" x="287" y="1434"/>
	<anchor name="topright" x="1488" y="1434"/>
</glyph>
<glyph name="Thorn" format="2">
	<unicode hex="00DE"/>
	<advance width="1095"/>
	<outline>
		<contour>
			<point x="224" y="385" type="line"/>
			<point x="437" y="385" type="line" smooth="yes"/>
			<point x="796" y="385"/>
			<point x="1015" y="588"/>
			<point x="1015" y="895" type="curve" smooth="yes"/>
			<point x="1015" y="1146"/>
			<point x="832" y="1312"/>
			<point x="518" y="1312" type="curve" smooth="yes"/>
			<point x="439" y="1312"/>
			<point x="325" y="1304"/>
			<point x="272" y="1299" type="curve"/>
			<point x="266" y="1224" type="line"/>
			<point x="336" y="1230"/>
			<point x="439" y="1234"/>
			<point x="512" y="1234" type="curve" smooth="yes"/>
			<point x="782" y="1234"/>
			<point x="935" y="1100"/>
			<point x="935" y="884" type="curve" smooth="yes"/>
			<point x="935" y="643"/>
			<point x="759" y="463"/>
			<point x="444" y="463" type="curve" smooth="yes"/>
			<point x="229" y="463" type="line"/>
		</contour>
		<contour>
			<point x="188" y="-12" type="curve" smooth="yes"/>
			<point x="217" y="-12"/>
			<point x="232" y="2"/>
			<point x="234" y="31" type="curve" smooth="yes"/>
			<point x="332" y="1518" type="line" smooth="yes"/>
			<point x="333" y="1532"/>
			<point x="334" y="1546"/>
			<point x="334" y="1557" type="curve" smooth="yes"/>
			<point x="334" y="1588"/>
			<point x="317" y="1600"/>
			<point x="291" y="1600" type="curve" smooth="yes"/>
			<point x="265" y="1600"/>
			<point x="252" y="1586"/>
			<point x="250" y="1557" type="curve" smooth="yes"/>
			<point x="152" y="70" type="line" smooth="yes"/>
			<point x="151" y="56"/>
			<point x="150" y="42"/>
			<point x="150" y="31" type="curve" smooth="yes"/>
			<point x="150" y="0"/>
			<point x="165" y="-12"/>
		</contour>
	</outline>
	<anchor name="bottom" x="191" y="0"/>
	<anchor name="ogonek" x="157" y="0"/>
	<anchor name="top" x="302" y="1600"/>
	<anchor name="topleft" x="219" y="1600"/>
</glyph>
<glyph name="germandbls" format="2">
	<unicode hex="00DF"/>
	<advance width="993"/>
	<outline>
		<contour>
			<point x="202" y="-12" type="curve" smooth="yes"/>
			<point x="231" y="-12"/>
			<point x="243" y="-3"/>
			<point x="245" y="34" type="curve" smooth="yes"/>
			<point x="312" y="1075" type="line" smooth="yes"/>
			<point x="332" y="1385"/>
			<point x="410" y="1522"/>
			<point x="588" y="1522" type="curve" smooth="yes"/>
			<point x="715" y="1522"/>
			<point x="788" y="1456"/>
			<point x="788" y="1343" type="curve" smooth="yes"/>
			<point x="788" y="1222"/>
			<point x="711" y="1150"/>
			<point x="634" y="1078" type="curve" smooth="yes"/>
			<point x="554" y="1003"/>
			<point x="474" y="928"/>
			<point x="474" y="799" type="curve" smooth="yes"/>
			<point x="474" y="663"/>
			<point x="565" y="606"/>
			<point x="654" y="552" type="curve" smooth="yes"/>
			<point x="743" y="498"/>
			<point x="828" y="444"/>
			<point x="828" y="317" type="curve" smooth="yes"/>
			<point x="828" y="178"/>
			<point x="729" y="96"/>
			<point x="494" y="69" type="curve" smooth="yes"/>
			<point x="456" y="65"/>
			<point x="444" y="51"/>
			<point x="444" y="28" type="curve" smooth="yes"/>
			<point x="444" y="1"/>
			<point x="459" y="-12"/>
			<point x="488" y="-12" type="curve" smooth="yes"/>
			<point x="496" y="-12"/>
			<point x="512" y="-11"/>
			<point x="537" y="-7" type="curve" smooth="yes"/>
			<point x="774" y="29"/>
			<point x="913" y="141"/>
			<point x="913" y="324" type="curve" smooth="yes"/>
			<point x="913" y="490"/>
			<point x="807" y="558"/>
			<point x="711" y="619" type="curve" smooth="yes"/>
			<point x="631" y="670"/>
			<point x="557" y="718"/>
			<point x="557" y="814" type="curve" smooth="yes"/>
			<point x="557" y="908"/>
			<point x="622" y="969"/>
			<point x="693" y="1035" type="curve" smooth="yes"/>
			<point x="777" y="1112"/>
			<point x="868" y="1197"/>
			<point x="868" y="1351" type="curve" smooth="yes"/>
			<point x="868" y="1508"/>
			<point x="763" y="1600"/>
			<point x="598" y="1600" type="curve" smooth="yes"/>
			<point x="374" y="1600"/>
			<point x="250" y="1442"/>
			<point x="228" y="1102" type="curve" smooth="yes"/>
			<point x="164" y="103" type="line" smooth="yes"/>
			<point x="162" y="74"/>
			<point x="160" y="43"/>
			<point x="160" y="28" type="curve" smooth="yes"/>
			<point x="160" y="0"/>
			<point x="169" y="-12"/>
		</contour>
	</outline>
</glyph>
<glyph name="ae" format="2">
	<unicode hex="00E6"/>
	<advance width="1521"/>
	<outline>
		<contour>
			<point x="333" y="-12" type="curve" smooth="yes"/>
			<point x="484" y="-12"/>
			<point x="641" y="148"/>
			<point x="778" y="508" type="curve"/>
			<point x="768" y="430"/>
			<point x="767" y="407"/>
			<point x="767" y="365" type="curve" smooth="yes"/>
			<point x="767" y="136"/>
			<point x="878" y="-12"/>
			<point x="1086" y="-12" type="curve" smooth="yes"/>
			<point x="1191" y="-12"/>
			<point x="1294" y="26"/>
			<point x="1369" y="92" type="curve" smooth="yes"/>
			<point x="1397" y="117"/>
			<point x="1411" y="137"/>
			<point x="1411" y="148" type="curve" smooth="yes"/>
			<point x="1411" y="167"/>
			<point x="1391" y="186"/>
			<point x="1375" y="186" type="curve" smooth="yes"/>
			<point x="1366" y="186"/>
			<point x="1358" y="182"/>
			<point x="1331" y="157" type="curve" smooth="yes"/>
			<point x="1270" y="100"/>
			<point x="1182" y="66"/>
			<point x="1095" y="66" type="curve" smooth="yes"/>
			<point x="924" y="66"/>
			<point x="847" y="190"/>
			<point x="847" y="370" type="curve" smooth="yes"/>
			<point x="847" y="382"/>
			<point x="847" y="394"/>
			<point x="848" y="406" type="curve"/>
			<point x="1215" y="408"/>
			<point x="1406" y="546"/>
			<point x="1406" y="737" type="curve" smooth="yes"/>
			<point x="1406" y="855"/>
			<point x="1323" y="935"/>
			<point x="1183" y="935" type="curve" smooth="yes"/>
			<point x="1065" y="935"/>
			<point x="951" y="872"/>
			<point x="867" y="733" type="curve"/>
			<point x="876" y="831"/>
			<point x="880" y="876"/>
			<point x="880" y="891" type="curve" smooth="yes"/>
			<point x="880" y="924"/>
			<point x="869" y="935"/>
			<point x="840" y="935" type="curve" smooth="yes"/>
			<point x="816" y="935"/>
			<point x="798" y="926"/>
			<point x="795" y="881" type="curve" smooth="yes"/>
			<point x="793" y="855" type="line"/>
			<point x="714" y="910"/>
			<point x="634" y="935"/>
			<point x="553" y="935" type="curve" smooth="yes"/>
			<point x="308" y="935"/>
			<point x="130" y="700"/>
			<point x="130" y="328" type="curve" smooth="yes"/>
			<point x="130" y="108"/>
			<point x="204" y="-12"/>
		</contour>
		<contour>
			<point x="355" y="66" type="curve" smooth="yes"/>
			<point x="262" y="66"/>
			<point x="215" y="157"/>
			<point x="215" y="332" type="curve" smooth="yes"/>
			<point x="215" y="654"/>
			<point x="363" y="857"/>
			<point x="557" y="857" type="curve" smooth="yes"/>
			<point x="639" y="857"/>
			<point x="703" y="836"/>
			<point x="789" y="778" type="curve"/>
			<point x="784" y="706" type="line"/>
			<point x="668" y="334"/>
			<point x="484" y="66"/>
		</contour>
		<contour>
			<point x="855" y="475" type="curve"/>
			<point x="890" y="721"/>
			<point x="1027" y="857"/>
			<point x="1174" y="857" type="curve" smooth="yes"/>
			<point x="1268" y="857"/>
			<point x="1326" y="808"/>
			<point x="1326" y="724" type="curve" smooth="yes"/>
			<point x="1326" y="596"/>
			<point x="1190" y="478"/>
		</contour>
	</outline>
	<anchor name="bottom" x="694" y="0"/>
	<anchor name="ogonek" x="1153" y="0"/>
	<anchor name="top" x="854" y="910"/>
</glyph>
<glyph name="eth" format="2">
	<unicode hex="00F0"/>
	<advance width="1010"/>
	<outline>
		<contour>
			<point x="468" y="-12" type="curve" smooth="yes"/>
			<point x="711" y="-12"/>
			<point x="880" y="200"/>
			<point x="880" y="599" type="curve" smooth="yes"/>
			<point x="880" y="889"/>
			<point x="791" y="1145"/>
			<point x="655" y="1338" type="curve"/>
			<point x="767" y="1387" type="line" smooth="yes"/>
			<point x="796" y="1400"/>
			<point x="808" y="1410"/>
			<point x="808" y="1428" type="curve" smooth="yes"/>
			<point x="808" y="1446"/>
			<point x="797" y="1468"/>
			<point x="775" y="1468" type="curve" smooth="yes"/>
			<point x="769" y="1468"/>
			<point x="762" y="1466"/>
			<point x="739" y="1456" type="curve" smooth="yes"/>
			<point x="608" y="1399" type="line"/>
			<point x="560" y="1459"/>
			<point x="506" y="1511"/>
			<point x="450" y="1555" type="curve" smooth="yes"/>
			<point x="413" y="1584"/>
			<point x="386" y="1600"/>
			<point x="367" y="1600" type="curve" smooth="yes"/>
			<point x="344" y="1600"/>
			<point x="332" y="1582"/>
			<point x="332" y="1563" type="curve" smooth="yes"/>
			<point x="332" y="1551"/>
			<point x="339" y="1541"/>
			<point x="360" y="1525" type="curve" smooth="yes"/>
			<point x="422" y="1477"/>
			<point x="479" y="1424"/>
			<point x="529" y="1364" type="curve"/>
			<point x="381" y="1300" type="line" smooth="yes"/>
			<point x="356" y="1289"/>
			<point x="347" y="1278"/>
			<point x="347" y="1263" type="curve" smooth="yes"/>
			<point x="347" y="1245"/>
			<point x="361" y="1224"/>
			<point x="383" y="1224" type="curve" smooth="yes"/>
			<point x="388" y="1224"/>
			<point x="395" y="1225"/>
			<point x="420" y="1236" type="curve" smooth="yes"/>
			<point x="577" y="1304" type="line"/>
			<point x="666" y="1182"/>
			<point x="731" y="1040"/>
			<point x="766" y="878" type="curve"/>
			<point x="696" y="918"/>
			<point x="635" y="935"/>
			<point x="560" y="935" type="curve" smooth="yes"/>
			<point x="273" y="935"/>
			<point x="130" y="684"/>
			<point x="130" y="415" type="curve" smooth="yes"/>
			<point x="130" y="149"/>
			<point x="259" y="-12"/>
		</contour>
		<contour>
			<point x="215" y="426" type="curve" smooth="yes"/>
			<point x="215" y="685"/>
			<point x="351" y="861"/>
			<point x="573" y="861" type="curve" smooth="yes"/>
			<point x="653" y="861"/>
			<point x="717" y="838"/>
			<point x="781" y="795" type="curve"/>
			<point x="790" y="731"/>
			<point x="795" y="664"/>
			<point x="795" y="594" type="curve" smooth="yes"/>
			<point x="795" y="234"/>
			<point x="666" y="66"/>
			<point x="476" y="66" type="curve" smooth="yes"/>
			<point x="311" y="66"/>
			<point x="215" y="197"/>
		</contour>
	</outline>
</glyph>
<glyph name="divide" format="2">
	<advance width="1200"/>
	<unicode hex="00F7"/>
	<outline>
		<contour>
			<point x="216" y="748" type="curve" smooth="yes"/>
			<point x="978" y="748" type="line" smooth="yes"/>
			<point x="1017" y="748"/>
			<point x="1029" y="767"/>
			<point x="1029" y="791" type="curve" smooth="yes"/>
			<point x="1029" y="814"/>
			<point x="1012" y="823"/>
			<point x="985" y="823" type="curve" smooth="yes"/>
			<point x="222" y="823" type="line" smooth="yes"/>
			<point x="187" y="823"/>
			<point x="173" y="806"/>
			<point x="173" y="784" type="curve" smooth="yes"/>
			<point x="173" y="760"/>
			<point x="188" y="748"/>
		</contour>
		<contour>
			<point x="580" y="339" type="curve" smooth="yes"/>
			<point x="638" y="339"/>
			<point x="693" y="393"/>
			<point x="693" y="458" type="curve" smooth="yes"/>
			<point x="693" y="514"/>
			<point x="651" y="557"/>
			<point x="593" y="557" type="curve" smooth="yes"/>
			<point x="536" y="557"/>
			<point x="487" y="507"/>
			<point x="487" y="443" type="curve" smooth="yes"/>
			<point x="487" y="378"/>
			<point x="528" y="339"/>
		</contour>
		<contour>
			<point x="635" y="1024" type="curve" smooth="yes"/>
			<point x="693" y="1024"/>
			<point x="748" y="1078"/>
			<point x="748" y="1143" type="curve" smooth="yes"/>
			<point x="748" y="1199"/>
			<point x="706" y="1242"/>
			<point x="648" y="1242" type="curve" smooth="yes"/>
			<point x="591" y="1242"/>
			<point x="542" y="1192"/>
			<point x="542" y="1128" type="curve" smooth="yes"/>
			<point x="542" y="1063"/>
			<point x="583" y="1024"/>
		</contour>
	</outline>
</glyph>
<glyph name="thorn" format="2">
	<advance width="1060"/>
	<unicode hex="00FE"/>
	<outline>
		<contour>
			<point x="462" y="-12" type="curve" smooth="yes"/>
			<point x="705" y="-12"/>
			<point x="940" y="236"/>
			<point x="940" y="625" type="curve" smooth="yes"/>
			<point x="940" y="833"/>
			<point x="864" y="935"/>
			<point x="719" y="935" type="curve" smooth="yes"/>
			<point x="554" y="935"/>
			<point x="417" y="794"/>
			<point x="293" y="513" type="curve"/>
			<point x="357" y="1506" type="line" smooth="yes"/>
			<point x="359" y="1531"/>
			<point x="360" y="1548"/>
			<point x="360" y="1553" type="curve" smooth="yes"/>
			<point x="360" y="1587"/>
			<point x="347" y="1600"/>
			<point x="318" y="1600" type="curve" smooth="yes"/>
			<point x="294" y="1600"/>
			<point x="276" y="1591"/>
			<point x="273" y="1546" type="curve" smooth="yes"/>
			<point x="136" y="-609" type="line" smooth="yes"/>
			<point x="135" y="-625"/>
			<point x="135" y="-627"/>
			<point x="135" y="-629" type="curve" smooth="yes"/>
			<point x="135" y="-657"/>
			<point x="149" y="-670"/>
			<point x="175" y="-670" type="curve" smooth="yes"/>
			<point x="200" y="-670"/>
			<point x="218" y="-657"/>
			<point x="220" y="-625" type="curve" smooth="yes"/>
			<point x="263" y="37" type="line"/>
			<point x="320" y="6"/>
			<point x="385" y="-12"/>
		</contour>
		<contour>
			<point x="268" y="115" type="curve"/>
			<point x="281" y="332" type="line"/>
			<point x="408" y="676"/>
			<point x="566" y="857"/>
			<point x="705" y="857" type="curve" smooth="yes"/>
			<point x="805" y="857"/>
			<point x="855" y="780"/>
			<point x="855" y="611" type="curve" smooth="yes"/>
			<point x="855" y="281"/>
			<point x="662" y="66"/>
			<point x="466" y="66" type="curve" smooth="yes"/>
			<point x="382" y="66"/>
			<point x="320" y="83"/>
		</contour>
	</outline>
</glyph>
<glyph name="Aogonek" format="2">
	<unicode hex="0104"/>
	<advance width="1271"/>
	<outline>
		<contour>
			<point x="1024" y="-386" type="curve" smooth="yes"/>
			<point x="1097" y="-386"/>
			<point x="1152" y="-354"/>
			<point x="1192" y="-315" type="curve" smooth="yes"/>
			<point x="1210" y="-298"/>
			<point x="1214" y="-287"/>
			<point x="1214" y="-280" type="curve" smooth="yes"/>
			<point x="1214" y="-263"/>
			<point x="1200" y="-249"/>
			<point x="1187" y="-249" type="curve" smooth="yes"/>
			<point x="1177" y="-249"/>
			<point x="1170" y="-253"/>
			<point x="1153" y="-265" type="curve" smooth="yes"/>
			<point x="1116" y="-291"/>
			<point x="1076" y="-309"/>
			<point x="1039" y="-309" type="curve" smooth="yes"/>
			<point x="996" y="-309"/>
			<point x="970" y="-289"/>
			<point x="970" y="-235" type="curve" smooth="yes"/>
			<point x="970" y="-173"/>
			<point x="1006" y="-96"/>
			<point x="1094" y="-26" type="curve" smooth="yes"/>
			<point x="1139" y="10"/>
			<point x="1149" y="24"/>
			<point x="1149" y="42" type="curve" smooth="yes"/>
			<point x="1149" y="50"/>
			<point x="1148" y="55"/>
			<point x="1144" y="70" type="curve" smooth="yes"/>
			<point x="751" y="1552" type="line" smooth="yes"/>
			<point x="741" y="1590"/>
			<point x="729" y="1600"/>
			<point x="709" y="1600" type="curve" smooth="yes"/>
			<point x="691" y="1600" type="line" smooth="yes"/>
			<point x="673" y="1600"/>
			<point x="660" y="1589"/>
			<point x="646" y="1554" type="curve" smooth="yes"/>
			<point x="60" y="62" type="line" smooth="yes"/>
			<point x="56" y="52"/>
			<point x="50" y="36"/>
			<point x="50" y="22" type="curve" smooth="yes"/>
			<point x="50" y="0"/>
			<point x="70" y="-12"/>
			<point x="95" y="-12" type="curve" smooth="yes"/>
			<point x="114" y="-12"/>
			<point x="126" y="5"/>
			<point x="136" y="31" type="curve" smooth="yes"/>
			<point x="367" y="626" type="line"/>
			<point x="907" y="626" type="line"/>
			<point x="1061" y="36" type="line"/>
			<point x="935" y="-67"/>
			<point x="890" y="-155"/>
			<point x="890" y="-250" type="curve" smooth="yes"/>
			<point x="890" y="-334"/>
			<point x="951" y="-386"/>
		</contour>
		<contour>
			<point x="397" y="704" type="line"/>
			<point x="689" y="1458" type="line"/>
			<point x="886" y="704" type="line"/>
		</contour>
	</outline>
	<anchor name="bottom" x="604" y="0"/>
	<anchor name="top" x="701" y="1600"/>
	<anchor name="topleft" x="303" y="1600"/>
</glyph>
